<svg xmlns="http://www.w3.org/2000/svg" xmlns:xlink="http://www.w3.org/1999/xlink" width="1366" zoomAndPan="magnify" viewBox="0 0 1024.5 576" height="768" preserveAspectRatio="xMidYMid meet" version="1.0"><defs><clipPath id="a3561db3b5"><path d="M 137 219 L 926.6875 219 L 926.6875 334 L 137 334 Z M 137 219 " clip-rule="nonzero"/></clipPath></defs><g clip-path="url(#a3561db3b5)"><path fill="#efe5d7" d="M 297.28125 332.730469 C 297.28125 332.253906 300.386719 328.847656 304.175781 325.164062 C 307.964844 321.480469 314.800781 314.433594 319.351562 309.507812 C 332.683594 295.078125 342.582031 289.558594 367.683594 282.597656 C 371.292969 281.597656 369.644531 281.539062 343.621094 281.765625 L 315.683594 282.011719 L 311.136719 285.253906 C 306.539062 289.007812 302.238281 293.074219 298.238281 297.457031 C 281.996094 314.882812 278.207031 318.4375 273.34375 320.800781 C 268.257812 323.273438 261.042969 325.1875 250.460938 326.863281 C 246.589844 327.476562 242.613281 328.113281 241.628906 328.277344 C 240.65625 328.453125 239.71875 328.34375 238.8125 327.945312 C 237.242188 326.972656 238.875 324.898438 246.585938 318.0625 C 250.265625 314.804688 257.195312 308.398438 261.988281 303.824219 C 274.558594 291.835938 280.078125 288.382812 292.628906 284.675781 L 298.347656 282.984375 L 274 282.957031 L 249.652344 282.917969 L 246.476562 285.207031 C 244.734375 286.464844 239.4375 290.820312 234.710938 294.886719 C 221.078125 306.621094 215.113281 309.597656 202.359375 311.0625 C 192.964844 312.136719 183.0625 312.277344 182.734375 311.335938 C 182.25 309.945312 204.195312 294.285156 215.179688 288.191406 C 218.53125 286.40625 221.992188 284.871094 225.566406 283.582031 L 231.101562 281.664062 L 225.292969 280.835938 C 222.097656 280.378906 217.425781 279.515625 214.910156 278.910156 C 210.605469 278.078125 206.261719 277.75 201.882812 277.929688 C 186.128906 278.144531 170.875 274.976562 163.230469 269.898438 C 158.992188 267.089844 139.609375 249.300781 137.839844 246.597656 C 135.824219 243.519531 137.269531 243.078125 143.953125 244.761719 C 147.179688 245.574219 154.257812 246.910156 159.664062 247.730469 C 175.855469 250.195312 180.105469 252.113281 197.550781 264.828125 C 203.402344 269.09375 209.621094 273.308594 211.371094 274.191406 C 214.648438 275.84375 228.496094 278.023438 235.214844 277.941406 C 238.398438 277.90625 238.3125 277.847656 232.097656 275.960938 C 224.144531 273.554688 215.660156 269.566406 211.003906 266.050781 C 207.0625 262.441406 203.449219 258.527344 200.167969 254.304688 C 196.160156 249.320312 191.457031 243.761719 189.714844 241.953125 C 185.960938 238.046875 185.972656 235.980469 189.746094 236.714844 C 198.945312 238.507812 214.40625 245.417969 223.113281 251.632812 C 226.195312 253.96875 229.019531 256.578125 231.59375 259.460938 C 239.867188 268.96875 244.046875 273.066406 248.316406 275.84375 L 252.671875 278.6875 L 262.894531 278.6875 C 268.515625 278.6875 279.855469 278.476562 288.09375 278.21875 L 303.066406 277.753906 L 294.789062 276.085938 C 277.921875 272.683594 270.148438 267.984375 256.128906 252.699219 C 252.777344 248.855469 249.214844 245.21875 245.449219 241.789062 C 244.640625 241.476562 244.582031 241.082031 245.1875 239.949219 C 246.125 238.195312 247.339844 238.355469 259.613281 241.828125 C 269.855469 244.726562 283.085938 251.09375 289.683594 256.300781 C 303.472656 267.1875 308.09375 270.425781 314.179688 273.484375 C 321.828125 277.328125 317.738281 277.03125 350.792969 276.125 C 367.84375 275.660156 368.511719 275.589844 364.117188 274.761719 C 352.066406 272.484375 345.273438 268.894531 328.964844 256.148438 C 322.964844 251.457031 315.519531 246.070312 312.421875 244.171875 C 305.261719 239.78125 304.703125 239.296875 305.664062 238.332031 C 307.210938 236.785156 335.910156 241.046875 345.460938 244.238281 C 353.707031 246.996094 355.917969 248.320312 369.449219 258.636719 C 375.648438 263.355469 383.628906 269.128906 387.199219 271.46875 L 393.675781 275.722656 L 403.039062 276.125 C 408.191406 276.347656 420.484375 276.691406 430.359375 276.886719 L 448.3125 277.246094 L 440.097656 274.488281 C 423.992188 269.074219 418.34375 265.304688 401.191406 248.496094 C 387.65625 235.230469 381.035156 230.0625 371.441406 225.269531 C 366.46875 222.78125 365.796875 222.039062 367.09375 220.472656 C 367.882812 219.523438 369.125 219.425781 375.347656 219.828125 C 397.4375 221.257812 417.777344 227.652344 427.507812 236.226562 C 431.824219 240.707031 435.800781 245.46875 439.433594 250.519531 C 443.882812 256.523438 449.441406 263.457031 451.789062 265.921875 C 456.167969 270.53125 465.042969 277.273438 466.726562 277.273438 C 467.25 277.273438 467.671875 277.554688 467.671875 277.894531 C 467.671875 278.902344 470.949219 279.820312 481.753906 281.84375 C 497.957031 284.878906 517.839844 291.9375 528.304688 298.378906 L 531.703125 300.46875 L 539.640625 296.304688 C 554.152344 288.800781 569.476562 283.75 585.605469 281.148438 C 590.371094 280.398438 594.082031 279.421875 595.257812 278.601562 C 596.039062 277.996094 596.902344 277.550781 597.855469 277.273438 C 599.027344 277.273438 609.476562 269.082031 612.558594 265.738281 C 614.175781 263.976562 619.09375 257.707031 623.488281 251.78125 C 636.949219 233.648438 643.449219 228.984375 661.992188 224.160156 C 673.804688 221.089844 692.191406 218.753906 695.71875 219.871094 C 698.722656 220.828125 697.304688 222.648438 690.871094 226.089844 C 681.316406 231.199219 674.6875 236.492188 662.328125 248.882812 C 657.332031 254.015625 652.058594 258.84375 646.503906 263.367188 C 639.238281 268.265625 631.441406 272.082031 623.109375 274.808594 C 619.132812 276.128906 616.507812 277.214844 617.285156 277.222656 C 618.0625 277.226562 630.214844 276.945312 644.292969 276.59375 L 669.894531 275.957031 L 676.65625 271.515625 C 680.375 269.070312 687.707031 263.769531 692.949219 259.738281 C 708.921875 247.441406 712.109375 245.71875 725.007812 242.429688 C 730.824219 240.945312 752.164062 237.847656 756.574219 237.847656 C 759.785156 237.847656 758.695312 239.65625 753.699219 242.625 C 751.085938 244.179688 745.304688 248.238281 740.851562 251.644531 C 736.398438 255.050781 730.117188 259.84375 726.894531 262.292969 C 722.960938 265.414062 718.714844 268.03125 714.15625 270.140625 C 709.597656 272.253906 704.859375 273.800781 699.933594 274.78125 L 695.4375 275.757812 L 702.476562 275.875 C 706.351562 275.941406 716.804688 276.234375 725.710938 276.527344 L 741.90625 277.0625 L 748.945312 273.757812 C 755.609375 270.628906 759.214844 268.167969 773.175781 257.226562 C 783.496094 249.136719 793.859375 244.363281 810.023438 240.269531 C 817.113281 238.472656 819.007812 238.441406 818.992188 240.113281 C 818.984375 240.609375 813.367188 246.765625 806.496094 253.792969 C 790.5625 270.09375 786.496094 272.492188 768.660156 276.152344 L 760.917969 277.738281 L 775.351562 278.210938 C 783.289062 278.46875 794.496094 278.683594 800.257812 278.683594 C 810.671875 278.683594 810.757812 278.671875 814.527344 276.515625 C 818.65625 274.152344 823.148438 269.914062 832.363281 259.714844 C 839.019531 252.34375 844.121094 248.699219 855.140625 243.453125 C 861.554688 240.398438 873.1875 236.441406 875.757812 236.441406 C 876.886719 236.441406 877.089844 238.957031 876.011719 239.621094 C 875.613281 239.867188 871.546875 244.71875 866.976562 250.402344 C 853.734375 266.855469 849.71875 269.875 834.0625 275.144531 C 826.238281 277.785156 825.902344 277.960938 828.972656 277.972656 C 835.433594 277.992188 849.570312 275.800781 852.441406 274.335938 C 853.988281 273.542969 859.058594 270.128906 863.707031 266.75 C 884.476562 251.640625 888.347656 249.871094 906.300781 247.371094 C 910.753906 246.75 916.699219 245.621094 919.503906 244.863281 C 925.851562 243.148438 926.710938 243.140625 926.710938 244.816406 C 926.710938 246.53125 907.003906 265.65625 901.335938 269.441406 C 892.828125 275.121094 883.132812 277.363281 865.613281 277.6875 C 859.34375 277.6875 853.125 278.234375 846.953125 279.320312 C 842.992188 280.097656 838.207031 280.953125 836.304688 281.21875 L 832.847656 281.695312 L 839.3125 284.003906 C 848.066406 287.128906 866.410156 298.5 877.605469 307.738281 C 882.773438 312.003906 882.261719 312.726562 874.4375 312.171875 C 849.476562 310.414062 845.464844 308.882812 829.199219 294.882812 C 824.167969 290.546875 818.726562 286.082031 817.105469 284.957031 L 814.164062 282.902344 L 765.835938 282.988281 L 772.171875 284.933594 C 784.480469 288.710938 790.128906 292.421875 804.765625 306.347656 C 809.734375 311.074219 816.628906 317.542969 820.089844 320.722656 C 825.632812 325.824219 826.25 326.628906 825.328125 327.527344 C 823.371094 329.421875 799.964844 325.0625 791.652344 321.253906 C 785.550781 318.46875 781.167969 314.660156 772.273438 304.449219 C 763.148438 293.964844 756.894531 287.859375 751.902344 284.550781 C 748.582031 282.351562 748.527344 282.351562 736.433594 281.902344 C 720.097656 281.296875 692.257812 281.050781 692.257812 281.507812 C 693.539062 282.152344 694.890625 282.578125 696.308594 282.789062 C 705.703125 285.1875 714.785156 288.460938 723.546875 292.617188 C 731.859375 296.898438 738.203125 302.140625 747.179688 312.148438 C 751.242188 316.683594 757.414062 323.039062 760.890625 326.273438 C 769.203125 334.003906 768.757812 334.683594 757.207031 331.878906 C 738.691406 327.398438 725.859375 322.292969 717.894531 316.261719 C 715.917969 314.765625 709.824219 309.292969 704.367188 304.105469 C 692.515625 292.839844 685.996094 287.792969 678.890625 284.386719 C 673.726562 281.914062 673.390625 281.851562 663.753906 281.613281 C 654.023438 281.371094 620.859375 282.148438 621.320312 282.605469 C 621.449219 282.738281 625.34375 283.660156 629.972656 284.660156 C 645.519531 288.023438 660.679688 293.953125 671.84375 301.046875 C 678.8125 305.472656 698.601562 320.320312 699.316406 321.660156 C 700.449219 323.769531 698.386719 324.382812 693.777344 323.296875 C 690.367188 322.664062 686.929688 322.339844 683.460938 322.328125 C 674.367188 322.285156 659.925781 321.136719 655.917969 320.144531 C 646.945312 317.917969 642.207031 314.777344 627.742188 301.472656 C 617.207031 291.78125 611.589844 287.339844 606.714844 284.851562 C 604.847656 283.894531 603.710938 283.882812 596.859375 284.746094 C 576.617188 287.289062 559.214844 292.226562 544.425781 299.636719 C 540.757812 301.472656 537.660156 303.316406 537.542969 303.734375 C 537.425781 304.152344 538.113281 304.851562 539.070312 305.285156 C 541.855469 306.550781 546.519531 311.113281 546.519531 312.5625 C 546.519531 315.203125 542.253906 313.871094 535.863281 309.222656 C 534.71875 308.3125 533.496094 307.523438 532.195312 306.847656 C 530.191406 307.90625 528.257812 309.078125 526.390625 310.367188 C 521.171875 313.777344 518.230469 314.675781 517.289062 313.15625 C 516.527344 311.921875 518.753906 309.300781 522.949219 306.519531 C 525.152344 305.066406 526.671875 303.609375 526.347656 303.292969 C 525.15625 302.109375 512.898438 296.382812 506.398438 293.972656 C 496.511719 290.34375 486.363281 287.722656 475.957031 286.105469 C 459.914062 283.386719 459.089844 283.429688 453.234375 287.234375 C 449.09375 290.140625 445.160156 293.296875 441.429688 296.707031 C 424.945312 311.738281 422.179688 313.976562 416.628906 316.746094 C 409.3125 320.394531 403.382812 321.464844 387.351562 322.023438 C 381.613281 322.152344 375.902344 322.609375 370.21875 323.402344 C 365.75 324.386719 364.175781 324.179688 364.175781 322.613281 C 364.175781 321.304688 365.730469 320.003906 378.988281 310.261719 C 400.117188 294.738281 413.539062 288.792969 440.214844 283.136719 C 442.730469 282.601562 439.847656 282.347656 426.132812 281.90625 C 416.644531 281.601562 404.605469 281.464844 399.375 281.613281 C 390.328125 281.867188 389.640625 281.992188 385.105469 284.195312 C 378.367188 287.472656 370.585938 293.558594 359.375 304.308594 C 342.160156 320.824219 335.71875 324.320312 309.957031 331.097656 C 299.75 333.785156 297.28125 334.105469 297.28125 332.734375 Z M 318.757812 325.511719 C 335.492188 320.0625 341.289062 316.445312 358.183594 300.90625 C 363.992188 295.566406 370.5625 289.90625 372.785156 288.332031 C 374.195312 287.472656 375.457031 286.4375 376.570312 285.21875 C 376.195312 284.84375 369.753906 287.492188 364.042969 290.367188 C 356.421875 294.203125 349.945312 298.382812 332.488281 310.71875 C 323.773438 316.882812 314.144531 323.613281 311.085938 325.683594 C 304.757812 329.972656 305.070312 329.964844 318.757812 325.507812 Z M 754.671875 326.941406 C 752.382812 325.558594 750.167969 324.0625 748.027344 322.457031 C 746.597656 321.335938 738.296875 315.429688 729.585938 309.335938 C 713.023438 297.746094 703.523438 291.820312 696.683594 288.789062 C 690.914062 286.226562 685.339844 284.1875 686.917969 285.210938 C 693.503906 290.015625 699.746094 295.226562 705.644531 300.851562 C 722.59375 316.746094 728.8125 320.503906 748.242188 326.609375 C 758.832031 329.9375 759.722656 329.984375 754.671875 326.945312 Z M 256.445312 322.394531 C 271.328125 319.101562 274.988281 316.683594 290.609375 299.792969 L 302.398438 287.050781 L 297.109375 290.179688 C 290.4375 294.121094 285.652344 297.628906 275.457031 306.046875 C 268.546875 311.917969 261.121094 317.046875 253.179688 321.429688 C 248.339844 324.082031 248.542969 324.140625 256.445312 322.390625 Z M 809.1875 320.535156 C 801.875 316.609375 796.929688 313.105469 787.097656 304.882812 C 780.265625 298.96875 772.949219 293.738281 765.140625 289.1875 L 760.917969 286.832031 L 767.332031 293.496094 C 770.859375 297.164062 775.726562 302.378906 778.144531 305.082031 C 787.117188 315.148438 792.746094 318.691406 804.441406 321.648438 C 815.296875 324.394531 816.054688 324.214844 809.1875 320.527344 Z M 327.558594 310.488281 C 342.261719 299.945312 348.828125 295.535156 356.777344 290.871094 C 358.832031 289.777344 360.789062 288.53125 362.65625 287.140625 C 361.3125 287.121094 347.046875 292.511719 342.75 294.664062 C 336.066406 298.011719 331.859375 301.117188 324.855469 307.875 C 317.691406 314.777344 310.695312 322.71875 313.835938 320.386719 C 314.992188 319.523438 321.167969 315.070312 327.558594 310.488281 Z M 745.308594 314.15625 C 733.46875 301.371094 725.472656 295.765625 711.878906 290.714844 C 701.402344 286.816406 699.421875 286.5625 705.449219 289.886719 C 708.246094 291.425781 712.363281 293.859375 714.601562 295.289062 C 719.5 298.417969 740.816406 313.449219 747.117188 318.21875 C 748.65625 319.445312 750.257812 320.582031 751.925781 321.625 C 752.09375 321.625 749.117188 318.265625 745.308594 314.15625 Z M 394.59375 318.113281 C 404.742188 317.371094 411.972656 315.328125 417.914062 311.523438 C 422.503906 308.078125 426.886719 304.386719 431.0625 300.449219 C 436.289062 295.640625 441.675781 290.824219 443.03125 289.742188 C 445.351562 287.898438 445.378906 287.832031 443.527344 288.503906 C 442.445312 288.898438 434.84375 292.664062 426.628906 296.863281 C 418.289062 301.335938 409.644531 305.117188 400.699219 308.203125 C 394.589844 310.253906 388.605469 312.613281 382.746094 315.289062 L 375.789062 318.683594 L 380.71875 318.71875 C 383.429688 318.742188 389.667969 318.464844 394.589844 318.105469 Z M 684.390625 316.671875 C 676.835938 313.035156 669.054688 309.964844 661.046875 307.460938 C 654.070312 305.148438 634.574219 296.183594 632.046875 294.128906 C 631.644531 293.800781 628.476562 292.238281 625.007812 290.660156 L 618.699219 287.785156 L 622.21875 290.800781 C 624.15625 292.457031 628.75 296.640625 632.429688 300.09375 C 641.464844 308.570312 645.109375 311.371094 650.253906 313.785156 C 657.617188 317.238281 665.714844 318.496094 681.714844 318.671875 L 688.402344 318.742188 Z M 266.65625 309.074219 C 268.980469 307.3125 273.730469 303.449219 277.21875 300.484375 C 280.703125 297.519531 285.855469 293.570312 288.667969 291.710938 C 290.4375 290.699219 292.046875 289.476562 293.5 288.042969 C 292.765625 287.308594 281.429688 292.476562 277.125 295.507812 C 273.230469 298.25 262.65625 307.707031 253.28125 316.835938 C 251.125 318.933594 261.871094 312.699219 266.65625 309.074219 Z M 805.796875 312.300781 C 789.070312 296.457031 787.289062 295.042969 779.441406 291.414062 C 770.316406 287.199219 768.566406 287.140625 774.695312 291.253906 C 777.574219 293.183594 782.617188 297.046875 785.910156 299.835938 C 792.132812 305.398438 798.792969 310.371094 805.894531 314.75 C 808.976562 316.597656 811.582031 318.109375 811.707031 318.109375 C 811.828125 318.109375 809.171875 315.496094 805.796875 312.300781 Z M 209.273438 307.109375 C 214.988281 305.519531 220.695312 302.066406 228.988281 295.179688 C 233.054688 291.808594 238.28125 287.621094 240.605469 285.878906 C 244.160156 283.210938 244.496094 282.789062 242.71875 283.214844 C 239.050781 284.09375 229.355469 288.933594 219.675781 294.730469 C 214.542969 297.8125 206.769531 302.308594 202.410156 304.730469 C 198.050781 307.152344 194.488281 309.195312 194.488281 309.269531 C 194.488281 309.699219 206.039062 308.011719 209.273438 307.109375 Z M 425.777344 293.433594 C 433.523438 289.503906 439.230469 286.457031 438.457031 286.664062 C 437.679688 286.871094 433.25 288.035156 428.609375 289.253906 C 420.207031 291.390625 412.089844 294.324219 404.261719 298.054688 C 400.820312 299.785156 387.410156 308.148438 387.410156 308.5625 C 387.410156 308.652344 392.871094 306.894531 399.550781 304.652344 C 408.589844 301.605469 417.332031 297.863281 425.777344 293.425781 Z M 672.203125 305.660156 C 661.664062 298.492188 650.242188 293.234375 637.945312 289.882812 C 624.863281 286.117188 624.933594 286.675781 638.414062 293.574219 C 646.511719 297.734375 654.84375 301.351562 663.410156 304.429688 C 670.1875 306.828125 676.042969 308.828125 676.425781 308.878906 C 676.808594 308.925781 674.910156 307.480469 672.203125 305.664062 Z M 867.582031 308.195312 C 866.996094 307.820312 861.617188 304.714844 855.613281 301.300781 C 849.613281 297.886719 841.378906 293.136719 837.3125 290.757812 C 830.859375 286.972656 821.957031 282.914062 820.117188 282.914062 C 819.78125 282.914062 821.054688 284.089844 822.949219 285.515625 C 824.84375 286.945312 829.089844 290.378906 832.378906 293.144531 C 843.886719 302.816406 849.519531 306.078125 857.875 307.890625 C 863.179688 309.042969 869.183594 309.230469 867.582031 308.199219 Z M 873.921875 307.902344 C 873.921875 306.9375 851.589844 292.855469 845.40625 289.917969 C 830.175781 282.683594 835.746094 286.609375 862.597656 302.027344 C 873.707031 308.410156 873.921875 308.519531 873.921875 307.894531 Z M 212.1875 295.714844 C 219.296875 291.496094 226.066406 287.511719 227.226562 286.859375 C 229.082031 285.824219 229.125 285.734375 227.578125 286.140625 C 222.285156 287.824219 217.242188 290.074219 212.453125 292.886719 C 207.53125 295.78125 192.652344 305.726562 191.320312 307.019531 C 189.820312 308.476562 199.839844 303.050781 212.1875 295.714844 Z M 241.660156 275.605469 C 239.667969 274.195312 237.601562 272.914062 235.453125 271.757812 C 226.527344 266.574219 217.917969 260.910156 209.625 254.761719 C 204.980469 251.390625 200.257812 248.027344 199.136719 247.308594 C 197.125 246.015625 197.105469 246.019531 197.855469 247.378906 C 199.402344 250.191406 209.074219 260.785156 212.460938 263.382812 C 217.042969 266.898438 224.074219 270.277344 233.210938 273.359375 C 240.523438 275.820312 241.664062 276.125 241.664062 275.609375 Z M 830.902344 273.304688 C 840.195312 270.117188 847.839844 266.324219 852.535156 262.574219 C 855.945312 259.488281 859.089844 256.152344 861.972656 252.566406 C 867.675781 245.589844 867.734375 245.480469 864.738281 247.371094 C 863.058594 248.433594 858.8125 251.417969 855.304688 254.003906 C 847.035156 260.167969 838.457031 265.863281 829.5625 271.085938 C 825.109375 273.714844 821.910156 275.863281 822.453125 275.867188 C 825.320312 275.183594 828.136719 274.328125 830.902344 273.304688 Z M 191.269531 272.070312 C 188.136719 270.789062 181.003906 267.335938 175.429688 264.398438 C 169.855469 261.464844 162.738281 257.964844 159.640625 256.625 C 156.542969 255.289062 152.105469 253.355469 149.777344 252.34375 L 145.554688 250.5 L 149.074219 253.792969 C 161.25 265.175781 167.320312 269.144531 175.828125 271.265625 C 181.847656 272.800781 187.949219 273.832031 194.136719 274.367188 C 196.820312 274.394531 196.683594 274.289062 191.265625 272.070312 Z M 304.328125 273.609375 C 292.167969 268.164062 280.453125 261.882812 269.1875 254.761719 C 263.222656 250.835938 257.050781 246.964844 255.472656 246.160156 C 252.628906 244.707031 252.644531 244.742188 257.65625 250.300781 C 267.3125 261.011719 272.695312 265.082031 282.320312 268.949219 C 289.320312 271.761719 310.449219 276.238281 304.320312 273.609375 Z M 626.960938 269.46875 C 639.894531 264.371094 646.457031 259.746094 661.296875 245.265625 C 669.042969 237.703125 675.707031 231.878906 679.25 229.570312 C 682.347656 227.546875 684.523438 225.890625 684.082031 225.886719 C 682.46875 225.882812 668.542969 232.019531 663.605469 234.914062 C 658.03125 238.183594 650.257812 244.113281 635.570312 256.292969 C 627.328125 263.132812 620.753906 268.140625 613.394531 273.195312 C 612.074219 274.105469 613.070312 273.960938 617.648438 272.585938 C 620.941406 271.597656 625.128906 270.195312 626.964844 269.472656 Z M 768.214844 272.75 C 783.988281 269.546875 792.253906 264.960938 803.660156 253.09375 C 806.257812 250.558594 808.6875 247.871094 810.945312 245.027344 C 810.492188 244.574219 806.492188 246.945312 795.292969 254.308594 C 781.902344 263.109375 777.046875 265.820312 765.914062 270.703125 C 761.234375 272.753906 757.949219 274.4375 758.605469 274.441406 C 759.265625 274.449219 763.59375 273.6875 768.214844 272.746094 Z M 883.144531 272.359375 C 893.769531 270.230469 900.054688 267 909.136719 259.003906 C 919.890625 249.535156 920.085938 249.324219 915.824219 251.414062 C 913.890625 252.367188 908.503906 254.824219 903.855469 256.871094 C 899.210938 258.917969 892.238281 262.347656 888.367188 264.496094 C 884.496094 266.648438 878 269.789062 873.933594 271.492188 L 866.539062 274.582031 L 871.175781 274.207031 C 873.722656 274.003906 879.109375 273.179688 883.144531 272.367188 Z M 380.316406 273.496094 C 380.15625 273.347656 376.539062 271.761719 372.277344 269.964844 C 368.019531 268.167969 359.78125 264.15625 353.972656 261.046875 C 348.164062 257.933594 341.128906 254.296875 338.335938 252.949219 C 331.253906 249.539062 318.585938 244.667969 319.839844 245.835938 C 323.238281 248.996094 344.484375 264.246094 347.847656 265.933594 C 354.863281 269.175781 362.1875 271.421875 369.8125 272.679688 C 375.695312 273.605469 380.878906 274.007812 380.304688 273.496094 Z M 450.394531 273.167969 C 450.027344 272.839844 447.191406 270.8125 444.089844 268.65625 C 440.984375 266.5 433.378906 260.507812 427.191406 255.34375 C 411.3125 242.105469 404.558594 237.171875 396.625 233.027344 C 390.015625 229.5625 380.441406 225.566406 379.953125 226.058594 C 381.675781 227.578125 383.523438 228.925781 385.5 230.097656 C 391.410156 234.449219 396.902344 239.28125 401.972656 244.59375 C 414.273438 256.878906 419.703125 261.167969 428.589844 265.636719 C 436.984375 269.851562 452.832031 275.328125 450.382812 273.167969 Z M 693.863281 272.714844 C 701.851562 271.507812 712.335938 268.199219 717.5 265.25 C 720.183594 263.71875 742.765625 247.230469 745.046875 245.136719 C 740.15625 246.722656 735.359375 248.550781 730.652344 250.617188 C 727.941406 251.765625 720.8125 255.351562 714.8125 258.585938 C 708.808594 261.820312 700.253906 266.089844 695.800781 268.078125 C 682.578125 273.976562 683.175781 273.660156 685.238281 273.707031 C 686.207031 273.730469 690.089844 273.28125 693.863281 272.714844 Z M 203.253906 272.46875 C 201.597656 271.015625 185.96875 260.355469 182.160156 258.082031 C 175.3125 254.316406 168.015625 251.917969 160.269531 250.878906 C 156.4375 250.277344 152.351562 249.621094 151.1875 249.410156 C 147.28125 248.722656 186.832031 268.050781 194.488281 270.566406 C 201.902344 273.003906 204.519531 273.570312 203.253906 272.460938 Z M 869.128906 270.667969 C 873.234375 269.316406 884.761719 264.113281 895.664062 258.695312 C 906.265625 253.425781 914.820312 249.117188 914.671875 249.117188 C 911.257812 249.152344 892.605469 253.050781 889.050781 254.476562 C 882.824219 256.96875 858.304688 273.050781 860.730469 273.050781 C 863.582031 272.441406 866.378906 271.644531 869.128906 270.667969 Z M 625.820312 261.699219 C 628.871094 259.289062 634.691406 254.414062 638.757812 250.859375 C 654.25 237.335938 665.757812 229.871094 677.96875 225.441406 C 682.457031 223.8125 682.5625 223.730469 679.59375 224.128906 C 669.175781 225.441406 659.148438 228.183594 649.507812 232.351562 C 640.359375 236.667969 635.359375 241.660156 623.339844 258.472656 C 620.875 261.917969 618.1875 265.183594 615.285156 268.269531 L 611.65625 271.878906 L 615.96875 268.980469 C 618.339844 267.386719 622.773438 264.109375 625.824219 261.699219 Z M 447.5 267.195312 C 445.621094 265.140625 440.925781 259.089844 437.070312 253.757812 C 433.585938 248.867188 429.765625 244.25 425.609375 239.910156 C 418.105469 232.890625 405.617188 227.78125 388.679688 224.800781 C 380.761719 223.40625 380.558594 223.519531 386.785156 225.828125 C 399.035156 230.375 409.828125 237.519531 427.191406 252.542969 C 434.507812 258.875 449.894531 270.9375 450.660156 270.9375 C 449.710938 269.601562 448.660156 268.351562 447.507812 267.191406 Z M 380.304688 269.960938 C 380.144531 269.8125 374.800781 265.816406 368.425781 261.097656 C 355.464844 251.492188 351.359375 249.179688 342.902344 246.730469 C 337.367188 245.128906 322.714844 242.453125 322.21875 242.953125 C 324.691406 244.238281 327.242188 245.335938 329.875 246.242188 C 334.214844 247.925781 342.800781 252.007812 348.957031 255.316406 C 362.710938 262.714844 382.328125 271.871094 380.304688 269.960938 Z M 693.675781 265.976562 C 697.355469 264.320312 706.226562 259.867188 713.390625 256.085938 C 720.554688 252.304688 729.84375 247.898438 734.03125 246.285156 C 736.578125 245.433594 739.027344 244.367188 741.378906 243.078125 C 741.007812 242.707031 728.714844 244.734375 723.601562 246.011719 C 713.765625 248.472656 708.878906 251.15625 693.675781 262.441406 C 681.21875 271.6875 681.21875 271.589844 693.675781 265.976562 Z M 299.816406 267.960938 C 298.691406 267.121094 295.207031 264.402344 292.082031 261.917969 C 284.574219 255.957031 281.628906 253.972656 276.285156 251.28125 C 271.328125 248.789062 260.636719 244.699219 260.199219 245.132812 C 259.847656 245.488281 277.167969 256.78125 286.023438 261.96875 C 295.972656 267.796875 304.65625 271.574219 299.816406 267.960938 Z M 771.136719 265.660156 C 779.203125 261.59375 804.519531 245.652344 803.894531 245.027344 C 803.351562 244.488281 789.304688 250.222656 784.859375 252.804688 C 777.386719 257.652344 770.230469 262.925781 763.386719 268.628906 C 762.472656 269.480469 762.582031 269.523438 764.199219 268.921875 C 765.21875 268.527344 768.339844 267.0625 771.128906 265.660156 Z M 231.175781 263.988281 C 228.441406 260.640625 225.375 257.640625 221.972656 254.976562 C 218.566406 252.316406 214.914062 250.0625 211.007812 248.21875 C 206.367188 245.867188 201.597656 243.820312 196.699219 242.074219 C 198.554688 243.601562 200.5 245.011719 202.53125 246.300781 C 205.941406 248.632812 209.898438 251.453125 211.320312 252.582031 C 214.054688 254.746094 233.980469 268.128906 234.472656 268.128906 C 233.492188 266.65625 232.394531 265.277344 231.175781 263.992188 Z M 850.902344 253.808594 C 854.847656 250.984375 860.058594 247.300781 862.480469 245.625 C 864.007812 244.625 865.476562 243.539062 866.878906 242.371094 C 864.597656 243.09375 862.359375 243.9375 860.164062 244.898438 C 846.761719 250.351562 840.21875 255.167969 830.617188 266.628906 C 829.007812 268.550781 840.027344 261.585938 850.902344 253.808594 Z M 850.902344 253.808594 " fill-opacity="1" fill-rule="nonzero"/></g></svg>