<svg xmlns="http://www.w3.org/2000/svg" xmlns:xlink="http://www.w3.org/1999/xlink" width="1366" zoomAndPan="magnify" viewBox="0 0 1024.5 576" height="768" preserveAspectRatio="xMidYMid meet" version="1.0"><defs><clipPath id="b87c41483c"><path d="M 0 0.140625 L 1024 0.140625 L 1024 575.859375 L 0 575.859375 Z M 0 0.140625 " clip-rule="nonzero"/></clipPath><clipPath id="cc618ff6c4"><path d="M 243.125 249 L 780.613281 249 L 780.613281 327 L 243.125 327 Z M 243.125 249 " clip-rule="nonzero"/></clipPath></defs><g clip-path="url(#b87c41483c)"><path fill="#ffffff" d="M 0 0.140625 L 1024 0.140625 L 1024 575.859375 L 0 575.859375 Z M 0 0.140625 " fill-opacity="1" fill-rule="nonzero"/><path fill="#e2dccf" d="M 0 0.140625 L 1024 0.140625 L 1024 575.859375 L 0 575.859375 Z M 0 0.140625 " fill-opacity="1" fill-rule="nonzero"/></g><g clip-path="url(#cc618ff6c4)"><path fill="#aca08a" d="M 352.902344 326.128906 C 352.902344 325.804688 355.011719 323.488281 357.589844 320.984375 C 360.164062 318.480469 364.8125 313.691406 367.90625 310.339844 C 376.96875 300.527344 383.699219 296.777344 400.769531 292.042969 C 403.222656 291.363281 402.101562 291.324219 384.40625 291.480469 L 365.414062 291.644531 L 362.320312 293.847656 C 359.195312 296.402344 356.269531 299.167969 353.550781 302.148438 C 342.507812 313.996094 339.933594 316.410156 336.625 318.015625 C 333.167969 319.699219 328.261719 321 321.066406 322.136719 C 318.433594 322.554688 315.730469 322.988281 315.0625 323.101562 C 314.402344 323.222656 313.761719 323.144531 313.148438 322.875 C 312.078125 322.214844 313.191406 320.804688 318.433594 316.15625 C 320.933594 313.941406 325.644531 309.585938 328.902344 306.476562 C 337.453125 298.324219 341.203125 295.976562 349.738281 293.457031 L 353.625 292.304688 L 337.070312 292.285156 L 320.515625 292.261719 L 318.359375 293.816406 C 317.171875 294.671875 313.570312 297.632812 310.359375 300.398438 C 301.089844 308.375 297.03125 310.402344 288.363281 311.394531 C 281.976562 312.128906 275.242188 312.222656 275.019531 311.582031 C 274.6875 310.636719 289.609375 299.992188 297.078125 295.847656 C 299.359375 294.632812 301.710938 293.589844 304.140625 292.710938 L 307.90625 291.410156 L 303.957031 290.84375 C 301.785156 290.535156 298.605469 289.945312 296.894531 289.535156 C 293.96875 288.972656 291.015625 288.75 288.039062 288.871094 C 277.328125 289.015625 266.957031 286.859375 261.757812 283.410156 C 258.875 281.5 245.699219 269.402344 244.496094 267.566406 C 243.125 265.472656 244.105469 265.171875 248.652344 266.320312 C 250.847656 266.871094 255.65625 267.777344 259.332031 268.339844 C 270.339844 270.011719 273.230469 271.316406 285.09375 279.960938 C 289.070312 282.863281 293.300781 285.726562 294.492188 286.328125 C 296.71875 287.453125 306.132812 288.933594 310.699219 288.878906 C 312.867188 288.851562 312.808594 288.8125 308.582031 287.53125 C 303.175781 285.894531 297.40625 283.183594 294.238281 280.792969 C 291.558594 278.339844 289.101562 275.679688 286.871094 272.808594 C 284.148438 269.417969 280.949219 265.636719 279.765625 264.410156 C 277.214844 261.753906 277.222656 260.347656 279.785156 260.847656 C 286.042969 262.066406 296.550781 266.765625 302.472656 270.988281 C 304.566406 272.578125 306.488281 274.351562 308.238281 276.3125 C 313.863281 282.777344 316.707031 285.5625 319.609375 287.449219 L 322.570312 289.382812 L 329.519531 289.382812 C 333.34375 289.382812 341.050781 289.242188 346.652344 289.066406 L 356.832031 288.75 L 351.207031 287.613281 C 339.738281 285.304688 334.453125 282.109375 324.921875 271.714844 C 322.640625 269.101562 320.21875 266.628906 317.660156 264.296875 C 317.109375 264.085938 317.070312 263.816406 317.480469 263.046875 C 318.121094 261.855469 318.945312 261.960938 327.289062 264.324219 C 334.253906 266.292969 343.246094 270.625 347.734375 274.164062 C 357.109375 281.566406 360.25 283.765625 364.390625 285.847656 C 369.589844 288.460938 366.808594 288.257812 389.28125 287.644531 C 400.875 287.328125 401.332031 287.28125 398.34375 286.714844 C 390.148438 285.167969 385.53125 282.726562 374.441406 274.0625 C 370.363281 270.871094 365.300781 267.210938 363.195312 265.917969 C 358.328125 262.933594 357.945312 262.601562 358.601562 261.945312 C 359.652344 260.894531 379.164062 263.792969 385.660156 265.964844 C 391.265625 267.839844 392.765625 268.738281 401.96875 275.75 C 406.179688 278.960938 411.609375 282.886719 414.035156 284.476562 L 418.4375 287.367188 L 424.808594 287.644531 C 428.308594 287.792969 436.667969 288.027344 443.378906 288.160156 L 455.585938 288.40625 L 450.003906 286.527344 C 439.050781 282.851562 435.210938 280.285156 423.550781 268.855469 C 414.347656 259.839844 409.847656 256.324219 403.324219 253.066406 C 399.941406 251.375 399.484375 250.871094 400.367188 249.804688 C 400.902344 249.160156 401.746094 249.09375 405.976562 249.367188 C 420.996094 250.335938 434.828125 254.683594 441.441406 260.515625 C 444.375 263.5625 447.078125 266.800781 449.550781 270.234375 C 452.574219 274.316406 456.355469 279.027344 457.949219 280.707031 C 460.929688 283.839844 466.960938 288.421875 468.109375 288.421875 C 468.460938 288.421875 468.75 288.613281 468.75 288.84375 C 468.75 289.53125 470.976562 290.152344 478.324219 291.53125 C 489.34375 293.59375 502.859375 298.394531 509.972656 302.773438 L 512.285156 304.195312 L 517.683594 301.363281 C 527.550781 296.261719 537.964844 292.824219 548.933594 291.058594 C 552.175781 290.550781 554.699219 289.882812 555.496094 289.328125 C 556.027344 288.914062 556.617188 288.613281 557.261719 288.421875 C 558.058594 288.421875 565.164062 282.855469 567.261719 280.578125 C 568.359375 279.382812 571.703125 275.117188 574.691406 271.089844 C 583.839844 258.761719 588.261719 255.589844 600.871094 252.3125 C 608.902344 250.222656 621.402344 248.632812 623.800781 249.394531 C 625.84375 250.042969 624.878906 251.28125 620.503906 253.621094 C 614.007812 257.097656 609.503906 260.695312 601.097656 269.121094 C 597.703125 272.609375 594.117188 275.894531 590.339844 278.96875 C 585.398438 282.300781 580.097656 284.894531 574.433594 286.746094 C 571.726562 287.644531 569.945312 288.382812 570.472656 288.386719 C 571 288.390625 579.261719 288.199219 588.835938 287.960938 L 606.242188 287.527344 L 610.839844 284.507812 C 613.367188 282.847656 618.351562 279.242188 621.917969 276.5 C 632.777344 268.140625 634.945312 266.96875 643.714844 264.730469 C 647.671875 263.722656 662.179688 261.617188 665.175781 261.617188 C 667.359375 261.617188 666.617188 262.847656 663.222656 264.867188 C 661.445312 265.921875 657.511719 268.683594 654.484375 270.996094 C 651.457031 273.3125 647.1875 276.570312 644.996094 278.238281 C 642.320312 280.359375 639.433594 282.140625 636.335938 283.574219 C 633.238281 285.011719 630.015625 286.0625 626.664062 286.730469 L 623.609375 287.394531 L 628.394531 287.472656 C 631.027344 287.515625 638.136719 287.714844 644.191406 287.917969 L 655.203125 288.28125 L 659.992188 286.035156 C 664.519531 283.90625 666.972656 282.234375 676.464844 274.792969 C 683.480469 269.292969 690.527344 266.046875 701.515625 263.265625 C 706.335938 262.042969 707.625 262.019531 707.617188 263.160156 C 707.609375 263.496094 703.789062 267.683594 699.117188 272.460938 C 688.285156 283.542969 685.519531 285.171875 673.394531 287.660156 L 668.128906 288.738281 L 677.941406 289.058594 C 683.339844 289.238281 690.960938 289.382812 694.878906 289.382812 C 701.957031 289.382812 702.015625 289.375 704.578125 287.910156 C 707.386719 286.300781 710.441406 283.421875 716.707031 276.484375 C 721.230469 271.472656 724.699219 268.996094 732.191406 265.429688 C 736.550781 263.351562 744.464844 260.660156 746.210938 260.660156 C 746.976562 260.660156 747.113281 262.371094 746.382812 262.824219 C 746.113281 262.992188 743.347656 266.289062 740.238281 270.152344 C 731.238281 281.339844 728.507812 283.394531 717.859375 286.976562 C 712.539062 288.769531 712.3125 288.890625 714.398438 288.898438 C 718.792969 288.910156 728.40625 287.421875 730.355469 286.425781 C 731.410156 285.886719 734.855469 283.566406 738.015625 281.269531 C 752.136719 270.996094 754.769531 269.792969 766.976562 268.09375 C 770.003906 267.671875 774.046875 266.902344 775.953125 266.386719 C 780.269531 265.222656 780.855469 265.21875 780.855469 266.355469 C 780.855469 267.523438 767.453125 280.523438 763.601562 283.097656 C 757.816406 286.960938 751.226562 288.484375 739.3125 288.707031 C 735.050781 288.707031 730.824219 289.074219 726.625 289.816406 C 723.933594 290.34375 720.679688 290.925781 719.386719 291.105469 L 717.035156 291.429688 L 721.429688 293 C 727.382812 295.125 739.855469 302.855469 747.46875 309.136719 C 750.980469 312.039062 750.632812 312.527344 745.3125 312.152344 C 728.34375 310.953125 725.613281 309.914062 714.554688 300.394531 C 711.132812 297.449219 707.433594 294.410156 706.332031 293.648438 L 704.332031 292.25 L 687.902344 292.28125 L 671.472656 292.308594 L 675.78125 293.628906 C 684.148438 296.199219 687.988281 298.722656 697.941406 308.191406 C 701.320312 311.40625 706.007812 315.804688 708.359375 317.964844 C 712.128906 321.433594 712.550781 321.980469 711.921875 322.59375 C 710.59375 323.878906 694.675781 320.914062 689.023438 318.328125 C 684.878906 316.433594 681.898438 313.84375 675.851562 306.902344 C 669.644531 299.773438 665.394531 295.621094 662 293.371094 C 659.742188 291.875 659.707031 291.875 651.484375 291.570312 C 640.375 291.160156 621.445312 290.992188 621.449219 291.304688 C 622.320312 291.742188 623.238281 292.03125 624.203125 292.171875 C 630.589844 293.804688 636.761719 296.03125 642.71875 298.855469 C 648.371094 301.765625 652.683594 305.332031 658.789062 312.136719 C 661.550781 315.21875 665.746094 319.539062 668.113281 321.738281 C 673.761719 326.992188 673.460938 327.457031 665.605469 325.550781 C 653.015625 322.503906 644.292969 319.03125 638.875 314.933594 C 637.535156 313.914062 633.390625 310.195312 629.679688 306.664062 C 621.621094 299.007812 617.1875 295.578125 612.359375 293.261719 C 608.847656 291.578125 608.621094 291.535156 602.066406 291.375 C 595.449219 291.210938 572.902344 291.738281 573.214844 292.050781 C 573.304688 292.136719 575.953125 292.765625 579.097656 293.445312 C 589.671875 295.730469 599.976562 299.765625 607.566406 304.585938 C 612.304688 307.597656 625.757812 317.691406 626.246094 318.601562 C 627.015625 320.039062 625.613281 320.453125 622.480469 319.714844 C 620.160156 319.285156 617.824219 319.066406 615.464844 319.054688 C 609.28125 319.027344 599.464844 318.246094 596.738281 317.570312 C 590.640625 316.058594 587.417969 313.921875 577.582031 304.875 C 570.417969 298.285156 566.601562 295.265625 563.289062 293.574219 C 562.019531 292.925781 561.242188 292.917969 556.585938 293.503906 C 542.824219 295.234375 530.992188 298.589844 520.933594 303.628906 C 518.441406 304.875 516.335938 306.132812 516.253906 306.414062 C 516.175781 306.699219 516.644531 307.171875 517.292969 307.46875 C 519.1875 308.328125 522.359375 311.429688 522.359375 312.417969 C 522.359375 314.210938 519.460938 313.304688 515.113281 310.144531 C 514.335938 309.527344 513.503906 308.988281 512.621094 308.53125 C 511.257812 309.25 509.941406 310.046875 508.675781 310.925781 C 505.125 313.242188 503.125 313.855469 502.484375 312.820312 C 501.964844 311.980469 503.480469 310.199219 506.335938 308.308594 C 507.832031 307.320312 508.863281 306.332031 508.644531 306.113281 C 507.835938 305.308594 499.5 301.414062 495.078125 299.777344 C 488.355469 297.3125 481.457031 295.527344 474.382812 294.425781 C 463.476562 292.582031 462.914062 292.609375 458.933594 295.195312 C 456.117188 297.171875 453.445312 299.316406 450.90625 301.636719 C 439.699219 311.859375 437.820312 313.378906 434.042969 315.261719 C 429.070312 317.742188 425.039062 318.46875 414.140625 318.851562 C 410.238281 318.9375 406.355469 319.246094 402.488281 319.785156 C 399.453125 320.457031 398.382812 320.316406 398.382812 319.25 C 398.382812 318.359375 399.4375 317.476562 408.453125 310.851562 C 422.820312 300.296875 431.945312 296.253906 450.082031 292.410156 C 451.792969 292.046875 449.832031 291.875 440.507812 291.574219 C 434.054688 291.363281 425.871094 291.273438 422.316406 291.375 C 416.164062 291.546875 415.695312 291.632812 412.613281 293.128906 C 408.03125 295.355469 402.738281 299.496094 395.117188 306.804688 C 383.414062 318.03125 379.035156 320.410156 361.519531 325.019531 C 354.578125 326.847656 352.902344 327.0625 352.902344 326.132812 Z M 367.5 321.222656 C 378.878906 317.515625 382.820312 315.058594 394.308594 304.492188 C 398.257812 300.859375 402.726562 297.011719 404.234375 295.941406 C 405.195312 295.359375 406.050781 294.652344 406.808594 293.824219 C 406.554688 293.570312 402.175781 295.371094 398.292969 297.324219 C 393.113281 299.933594 388.707031 302.773438 376.835938 311.164062 C 370.914062 315.351562 364.363281 319.929688 362.285156 321.335938 C 357.984375 324.253906 358.195312 324.25 367.5 321.21875 Z M 663.882812 322.191406 C 662.328125 321.253906 660.820312 320.234375 659.363281 319.144531 C 658.394531 318.378906 652.75 314.367188 646.828125 310.222656 C 635.566406 302.34375 629.105469 298.316406 624.457031 296.253906 C 620.53125 294.511719 616.742188 293.125 617.816406 293.820312 C 622.292969 297.085938 626.539062 300.628906 630.550781 304.453125 C 642.074219 315.261719 646.300781 317.816406 659.511719 321.96875 C 666.710938 324.230469 667.316406 324.261719 663.882812 322.195312 Z M 325.136719 319.101562 C 335.253906 316.863281 337.742188 315.21875 348.363281 303.734375 L 356.378906 295.070312 L 352.78125 297.199219 C 348.246094 299.878906 344.992188 302.261719 338.0625 307.984375 C 333.363281 311.980469 328.316406 315.464844 322.917969 318.445312 C 319.625 320.246094 319.765625 320.289062 325.136719 319.101562 Z M 700.949219 317.835938 C 695.976562 315.167969 692.613281 312.785156 685.929688 307.195312 C 681.285156 303.175781 676.308594 299.617188 671 296.523438 L 668.128906 294.921875 L 672.492188 299.453125 C 674.890625 301.945312 678.199219 305.492188 679.839844 307.332031 C 685.941406 314.175781 689.769531 316.582031 697.722656 318.59375 C 705.101562 320.460938 705.617188 320.339844 700.949219 317.832031 Z M 373.484375 311.003906 C 383.484375 303.839844 387.945312 300.839844 393.351562 297.667969 C 394.75 296.925781 396.082031 296.078125 397.347656 295.132812 C 396.4375 295.117188 386.734375 298.785156 383.816406 300.246094 C 379.269531 302.523438 376.410156 304.636719 371.648438 309.230469 C 366.777344 313.921875 362.023438 319.320312 364.15625 317.738281 C 364.941406 317.148438 369.140625 314.121094 373.484375 311.003906 Z M 657.515625 313.5 C 649.464844 304.808594 644.03125 300.996094 634.789062 297.5625 C 627.664062 294.914062 626.316406 294.738281 630.414062 297 C 632.316406 298.046875 635.117188 299.699219 636.640625 300.671875 C 639.96875 302.800781 654.464844 313.019531 658.746094 316.261719 C 659.792969 317.097656 660.882812 317.871094 662.015625 318.578125 C 662.128906 318.578125 660.105469 316.292969 657.515625 313.5 Z M 419.0625 316.191406 C 425.964844 315.6875 430.878906 314.296875 434.917969 311.710938 C 438.042969 309.367188 441.019531 306.859375 443.859375 304.179688 C 447.414062 300.910156 451.074219 297.636719 451.996094 296.898438 C 453.574219 295.648438 453.59375 295.601562 452.335938 296.058594 C 451.597656 296.328125 446.429688 298.886719 440.84375 301.742188 C 435.175781 304.785156 429.296875 307.355469 423.214844 309.453125 C 419.0625 310.847656 414.992188 312.453125 411.007812 314.269531 L 406.277344 316.578125 L 409.628906 316.605469 C 411.472656 316.617188 415.714844 316.429688 419.0625 316.183594 Z M 616.097656 315.210938 C 610.960938 312.738281 605.671875 310.652344 600.226562 308.949219 C 595.484375 307.375 582.226562 301.28125 580.507812 299.882812 C 580.234375 299.660156 578.082031 298.597656 575.722656 297.523438 L 571.433594 295.570312 L 573.828125 297.621094 C 575.144531 298.746094 578.269531 301.589844 580.769531 303.9375 C 586.914062 309.703125 589.390625 311.605469 592.886719 313.246094 C 597.894531 315.597656 603.402344 316.453125 614.277344 316.570312 L 618.828125 316.617188 Z M 332.078125 310.042969 C 333.65625 308.847656 336.886719 306.21875 339.257812 304.203125 C 341.628906 302.1875 345.132812 299.503906 347.042969 298.238281 C 348.246094 297.550781 349.34375 296.71875 350.328125 295.746094 C 349.828125 295.246094 342.121094 298.761719 339.195312 300.820312 C 336.546875 302.683594 329.359375 309.113281 322.984375 315.324219 C 321.515625 316.75 328.824219 312.507812 332.078125 310.046875 Z M 698.644531 312.238281 C 687.269531 301.46875 686.058594 300.503906 680.722656 298.039062 C 674.519531 295.171875 673.328125 295.132812 677.496094 297.929688 C 679.453125 299.242188 682.882812 301.867188 685.121094 303.765625 C 689.351562 307.546875 693.878906 310.925781 698.710938 313.902344 C 700.804688 315.160156 702.578125 316.1875 702.660156 316.1875 C 702.746094 316.1875 700.9375 314.410156 698.644531 312.238281 Z M 293.0625 308.710938 C 296.949219 307.628906 300.828125 305.28125 306.46875 300.597656 C 309.230469 298.304688 312.785156 295.457031 314.367188 294.273438 C 316.78125 292.460938 317.011719 292.171875 315.800781 292.464844 C 313.308594 293.0625 306.71875 296.351562 300.136719 300.292969 C 296.644531 302.386719 291.359375 305.445312 288.394531 307.089844 C 285.433594 308.738281 283.011719 310.128906 283.011719 310.175781 C 283.011719 310.46875 290.863281 309.324219 293.0625 308.710938 Z M 440.265625 299.410156 C 445.53125 296.738281 449.414062 294.667969 448.886719 294.808594 C 448.359375 294.949219 445.347656 295.738281 442.191406 296.566406 C 436.476562 298.023438 430.960938 300.015625 425.636719 302.550781 C 423.296875 303.730469 414.179688 309.417969 414.179688 309.695312 C 414.179688 309.757812 417.894531 308.5625 422.433594 307.039062 C 428.578125 304.96875 434.523438 302.421875 440.265625 299.40625 Z M 607.8125 307.722656 C 600.644531 302.847656 592.882812 299.273438 584.519531 296.996094 C 575.625 294.4375 575.671875 294.816406 584.839844 299.507812 C 590.34375 302.335938 596.007812 304.792969 601.832031 306.886719 C 606.441406 308.519531 610.421875 309.878906 610.683594 309.910156 C 610.945312 309.945312 609.652344 308.960938 607.8125 307.726562 Z M 740.652344 309.445312 C 740.253906 309.191406 736.59375 307.082031 732.515625 304.757812 C 728.433594 302.4375 722.835938 299.210938 720.070312 297.589844 C 715.683594 295.019531 709.628906 292.257812 708.378906 292.257812 C 708.152344 292.257812 709.015625 293.058594 710.304688 294.027344 C 711.59375 294.996094 714.480469 297.332031 716.71875 299.214844 C 724.542969 305.789062 728.371094 308.007812 734.050781 309.238281 C 737.660156 310.023438 741.742188 310.152344 740.652344 309.449219 Z M 744.960938 309.246094 C 744.960938 308.59375 729.777344 299.015625 725.574219 297.019531 C 715.21875 292.101562 719.003906 294.769531 737.261719 305.253906 C 744.816406 309.59375 744.960938 309.667969 744.960938 309.242188 Z M 295.042969 300.964844 C 299.878906 298.09375 304.480469 295.382812 305.269531 294.941406 C 306.53125 294.238281 306.558594 294.175781 305.507812 294.453125 C 301.910156 295.597656 298.480469 297.125 295.226562 299.039062 C 291.878906 301.007812 281.761719 307.769531 280.855469 308.648438 C 279.835938 309.640625 286.648438 305.949219 295.042969 300.964844 Z M 315.082031 287.289062 C 313.730469 286.332031 312.324219 285.460938 310.863281 284.671875 C 304.792969 281.148438 298.941406 277.296875 293.300781 273.117188 C 290.144531 270.824219 286.933594 268.539062 286.171875 268.050781 C 284.804688 267.171875 284.789062 267.171875 285.300781 268.097656 C 286.351562 270.011719 292.925781 277.214844 295.230469 278.980469 C 298.347656 281.367188 303.125 283.667969 309.339844 285.761719 C 314.308594 287.4375 315.085938 287.644531 315.085938 287.292969 Z M 715.710938 285.726562 C 722.03125 283.558594 727.230469 280.980469 730.421875 278.429688 C 732.738281 276.332031 734.878906 274.0625 736.835938 271.625 C 740.714844 266.882812 740.753906 266.808594 738.71875 268.09375 C 737.574219 268.816406 734.6875 270.84375 732.304688 272.601562 C 726.683594 276.792969 720.847656 280.664062 714.800781 284.214844 C 711.773438 286.003906 709.597656 287.464844 709.96875 287.464844 C 711.917969 287 713.832031 286.421875 715.710938 285.726562 Z M 280.824219 284.886719 C 278.691406 284.015625 273.84375 281.667969 270.050781 279.671875 C 266.261719 277.675781 261.425781 275.292969 259.320312 274.386719 C 257.210938 273.476562 254.195312 272.160156 252.613281 271.472656 L 249.742188 270.222656 L 252.132812 272.460938 C 260.410156 280.199219 264.539062 282.894531 270.324219 284.339844 C 274.414062 285.382812 278.5625 286.085938 282.769531 286.445312 C 284.59375 286.46875 284.503906 286.394531 280.816406 284.886719 Z M 357.691406 285.933594 C 349.421875 282.230469 341.457031 277.957031 333.800781 273.117188 C 329.742188 270.449219 325.546875 267.816406 324.472656 267.269531 C 322.539062 266.28125 322.550781 266.304688 325.960938 270.085938 C 332.523438 277.367188 336.183594 280.136719 342.726562 282.765625 C 347.488281 284.675781 361.851562 287.71875 357.6875 285.933594 Z M 577.050781 283.117188 C 585.84375 279.652344 590.304688 276.507812 600.394531 266.660156 C 605.664062 261.519531 610.195312 257.558594 612.601562 255.988281 C 614.710938 254.613281 616.1875 253.488281 615.886719 253.488281 C 614.789062 253.480469 605.324219 257.652344 601.964844 259.621094 C 598.175781 261.84375 592.890625 265.875 582.902344 274.160156 C 577.300781 278.808594 572.832031 282.210938 567.828125 285.648438 C 566.929688 286.269531 567.605469 286.171875 570.71875 285.238281 C 572.957031 284.5625 575.804688 283.609375 577.054688 283.121094 Z M 673.089844 285.347656 C 683.8125 283.167969 689.433594 280.050781 697.191406 271.984375 C 698.957031 270.261719 700.609375 268.433594 702.140625 266.5 C 701.835938 266.191406 699.117188 267.804688 691.5 272.808594 C 682.394531 278.792969 679.097656 280.636719 671.527344 283.953125 C 668.347656 285.351562 666.109375 286.492188 666.558594 286.5 C 667.003906 286.503906 669.949219 285.984375 673.089844 285.34375 Z M 751.230469 285.082031 C 758.457031 283.636719 762.730469 281.4375 768.90625 276 C 776.214844 269.566406 776.347656 269.417969 773.453125 270.839844 C 772.136719 271.492188 768.472656 273.160156 765.316406 274.550781 C 762.15625 275.941406 757.417969 278.273438 754.78125 279.738281 C 752.148438 281.199219 747.734375 283.335938 744.96875 284.492188 L 739.941406 286.59375 L 743.09375 286.339844 C 744.824219 286.199219 748.488281 285.640625 751.230469 285.085938 Z M 409.355469 285.855469 C 409.246094 285.753906 406.789062 284.675781 403.890625 283.457031 C 400.996094 282.234375 395.394531 279.503906 391.445312 277.390625 C 387.496094 275.273438 382.710938 272.800781 380.8125 271.882812 C 376 269.566406 367.382812 266.253906 368.238281 267.050781 C 370.550781 269.195312 384.992188 279.566406 387.28125 280.710938 C 392.050781 282.917969 397.03125 284.445312 402.214844 285.300781 C 406.214844 285.929688 409.738281 286.203125 409.347656 285.855469 Z M 457.003906 285.632812 C 456.753906 285.410156 454.824219 284.03125 452.714844 282.566406 C 450.605469 281.097656 445.433594 277.027344 441.226562 273.511719 C 430.429688 264.511719 425.839844 261.160156 420.445312 258.339844 C 415.953125 255.984375 409.441406 253.269531 409.109375 253.601562 C 410.28125 254.636719 411.535156 255.550781 412.878906 256.347656 C 416.898438 259.308594 420.632812 262.59375 424.082031 266.203125 C 432.445312 274.558594 436.136719 277.472656 442.175781 280.511719 C 447.882812 283.375 458.660156 287.101562 456.996094 285.632812 Z M 622.539062 285.324219 C 627.972656 284.503906 635.097656 282.253906 638.609375 280.25 C 640.433594 279.207031 655.789062 267.996094 657.339844 266.574219 C 654.015625 267.652344 650.753906 268.894531 647.550781 270.300781 C 645.710938 271.082031 640.863281 273.519531 636.78125 275.71875 C 632.699219 277.917969 626.882812 280.820312 623.855469 282.171875 C 614.867188 286.183594 615.273438 285.964844 616.675781 286 C 617.335938 286.011719 619.972656 285.710938 622.539062 285.324219 Z M 288.96875 285.15625 C 287.84375 284.167969 277.21875 276.921875 274.628906 275.375 C 269.972656 272.816406 265.011719 271.183594 259.746094 270.476562 C 257.140625 270.070312 254.359375 269.621094 253.570312 269.480469 C 250.914062 269.011719 277.804688 282.152344 283.011719 283.863281 C 288.054688 285.519531 289.832031 285.90625 288.972656 285.152344 Z M 741.703125 283.929688 C 744.496094 283.011719 752.332031 279.476562 759.742188 275.792969 C 766.953125 272.210938 772.769531 269.277344 772.667969 269.28125 C 770.347656 269.300781 757.664062 271.957031 755.25 272.921875 C 751.015625 274.617188 734.34375 285.554688 735.992188 285.554688 C 737.929688 285.136719 739.835938 284.597656 741.703125 283.929688 Z M 576.277344 277.835938 C 578.351562 276.195312 582.308594 272.878906 585.074219 270.464844 C 595.605469 261.269531 603.429688 256.195312 611.734375 253.183594 C 614.78125 252.074219 614.855469 252.019531 612.839844 252.289062 C 605.753906 253.183594 598.933594 255.046875 592.378906 257.878906 C 586.160156 260.816406 582.761719 264.210938 574.589844 275.640625 C 572.914062 277.984375 571.085938 280.203125 569.113281 282.300781 L 566.644531 284.753906 L 569.578125 282.785156 C 571.1875 281.699219 574.203125 279.472656 576.277344 277.835938 Z M 455.035156 281.570312 C 453.757812 280.175781 450.566406 276.058594 447.941406 272.4375 C 445.574219 269.109375 442.976562 265.96875 440.152344 263.019531 C 435.050781 258.246094 426.558594 254.773438 415.042969 252.746094 C 409.65625 251.800781 409.519531 251.875 413.753906 253.445312 C 422.082031 256.535156 429.421875 261.394531 441.226562 271.609375 C 446.203125 275.914062 456.664062 284.117188 457.183594 284.117188 C 456.539062 283.207031 455.824219 282.359375 455.039062 281.570312 Z M 409.347656 283.449219 C 409.238281 283.351562 405.605469 280.636719 401.269531 277.425781 C 392.457031 270.894531 389.667969 269.324219 383.917969 267.65625 C 380.15625 266.570312 370.195312 264.75 369.855469 265.089844 C 371.535156 265.964844 373.269531 266.707031 375.0625 267.324219 C 378.011719 268.46875 383.851562 271.246094 388.035156 273.496094 C 397.386719 278.523438 410.722656 284.75 409.347656 283.449219 Z M 622.414062 280.742188 C 624.914062 279.617188 630.945312 276.589844 635.816406 274.019531 C 640.6875 271.449219 647.003906 268.449219 649.851562 267.355469 C 651.578125 266.777344 653.246094 266.050781 654.84375 265.175781 C 654.59375 264.921875 646.234375 266.296875 642.757812 267.167969 C 636.070312 268.84375 632.75 270.664062 622.414062 278.339844 C 613.941406 284.625 613.941406 284.558594 622.414062 280.742188 Z M 354.625 282.089844 C 353.859375 281.519531 351.492188 279.671875 349.367188 277.984375 C 344.261719 273.929688 342.257812 272.582031 338.625 270.75 C 335.253906 269.054688 327.984375 266.273438 327.6875 266.570312 C 327.449219 266.8125 339.226562 274.488281 345.246094 278.015625 C 352.011719 281.980469 357.914062 284.546875 354.625 282.089844 Z M 675.078125 280.527344 C 680.5625 277.761719 697.773438 266.925781 697.347656 266.5 C 696.980469 266.132812 687.429688 270.03125 684.410156 271.785156 C 679.328125 275.082031 674.460938 278.667969 669.808594 282.546875 C 669.1875 283.125 669.261719 283.152344 670.359375 282.746094 C 671.054688 282.476562 673.175781 281.480469 675.074219 280.527344 Z M 307.953125 279.390625 C 304.191406 274.785156 299.621094 271.210938 294.242188 268.667969 C 291.085938 267.070312 287.84375 265.675781 284.511719 264.492188 C 285.777344 265.527344 287.097656 266.488281 288.480469 267.363281 C 290.796875 268.949219 293.488281 270.867188 294.453125 271.636719 C 296.3125 273.105469 309.863281 282.207031 310.195312 282.207031 C 309.53125 281.203125 308.785156 280.265625 307.953125 279.394531 Z M 729.308594 272.46875 C 731.992188 270.550781 735.535156 268.046875 737.183594 266.90625 C 738.222656 266.226562 739.21875 265.488281 740.171875 264.691406 C 738.621094 265.183594 737.101562 265.757812 735.609375 266.414062 C 726.496094 270.121094 722.046875 273.394531 715.515625 281.1875 C 714.425781 282.492188 721.917969 277.757812 729.308594 272.46875 Z M 729.308594 272.46875 " fill-opacity="1" fill-rule="nonzero"/></g></svg>