<svg xmlns="http://www.w3.org/2000/svg" xmlns:xlink="http://www.w3.org/1999/xlink" width="1366" zoomAndPan="magnify" viewBox="0 0 1024.5 576" height="768" preserveAspectRatio="xMidYMid meet" version="1.0"><defs><g/><clipPath id="36d68e08ca"><path d="M 272 2 L 719 2 L 719 575.859375 L 272 575.859375 Z M 272 2 " clip-rule="nonzero"/></clipPath><clipPath id="931d5e6112"><path d="M 283.609375 319.183594 L 446.210938 319.183594 L 446.210938 432 L 283.609375 432 Z M 283.609375 319.183594 " clip-rule="nonzero"/></clipPath><clipPath id="39025c6fb9"><path d="M 0.507812 388.03125 L 131 388.03125 L 131 534 L 0.507812 534 Z M 0.507812 388.03125 " clip-rule="nonzero"/></clipPath><clipPath id="7fba37feb8"><path d="M 188.449219 0.5 L 220.394531 0.5 L 220.394531 573.761719 L 188.449219 573.761719 Z M 188.449219 0.5 " clip-rule="nonzero"/></clipPath><clipPath id="5370c09571"><path d="M 197 46 L 262 46 L 262 90 L 197 90 Z M 197 46 " clip-rule="nonzero"/></clipPath><clipPath id="dfefd189a8"><path d="M 200.238281 46.871094 L 261.609375 51.804688 L 258.609375 89.125 L 197.238281 84.191406 Z M 200.238281 46.871094 " clip-rule="nonzero"/></clipPath><clipPath id="dacad8c037"><path d="M 3 0.835938 L 63 0.835938 L 63 42 L 3 42 Z M 3 0.835938 " clip-rule="nonzero"/></clipPath><clipPath id="86901b5212"><path d="M 3.238281 0.871094 L 64.609375 5.804688 L 61.609375 43.125 L 0.238281 38.191406 Z M 3.238281 0.871094 " clip-rule="nonzero"/></clipPath><clipPath id="925d292e87"><path d="M 0.265625 37.867188 L 61.636719 42.804688 L 64.636719 5.484375 L 3.265625 0.546875 Z M 0.265625 37.867188 " clip-rule="nonzero"/></clipPath><clipPath id="a150f21a96"><rect x="0" width="65" y="0" height="44"/></clipPath><clipPath id="f1be69f55e"><path d="M 128 483 L 195 483 L 195 506 L 128 506 Z M 128 483 " clip-rule="nonzero"/></clipPath><clipPath id="27431d3102"><path d="M 178.589844 522.007812 L 123.710938 494.089844 L 140.6875 460.71875 L 195.566406 488.636719 Z M 178.589844 522.007812 " clip-rule="nonzero"/></clipPath><clipPath id="32859b051d"><path d="M 178.589844 522.007812 L 123.710938 494.089844 L 140.6875 460.71875 L 195.566406 488.636719 Z M 178.589844 522.007812 " clip-rule="nonzero"/></clipPath><clipPath id="b518c43ce2"><path d="M 138 182 L 208 182 L 208 217 L 138 217 Z M 138 182 " clip-rule="nonzero"/></clipPath><clipPath id="3119039424"><path d="M 182.101562 236.058594 L 131.074219 192.035156 L 157.707031 161.167969 L 208.734375 205.191406 Z M 182.101562 236.058594 " clip-rule="nonzero"/></clipPath><clipPath id="5d355a8081"><path d="M 182.101562 236.058594 L 131.074219 192.035156 L 157.707031 161.167969 L 208.734375 205.191406 Z M 182.101562 236.058594 " clip-rule="nonzero"/></clipPath><clipPath id="fb3a7129fa"><path d="M 208.570312 357.78125 L 275.960938 357.78125 L 275.960938 398.550781 L 208.570312 398.550781 Z M 208.570312 357.78125 " clip-rule="nonzero"/></clipPath><clipPath id="c518f42a2b"><path d="M 0.570312 0.78125 L 67.652344 0.78125 L 67.652344 41.289062 L 0.570312 41.289062 Z M 0.570312 0.78125 " clip-rule="nonzero"/></clipPath><clipPath id="653f8e1b2c"><rect x="0" width="68" y="0" height="42"/></clipPath><clipPath id="ff4256c6ec"><rect x="0" width="447" y="0" height="574"/></clipPath><clipPath id="2f32515985"><path d="M 273 83.097656 L 400 83.097656 L 400 239 L 273 239 Z M 273 83.097656 " clip-rule="nonzero"/></clipPath></defs><g clip-path="url(#36d68e08ca)"><g transform="matrix(1, 0, 0, 1, 272, 2)"><g clip-path="url(#ff4256c6ec)"><g clip-path="url(#931d5e6112)"><path fill="#4a4a35" d="M 424.671875 369.953125 C 423.355469 355.652344 415.28125 343.105469 405.757812 332.738281 C 393.746094 319.835938 375.820312 319.183594 359.328125 319.203125 C 356.792969 319.21875 354.257812 319.429688 351.785156 320.03125 C 343.171875 322.125 336.640625 328.464844 330.074219 334.085938 C 325.070312 338.378906 320.566406 343.449219 317.691406 349.445312 C 314.699219 355.230469 312.261719 361.355469 311.078125 367.761719 C 308.378906 383.28125 312.945312 400.035156 323.136719 411.914062 C 332.464844 422.882812 347.121094 428.75 360.96875 431.222656 C 395.421875 436.875 428.085938 404.292969 424.65625 369.988281 L 424.65625 369.953125 Z M 421.746094 380.761719 C 417.832031 408.730469 393.582031 430.585938 364.949219 428.882812 C 357.34375 428.246094 350.128906 425.304688 343.027344 422.574219 C 341.5625 422.007812 340.117188 421.390625 338.703125 420.675781 C 323.949219 413.070312 314.765625 397.628906 313.140625 381.328125 C 312.101562 370.230469 314.910156 358.886719 320.566406 349.316406 C 326.207031 339.679688 334.363281 331.667969 343.804688 325.785156 C 345.511719 324.726562 347.269531 323.785156 349.121094 323.003906 C 350.648438 322.417969 352.011719 321.6875 353.507812 321.234375 C 354.855469 320.941406 356.253906 320.792969 357.636719 320.777344 C 365.5 320.890625 373.382812 320.582031 381.054688 322.371094 C 387.488281 323.882812 393.226562 325.457031 398.605469 329.488281 C 405.855469 334.769531 411.167969 342.230469 415.507812 349.964844 C 416.855469 352.417969 418.171875 354.890625 419.179688 357.503906 C 422.105469 364.835938 422.820312 372.960938 421.730469 380.730469 L 421.730469 380.761719 Z M 406.308594 374.113281 C 406.503906 372.847656 406.097656 371.628906 405.902344 370.410156 C 405.738281 368.882812 405.640625 367.386719 405.171875 365.90625 C 404.390625 362.496094 402.636719 359.503906 400.785156 356.5625 C 399.96875 354.9375 399.15625 353.265625 397.9375 351.882812 C 396.429688 350.566406 395.242188 349.023438 394.105469 347.382812 C 393.4375 346.519531 392.496094 345.449219 391.390625 345.316406 C 390.546875 345.707031 391.550781 346.714844 391.925781 347.136719 C 394.203125 349.722656 395.84375 352.777344 397.746094 355.636719 C 400.441406 360.039062 402.425781 364.882812 403.042969 370.035156 C 404.554688 380.648438 399.222656 395.273438 391.261719 402.425781 C 391.015625 402.636719 390.738281 402.847656 390.722656 402.308594 C 390.609375 394.316406 390.398438 386.351562 390.21875 378.371094 C 390.074219 377.445312 391.210938 377.59375 391.667969 377.089844 C 392.398438 376.226562 393.113281 375.058594 392.917969 373.902344 C 392.691406 372.488281 391.570312 372 390.269531 372.246094 C 389.796875 364.851562 390.269531 357.132812 390.058594 349.625 C 390.023438 345.121094 389.765625 340.589844 389.894531 336.085938 C 389.636719 334.6875 389.554688 333.292969 389.585938 331.859375 C 389.617188 331.128906 388.824219 331.226562 388.300781 331.242188 C 387.277344 331.242188 386.289062 331.242188 385.296875 331.242188 C 383.167969 331.164062 380.550781 331.164062 378.308594 331.082031 C 370.050781 330.871094 361.796875 330.707031 353.523438 330.933594 C 344.457031 331.4375 345.023438 329.359375 344.847656 337.339844 C 344.765625 339.953125 344.617188 342.570312 344.554688 345.1875 C 344.652344 346.164062 343.644531 346.632812 343.042969 347.167969 C 341.988281 348.113281 340.652344 348.617188 339.597656 349.527344 C 339.027344 350.03125 338.71875 350.761719 338.265625 351.363281 C 337.4375 352.433594 336.527344 353.492188 335.792969 354.660156 C 334.707031 355.734375 334.332031 357.246094 333.566406 358.53125 C 332.5625 360.464844 331.683594 362.460938 331 364.558594 C 329.667969 368.425781 329.375 372.539062 328.5625 376.503906 C 328.742188 378.113281 328.515625 379.769531 328.984375 381.363281 C 329.34375 382.628906 329.34375 383.960938 329.601562 385.246094 C 330.335938 388.527344 331.535156 391.714844 333.375 394.527344 C 335.617188 398.085938 336.167969 399.921875 339.777344 402.472656 C 340.929688 403.757812 342.214844 405.007812 343.515625 406.113281 C 343.59375 406.894531 343.546875 408.289062 343.5625 409.234375 C 343.546875 411.347656 343.675781 413.507812 343.464844 415.636719 C 343.367188 416.742188 342.992188 417.765625 342.585938 418.789062 C 342.488281 419.148438 342.132812 419.632812 342.3125 419.976562 C 356.984375 420.542969 371.808594 420.527344 386.515625 420.753906 C 387.71875 420.820312 389.132812 420.753906 389.910156 419.699219 C 391.066406 418.253906 390.707031 416.285156 390.722656 414.578125 C 390.675781 412.078125 390.660156 409.589844 390.675781 407.089844 C 390.675781 406.113281 390.449219 404.925781 391.570312 404.503906 C 392.496094 403.902344 393.582031 403.578125 394.398438 402.863281 C 395.710938 401.238281 397.125 399.660156 398.378906 397.988281 C 399.304688 397.160156 399.742188 396.019531 400.328125 394.933594 C 402.570312 391.097656 404.308594 386.921875 405.042969 382.53125 C 405.382812 381.070312 405.757812 379.640625 405.855469 378.128906 C 405.949219 377.460938 406.277344 376.84375 406.308594 376.195312 C 406.355469 375.511719 406.128906 374.828125 406.226562 374.148438 L 406.226562 374.113281 Z M 390.269531 373.007812 C 390.59375 373.269531 391.03125 373.367188 391.292969 373.707031 C 391.910156 374.554688 391.097656 375.253906 390.285156 375.316406 C 390.1875 375.300781 390.171875 375.1875 390.171875 375.089844 C 390.171875 374.472656 390.171875 373.855469 390.171875 373.238281 C 390.171875 373.15625 390.140625 372.945312 390.269531 372.976562 Z M 346.910156 363.988281 C 347.105469 354.222656 346.894531 344.390625 347.171875 334.609375 C 347.203125 334.21875 347.121094 333.648438 347.382812 333.390625 C 348.226562 333.144531 349.378906 333.339844 350.308594 333.257812 C 362.738281 333.015625 375.171875 332.105469 387.601562 332.722656 C 389.261719 333.097656 388.449219 336.507812 388.59375 337.808594 C 388.707031 350.128906 387.214844 361.925781 387.796875 374.179688 C 387.976562 375.820312 385.929688 374.617188 385.050781 374.632812 C 383.558594 374.503906 382.046875 374.359375 380.550781 374.195312 C 376.863281 373.742188 373.300781 374.84375 369.644531 375.023438 C 369.46875 375.058594 369.238281 375.105469 369.0625 375.105469 C 368.882812 375.105469 369.289062 374.941406 369.371094 374.941406 C 372.585938 374.03125 376.179688 372.75 378.210938 369.96875 C 380.273438 365.402344 374.390625 366.019531 371.773438 367.160156 C 369.320312 367.9375 367.160156 369.464844 365.160156 371.011719 C 363.339844 368.605469 361.242188 364.65625 357.539062 365.664062 C 355.148438 366.183594 353.832031 369.175781 355.441406 371.140625 C 356.351562 372.34375 357.78125 372.945312 359.035156 373.660156 C 363.777344 375.332031 348.390625 375.269531 347.398438 375.414062 C 346.925781 375.480469 346.617188 375.21875 346.699219 374.730469 C 346.796875 371.15625 346.652344 367.550781 346.894531 363.988281 L 346.894531 363.957031 L 346.894531 363.988281 Z M 367.890625 372.621094 C 367.988281 372.523438 368.28125 372.40625 368.425781 372.328125 C 369.09375 372 369.710938 371.613281 370.296875 371.15625 C 370.539062 370.960938 370.785156 370.765625 371.058594 370.621094 C 371.953125 370.199219 372.945312 370.003906 373.839844 369.628906 C 374.050781 369.546875 374.230469 369.417969 374.441406 369.351562 C 374.699219 369.289062 374.699219 369.484375 374.519531 369.628906 C 373.351562 370.457031 372.050781 371.1875 370.734375 371.757812 C 370.394531 371.902344 370.050781 371.902344 369.710938 372.035156 C 369.125 372.246094 368.492188 372.523438 367.890625 372.652344 Z M 362.382812 372.179688 C 362.023438 372.097656 361.683594 371.824219 361.339844 371.660156 C 360.546875 371.222656 359.796875 370.78125 358.984375 370.277344 C 358.5625 370.003906 358.058594 369.710938 357.78125 369.289062 C 357.472656 368.71875 358.269531 368.363281 358.757812 368.457031 C 360.203125 368.785156 361.535156 370.683594 362.300781 371.886719 C 362.332031 371.96875 362.460938 372.117188 362.398438 372.164062 L 362.382812 372.164062 Z M 341.988281 402.683594 C 338.980469 399.238281 336.234375 395.566406 334.460938 391.308594 C 330.917969 382.808594 331.03125 373.15625 334.234375 364.589844 C 335.308594 361.292969 336.914062 358.222656 338.574219 355.199219 C 340.003906 352.582031 342.101562 350.4375 344.179688 348.339844 C 344.441406 348.078125 344.570312 348.0625 344.570312 348.484375 C 344.40625 357.195312 344.148438 365.941406 343.839844 374.632812 C 343.660156 374.8125 343.417969 374.277344 343.320312 374.148438 C 343.140625 373.820312 343.042969 373.058594 342.621094 373.496094 C 342.003906 374.390625 342.621094 375.675781 343.367188 376.292969 C 343.578125 376.453125 343.773438 376.648438 343.804688 376.925781 C 343.855469 378.386719 343.757812 379.882812 343.757812 381.347656 C 343.691406 388.886719 343.675781 396.523438 343.660156 404.050781 C 343.742188 404.746094 342.148438 402.75 342.019531 402.714844 L 342.003906 402.714844 L 342.003906 402.683594 Z M 387.894531 417.195312 C 387.816406 418.089844 386.710938 417.765625 386.074219 417.8125 C 385.117188 417.78125 383.703125 417.8125 382.695312 417.78125 C 370.570312 417.617188 358.335938 417.78125 346.261719 417.246094 C 346.113281 417.164062 346.261719 416.757812 346.292969 416.53125 C 346.863281 413.296875 346.84375 410.011719 346.601562 406.746094 C 346.421875 402.523438 346.8125 398.3125 346.488281 394.085938 C 346.339844 388.511719 346.375 382.761719 346.78125 377.25 C 347.851562 376.941406 349.265625 377.398438 350.40625 377.511719 C 352.191406 377.964844 353.996094 377.691406 355.785156 377.414062 C 357.914062 377.300781 360.023438 377.070312 362.136719 376.992188 C 362.285156 377.964844 361.015625 380.03125 360.578125 381.019531 C 359.554688 383.050781 358.59375 385.132812 357.734375 387.210938 C 356.9375 389.617188 353.003906 389.863281 354.320312 386.59375 C 353.734375 385.019531 351.933594 387.652344 352.695312 389.015625 C 353.265625 390.382812 354.988281 390.753906 356.304688 390.429688 C 360.757812 389.277344 362.414062 381.296875 364.609375 377.609375 C 366.167969 374.976562 366.625 378.078125 366.136719 379.542969 C 366.136719 380.324219 366.769531 380.957031 366.800781 381.753906 C 367.535156 385.082031 368.734375 388.398438 368.816406 391.859375 C 368.914062 392.476562 368.523438 393.078125 368.703125 393.679688 C 368.703125 394.671875 369.042969 395.664062 368.914062 396.65625 C 368.71875 398.6875 368.914062 400.75 369.46875 402.714844 C 369.664062 404.128906 369.742188 405.691406 370.976562 406.632812 C 371.808594 407.574219 372.035156 409.394531 373.515625 409.558594 C 373.921875 409.558594 374.132812 409.136719 374.035156 408.761719 C 372.832031 407.039062 372.164062 405.039062 371.726562 402.992188 C 371.367188 400.734375 371.726562 398.523438 371.757812 396.265625 C 371.824219 391.277344 371.546875 386.125 369.417969 381.523438 C 368.65625 379.949219 368.394531 378.195312 367.648438 376.617188 C 367.648438 375.949219 368.621094 376.355469 368.996094 376.472656 C 369.5 376.585938 369.988281 376.585938 370.441406 376.859375 C 370.75 377.039062 371.042969 377.316406 371.417969 377.347656 C 374.292969 377.203125 377.21875 376.992188 380.113281 376.992188 C 381.296875 377.136719 382.417969 377.59375 383.636719 377.300781 C 384.855469 377.347656 386.027344 377.671875 387.261719 377.542969 C 387.621094 377.511719 387.832031 377.722656 387.796875 378.113281 C 387.765625 380.859375 387.75 383.621094 387.796875 386.367188 C 387.507812 390.691406 387.765625 394.980469 387.847656 399.320312 C 387.847656 405.269531 387.945312 411.132812 387.847656 417.164062 L 387.847656 417.195312 Z M 304.671875 341.675781 C 304.382812 340.492188 303.910156 339.253906 303.097656 338.328125 C 302.429688 337.664062 300.804688 336.117188 300.578125 337.957031 C 299.734375 341.96875 298.90625 346 298.058594 350.03125 C 298.011719 350.242188 297.960938 350.402344 297.898438 350.191406 C 297.71875 349.378906 297.425781 347.707031 297.3125 346.746094 C 297.3125 346.535156 297.277344 346.375 297.3125 346.277344 C 297.34375 346.097656 297.457031 346.046875 297.441406 345.871094 C 297.328125 344.796875 296.9375 341.578125 296.546875 340.003906 C 296.207031 338.75 295.558594 337.304688 294.257812 336.980469 C 293.378906 336.738281 292.550781 337.222656 292.191406 338.035156 C 291.996094 338.425781 291.917969 338.867188 291.867188 339.289062 C 291.558594 341.757812 291.898438 344.519531 291.300781 346.894531 C 291.25 346.910156 291.21875 346.699219 291.203125 346.617188 C 291.023438 345.496094 290.796875 344.359375 290.632812 343.238281 C 290.355469 341.597656 290.210938 339.839844 289.167969 338.460938 C 288.4375 337.433594 287.039062 336.882812 285.804688 337.109375 C 284.945312 337.515625 284.554688 339.808594 284.230469 340.960938 C 283.644531 343.480469 283.773438 346.097656 284.003906 348.648438 C 284.261719 351.980469 284.601562 355.296875 284.683594 358.644531 C 284.816406 362.671875 285.238281 367.417969 288.390625 370.199219 C 289.300781 371.011719 290.390625 371.742188 291.625 371.855469 C 292.160156 371.855469 292.4375 372.035156 292.355469 372.601562 C 292.207031 375.234375 292.0625 377.867188 291.933594 380.5 C 291.785156 385.976562 291.007812 391.292969 290.535156 396.6875 C 290.160156 404.148438 289.984375 411.671875 290.128906 419.113281 C 290.324219 421.664062 291.640625 424.476562 294.175781 425.289062 C 298.660156 426.832031 302.382812 422.429688 302.707031 418.238281 C 303.339844 402.601562 300.546875 386.984375 299.847656 371.496094 C 303.144531 370.199219 303.664062 367.144531 304.136719 364.007812 C 304.902344 359.925781 304.851562 355.816406 305.0625 351.71875 C 305.273438 348.40625 305.355469 344.976562 304.691406 341.710938 L 304.691406 341.675781 Z M 301.925781 355.410156 C 301.765625 358.125 301.519531 360.820312 301.246094 363.519531 C 301.097656 365.730469 300.546875 369.191406 297.605469 368.71875 C 297.230469 368.734375 296.515625 368.574219 296.5625 369.125 C 296.613281 369.726562 296.679688 370.246094 296.726562 370.832031 C 297.765625 381.378906 298.871094 392.167969 299.457031 402.765625 C 299.71875 407.804688 300.171875 412.824219 299.816406 417.863281 C 299.652344 422.054688 295.070312 425.289062 293.054688 420.152344 C 292.566406 418.675781 292.597656 417.082031 292.613281 415.539062 C 292.613281 410.972656 292.695312 406.226562 292.859375 401.675781 C 293.152344 392.007812 293.6875 382.207031 293.542969 372.523438 C 293.460938 371.824219 292.925781 367.777344 292.5 370.425781 C 292.402344 372.472656 288.925781 369.011719 288.519531 368.328125 C 287.660156 367.207031 287.121094 365.875 286.8125 364.511719 C 286.097656 360.660156 286.277344 356.675781 286.097656 352.792969 C 285.773438 350.339844 285.660156 347.835938 285.839844 345.367188 C 285.953125 343.953125 285.917969 342.441406 286.421875 341.109375 C 286.765625 339.90625 287.480469 340.117188 287.871094 341.222656 C 288.308594 342.585938 288.390625 344.050781 288.683594 345.464844 C 289.363281 348.097656 289.152344 350.90625 290.128906 353.492188 C 290.226562 353.734375 290.242188 353.980469 290.390625 354.191406 C 290.699219 354.53125 291.007812 355.035156 291.511719 355.085938 C 292.808594 355.183594 292.550781 352.890625 292.941406 351.980469 C 293.800781 348.679688 293.851562 345.1875 294.175781 341.824219 C 294.175781 341.789062 294.207031 341.886719 294.242188 342.050781 C 294.242188 342.117188 294.242188 342.179688 294.273438 342.246094 C 294.890625 344.976562 294.207031 355.960938 298.402344 355.375 C 300.886719 354.5625 301.359375 347.722656 301.960938 345.300781 C 301.992188 345.171875 302.007812 344.960938 302.058594 344.910156 C 302.351562 348.324219 302.105469 351.898438 301.925781 355.375 Z M 445.3125 374.683594 C 445.148438 363.40625 444.890625 352.222656 445.199219 340.929688 C 445.117188 338.328125 445.410156 335.339844 445.132812 332.835938 C 443.132812 334.28125 441.296875 336.117188 439.738281 338.019531 C 432.683594 347.234375 432.78125 359.421875 431.742188 370.441406 C 431.5625 374.488281 431.53125 378.566406 431.855469 382.597656 C 431.953125 385.929688 433.335938 389.03125 437.152344 388.773438 C 438.40625 398.832031 435.542969 409.363281 437.414062 419.503906 C 437.753906 423.695312 440.859375 427.679688 445.003906 424.445312 C 445.800781 423.03125 445.554688 421.648438 445.703125 420.039062 C 445.800781 417.945312 445.898438 415.847656 445.960938 413.765625 C 446.480469 400.75 445.683594 387.699219 445.328125 374.699219 L 445.328125 374.667969 Z M 444.125 420.152344 C 443.960938 421.339844 444.238281 422.640625 443.6875 423.730469 C 441.832031 425.386719 439.753906 423.648438 439.378906 421.550781 C 438.421875 417.375 438.664062 413.117188 439.265625 408.941406 C 439.394531 407.785156 439.476562 406.617188 439.492188 405.445312 C 439.347656 400.734375 440.128906 396.003906 440.03125 391.242188 C 440.078125 389.390625 440.257812 387.523438 440.191406 385.667969 C 440.191406 385.34375 440.0625 385.050781 439.703125 385.164062 C 438.421875 385.539062 437.121094 386.125 435.804688 385.734375 C 434.847656 385.199219 434.941406 383.734375 434.765625 382.777344 C 434.441406 379.316406 434.457031 375.851562 434.617188 372.375 C 434.894531 367.402344 435.332031 362.382812 435.917969 357.441406 C 436.421875 351.410156 438 345.316406 441.542969 340.34375 C 442.417969 339.515625 442.222656 341.449219 442.160156 341.90625 C 442.027344 343.871094 442.011719 345.855469 442.160156 347.820312 C 442.386719 351.101562 442.191406 354.464844 442.160156 357.765625 C 442.125 362.023438 442.546875 366.28125 442.417969 370.523438 C 442.921875 379.589844 443.75 388.625 443.671875 397.710938 C 443.75 401.675781 443.914062 405.609375 444.367188 409.542969 C 444.5 413.050781 444.304688 416.59375 444.109375 420.089844 L 444.109375 420.152344 Z M 444.125 420.152344 " fill-opacity="1" fill-rule="nonzero"/></g><g clip-path="url(#39025c6fb9)"><path fill="#4a4a35" d="M 12.21875 418.5625 C 23.292969 424.945312 23.664062 426.796875 24.660156 431.753906 C 24.886719 432.867188 25.140625 434.128906 25.535156 435.613281 C 25.6875 436.171875 26.195312 436.558594 26.769531 436.558594 C 26.796875 436.558594 26.824219 436.558594 26.851562 436.554688 C 27.460938 436.515625 27.953125 436.050781 28.035156 435.449219 C 29.347656 425.449219 29.894531 421.3125 38.488281 417.742188 C 39.023438 417.519531 39.339844 416.964844 39.261719 416.390625 C 39.183594 415.816406 38.726562 415.367188 38.152344 415.296875 C 30.761719 414.394531 28.292969 407.648438 25.371094 397.457031 C 25.214844 396.898438 24.695312 396.519531 24.113281 396.53125 C 23.535156 396.546875 23.035156 396.953125 22.902344 397.515625 C 22.3125 400.039062 21.996094 402.285156 21.71875 404.269531 C 20.808594 410.714844 20.351562 413.949219 12.5 416.234375 C 12.007812 416.375 11.648438 416.796875 11.589844 417.304688 C 11.527344 417.8125 11.777344 418.308594 12.21875 418.5625 Z M 24.246094 404.625 C 24.308594 404.179688 24.371094 403.722656 24.441406 403.25 C 26.394531 409.289062 28.972656 414.730469 34.308594 416.925781 C 29.273438 419.773438 27.542969 423.261719 26.507812 428.464844 C 25.425781 424.765625 23.402344 422.300781 15.882812 417.761719 C 22.789062 414.933594 23.414062 410.511719 24.246094 404.625 Z M 63.414062 520.410156 C 57.339844 517.082031 57.140625 516.1875 56.554688 513.539062 C 56.414062 512.914062 56.257812 512.199219 56.011719 511.359375 C 55.84375 510.777344 55.285156 510.390625 54.679688 510.441406 C 54.074219 510.496094 53.589844 510.964844 53.519531 511.570312 C 52.871094 517.25 52.652344 519.160156 48.148438 521.117188 C 47.617188 521.347656 47.304688 521.910156 47.394531 522.480469 C 47.484375 523.054688 47.949219 523.496094 48.523438 523.554688 C 52.363281 523.949219 53.691406 527.386719 55.425781 533 C 55.589844 533.535156 56.085938 533.898438 56.644531 533.898438 C 56.664062 533.898438 56.679688 533.898438 56.699219 533.898438 C 57.277344 533.871094 57.769531 533.460938 57.890625 532.890625 C 58.203125 531.453125 58.359375 530.179688 58.5 529.058594 C 58.941406 525.480469 59.125 523.996094 63.175781 522.75 C 63.667969 522.597656 64.019531 522.167969 64.070312 521.65625 C 64.121094 521.148438 63.863281 520.65625 63.414062 520.410156 Z M 56.152344 527.339844 C 55.175781 525.09375 53.882812 523.109375 51.875 521.972656 C 53.699219 520.683594 54.617188 519.179688 55.167969 517.289062 C 55.925781 518.542969 57.242188 519.730469 59.90625 521.339844 C 57.167969 522.835938 56.519531 524.886719 56.152344 527.339844 Z M 130.53125 452.011719 C 129.722656 448.859375 126.820312 446.78125 123.609375 447.070312 C 121.238281 447.289062 119.644531 448.484375 118.652344 449.363281 C 117.707031 446.523438 115.722656 444.699219 113.082031 444.300781 C 110.191406 443.859375 107.078125 445.324219 105.675781 447.777344 C 104.335938 450.125 104.726562 452.898438 106.75 455.386719 C 110.125 459.527344 112.515625 463.191406 113.855469 466.28125 C 114.011719 466.640625 114.324219 466.910156 114.707031 467.007812 C 114.8125 467.035156 114.917969 467.046875 115.027344 467.046875 C 115.304688 467.046875 115.578125 466.957031 115.804688 466.785156 C 118.222656 464.929688 120.78125 463.753906 123.636719 462.511719 C 130 459.742188 131.328125 455.125 130.53125 452.011719 Z M 122.621094 460.171875 C 120.183594 461.230469 117.800781 462.316406 115.53125 463.839844 C 114.042969 460.855469 111.804688 457.546875 108.730469 453.773438 C 107.367188 452.101562 107.078125 450.46875 107.890625 449.042969 C 108.671875 447.675781 110.375 446.773438 112.035156 446.773438 C 112.257812 446.773438 112.480469 446.789062 112.699219 446.820312 C 114.597656 447.109375 115.9375 448.605469 116.46875 451.03125 C 116.539062 451.347656 116.75 452.304688 117.671875 452.59375 C 118.609375 452.882812 119.285156 452.253906 119.9375 451.644531 C 120.78125 450.859375 121.933594 449.785156 123.839844 449.613281 C 125.820312 449.429688 127.554688 450.679688 128.058594 452.644531 C 128.632812 454.890625 127.503906 458.046875 122.621094 460.171875 Z M 113.589844 481.390625 C 112.679688 481.589844 111.9375 482.5 108.566406 487.046875 C 104.777344 492.15625 98.683594 500.378906 92.597656 505.316406 C 92.152344 502.042969 90.300781 499.066406 87.558594 497.453125 C 83.125 494.839844 77.917969 496.328125 75.640625 499.207031 C 73.886719 501.421875 73.316406 505.144531 76.972656 508.957031 C 79.691406 511.792969 84.523438 514.085938 92.097656 508.878906 C 99.15625 504.027344 106.328125 494.351562 110.613281 488.570312 C 111.101562 487.914062 111.589844 487.25 112.054688 486.636719 C 111.640625 488.761719 110.824219 491.519531 109.074219 494.832031 C 106.914062 498.917969 106.910156 501.941406 106.90625 504.605469 C 106.902344 507.113281 106.898438 509.484375 105.125 512.746094 C 104.789062 513.363281 105.015625 514.140625 105.636719 514.476562 C 105.828125 514.582031 106.039062 514.632812 106.242188 514.632812 C 106.695312 514.632812 107.132812 514.390625 107.367188 513.964844 C 109.449219 510.132812 109.453125 507.324219 109.457031 504.605469 C 109.460938 502.007812 109.464844 499.554688 111.332031 496.023438 C 114.40625 490.210938 114.8125 485.960938 115.03125 483.679688 C 115.066406 483.339844 115.089844 483.050781 115.125 482.816406 C 115.183594 482.402344 115.035156 481.988281 114.730469 481.703125 C 114.421875 481.417969 113.996094 481.300781 113.589844 481.390625 Z M 78.8125 507.191406 C 76.640625 504.925781 76.214844 502.59375 77.640625 500.789062 C 78.65625 499.507812 80.515625 498.632812 82.5625 498.632812 C 83.777344 498.632812 85.054688 498.9375 86.265625 499.652344 C 88.730469 501.101562 90.242188 504.050781 90.144531 507.117188 C 85.421875 510.191406 81.710938 510.214844 78.8125 507.191406 Z M 45.820312 490.269531 C 43.257812 483.230469 40.464844 476.210938 37.289062 468.808594 L 37.285156 468.796875 C 35.902344 465.578125 34.84375 463.304688 33.960938 461.429688 C 33.816406 461.121094 33.554688 460.890625 33.246094 460.777344 C 33.234375 460.773438 33.222656 460.769531 33.210938 460.765625 C 33.136719 460.738281 33.058594 460.71875 32.976562 460.707031 C 32.96875 460.707031 32.960938 460.707031 32.949219 460.703125 C 32.902344 460.699219 32.851562 460.695312 32.804688 460.695312 C 32.785156 460.695312 32.765625 460.699219 32.75 460.699219 C 32.730469 460.699219 32.714844 460.699219 32.699219 460.699219 C 30.34375 460.894531 26.316406 461.171875 20.496094 461.386719 C 19.800781 461.414062 12.589844 461.976562 5.953125 462.617188 C 5.945312 462.617188 5.941406 462.621094 5.9375 462.621094 C 5.898438 462.625 5.855469 462.636719 5.8125 462.644531 C 5.769531 462.65625 5.726562 462.660156 5.683594 462.675781 C 5.679688 462.675781 5.675781 462.675781 5.667969 462.675781 C 5.640625 462.6875 5.613281 462.703125 5.585938 462.714844 C 5.539062 462.734375 5.492188 462.75 5.449219 462.777344 C 5.414062 462.796875 5.382812 462.820312 5.351562 462.84375 C 5.316406 462.867188 5.28125 462.890625 5.25 462.917969 C 5.214844 462.945312 5.1875 462.976562 5.15625 463.007812 C 5.128906 463.035156 5.101562 463.0625 5.078125 463.09375 C 5.050781 463.125 5.03125 463.160156 5.007812 463.195312 C 4.988281 463.230469 4.960938 463.261719 4.945312 463.300781 C 4.925781 463.335938 4.914062 463.371094 4.898438 463.40625 C 4.882812 463.449219 4.863281 463.488281 4.851562 463.527344 C 4.839844 463.566406 4.835938 463.609375 4.828125 463.648438 C 4.820312 463.691406 4.808594 463.730469 4.804688 463.769531 C 4.800781 463.820312 4.804688 463.867188 4.804688 463.917969 C 4.804688 463.949219 4.800781 463.980469 4.804688 464.011719 C 4.804688 464.015625 4.804688 464.019531 4.808594 464.023438 C 4.808594 464.058594 4.820312 464.09375 4.828125 464.125 C 4.835938 464.175781 4.84375 464.226562 4.859375 464.273438 C 4.863281 464.277344 4.863281 464.285156 4.863281 464.292969 C 5.722656 466.863281 6.511719 469.363281 7.339844 472.160156 L 8.253906 475.230469 C 9.851562 480.621094 11.503906 486.175781 13.621094 492.25 C 11.75 491.550781 9.488281 491.300781 7.390625 491.71875 C 5.195312 492.152344 0.148438 494 0.640625 501.707031 C 0.644531 501.785156 0.65625 501.867188 0.679688 501.945312 C 1.398438 504.714844 3.222656 506.59375 5.820312 507.246094 C 6.46875 507.40625 7.148438 507.484375 7.839844 507.484375 C 10.652344 507.484375 13.664062 506.1875 15.6875 503.992188 C 17.867188 501.621094 18.539062 498.554688 17.527344 495.585938 C 17.523438 495.582031 17.519531 495.574219 17.519531 495.570312 C 17.519531 495.566406 17.515625 495.558594 17.515625 495.554688 C 14.664062 487.871094 12.648438 481.074219 10.699219 474.503906 L 10.21875 472.882812 C 11.226562 472.761719 12.300781 472.628906 13.441406 472.484375 C 19.960938 471.664062 28.011719 470.652344 35.269531 470.585938 C 37.558594 475.945312 39.648438 481.113281 41.597656 486.234375 C 39.402344 485.308594 36.800781 485.25 34.234375 486.101562 C 31.324219 487.070312 29.269531 489.257812 28.738281 491.949219 C 28.371094 493.785156 28.992188 495.820312 30.390625 497.398438 C 30.8125 497.871094 31.285156 498.277344 31.792969 498.605469 C 33.136719 499.472656 34.691406 499.832031 36.265625 499.832031 C 38.535156 499.832031 40.847656 499.085938 42.640625 498.015625 C 45.140625 496.519531 46.546875 494.464844 46.394531 492.519531 C 46.332031 491.738281 46.136719 490.980469 45.820312 490.269531 Z M 13.808594 502.265625 C 11.925781 504.3125 8.824219 505.363281 6.441406 504.769531 C 4.777344 504.355469 3.679688 503.226562 3.179688 501.417969 C 2.894531 496.304688 5.578125 494.679688 7.886719 494.222656 C 11.175781 493.566406 14.664062 495.097656 15.109375 496.410156 L 15.113281 496.414062 C 16.070312 499.226562 14.707031 501.285156 13.808594 502.265625 Z M 13.121094 469.953125 C 11.824219 470.117188 10.601562 470.269531 9.480469 470.402344 C 8.914062 468.527344 8.363281 466.765625 7.789062 465.007812 C 14.128906 464.414062 20.074219 463.957031 20.59375 463.9375 C 25.792969 463.746094 29.574219 463.503906 32.027344 463.3125 C 32.640625 464.628906 33.347656 466.160156 34.175781 468.046875 C 27.0625 468.199219 19.390625 469.164062 13.121094 469.953125 Z M 41.332031 495.824219 C 39.046875 497.1875 35.515625 497.96875 33.175781 496.460938 C 32.863281 496.257812 32.566406 496.003906 32.300781 495.703125 C 31.4375 494.734375 31.03125 493.484375 31.238281 492.445312 C 31.589844 490.664062 33.011719 489.199219 35.042969 488.523438 C 37.433594 487.726562 39.828125 487.945312 41.605469 489.121094 C 42.921875 489.996094 43.738281 491.304688 43.847656 492.71875 C 43.921875 493.648438 42.933594 494.867188 41.332031 495.824219 Z M 91.351562 433.25 C 91.464844 425.441406 84.25 420.132812 77.167969 419.480469 C 77.539062 416.738281 77.910156 414.070312 78.292969 411.546875 C 82.636719 409.078125 86.871094 406.1875 90.363281 401.785156 C 93.152344 398.269531 92.996094 394.414062 91.917969 391.980469 C 90.964844 389.816406 89.195312 388.445312 87.183594 388.3125 C 85.757812 388.21875 82.960938 388.707031 80.28125 393.070312 C 78.476562 396.011719 77.167969 402.152344 75.957031 409.929688 C 74.859375 410.535156 73.757812 411.117188 72.664062 411.699219 C 67.144531 414.628906 61.929688 417.394531 58.128906 422.265625 C 54.390625 427.058594 53.492188 433.476562 55.660156 439.871094 C 57.925781 446.550781 63.011719 451.992188 68.886719 454.179688 C 67.101562 461.25 64.894531 466.523438 62.015625 467.859375 C 60.867188 468.394531 59.597656 468.199219 58.136719 467.265625 C 56.421875 466.171875 56.425781 464.710938 56.730469 463.679688 C 57.175781 462.171875 58.511719 460.90625 59.65625 460.90625 L 59.667969 460.90625 C 60.371094 460.90625 60.941406 460.339844 60.945312 459.636719 C 60.949219 458.933594 60.378906 458.359375 59.675781 458.355469 L 59.65625 458.355469 C 57.363281 458.355469 55.058594 460.328125 54.28125 462.957031 C 53.523438 465.527344 54.453125 467.941406 56.761719 469.417969 C 58.117188 470.28125 59.433594 470.714844 60.703125 470.714844 C 61.519531 470.714844 62.316406 470.535156 63.089844 470.175781 C 66.753906 468.476562 69.339844 462.714844 71.34375 454.882812 C 75.175781 455.605469 79.359375 454.488281 82.945312 451.753906 C 88.175781 447.773438 91.238281 441.027344 91.351562 433.25 Z M 82.457031 394.40625 C 83.847656 392.136719 85.445312 390.851562 86.859375 390.851562 C 86.910156 390.851562 86.964844 390.855469 87.015625 390.859375 C 88.058594 390.929688 89.019531 391.734375 89.585938 393.011719 C 90.363281 394.765625 90.449219 397.574219 88.363281 400.199219 C 85.613281 403.667969 82.289062 406.164062 78.808594 408.285156 C 79.863281 401.863281 81.019531 396.746094 82.457031 394.40625 Z M 78.960938 431.390625 C 80.710938 432.9375 80.941406 436.007812 79.976562 437.71875 C 78.253906 440.777344 75.910156 441.449219 74.054688 441.402344 C 74.628906 437.910156 75.152344 434.28125 75.660156 430.605469 C 76.984375 430.375 78.105469 430.632812 78.960938 431.390625 Z M 69.484375 451.671875 C 64.488281 449.675781 60.03125 444.8125 58.078125 439.050781 C 56.96875 435.78125 55.757812 429.453125 60.140625 423.835938 C 63.605469 419.394531 68.585938 416.75 73.859375 413.953125 C 74.398438 413.667969 74.941406 413.378906 75.484375 413.089844 C 75.1875 415.128906 74.890625 417.257812 74.59375 419.453125 C 69.457031 419.816406 63.996094 422.765625 62.804688 430.335938 C 61.847656 436.398438 66.191406 441.730469 70.941406 443.382812 C 71 443.402344 71.054688 443.421875 71.113281 443.441406 C 70.609375 446.3125 70.070312 449.085938 69.484375 451.671875 Z M 65.324219 430.730469 C 66.242188 424.910156 70.179688 422.480469 74.246094 422.039062 C 74.191406 422.449219 73.605469 426.808594 73.359375 428.613281 C 72.207031 429.0625 70.921875 429.765625 69.503906 430.8125 C 68.933594 431.230469 68.8125 432.027344 69.230469 432.59375 C 69.648438 433.164062 70.449219 433.28125 71.015625 432.867188 C 71.679688 432.375 72.324219 431.964844 72.941406 431.625 C 72.503906 434.722656 72.042969 437.84375 71.542969 440.886719 C 67.878906 439.488281 64.59375 435.378906 65.324219 430.730469 Z M 71.949219 452.398438 C 72.558594 449.75 73.113281 446.910156 73.628906 443.941406 C 77.121094 444.171875 80.265625 442.402344 82.199219 438.96875 C 83.855469 436.03125 83.144531 431.6875 80.652344 429.480469 C 79.761719 428.691406 78.246094 427.8125 76.023438 427.980469 L 76.824219 422.011719 L 76.835938 422.011719 C 82.792969 422.519531 88.894531 426.851562 88.800781 433.210938 C 88.699219 440.203125 86 446.222656 81.398438 449.726562 C 78.433594 451.984375 75.03125 452.9375 71.949219 452.398438 Z M 71.949219 452.398438 " fill-opacity="1" fill-rule="nonzero"/></g><g clip-path="url(#7fba37feb8)"><path fill="#cfa518" d="M 197.949219 257.371094 C 197.148438 254.371094 196.398438 251.640625 194.445312 249.476562 C 194.011719 249 193.035156 248.484375 192.597656 248.671875 C 192.070312 248.894531 191.621094 249.8125 191.53125 250.480469 C 191.082031 253.769531 193.957031 256.992188 197.949219 257.371094 Z M 198.035156 316.871094 C 193.992188 317.054688 190.929688 320.507812 191.558594 323.84375 C 191.679688 324.488281 192.207031 325.253906 192.761719 325.554688 C 193.078125 325.726562 193.988281 325.199219 194.386719 324.761719 C 196.375 322.605469 197.078125 319.84375 198.035156 316.871094 Z M 217.660156 143.15625 C 217.617188 142.585938 217.613281 142.011719 217.523438 141.445312 C 216.90625 137.441406 213.613281 134 209.949219 133.496094 C 206.667969 133.046875 203.183594 135.328125 201.53125 139.132812 C 201.261719 139.746094 201.074219 140.75 201.386719 141.207031 C 203.652344 144.570312 206.355469 147.515625 210.375 148.792969 C 214.597656 150.136719 217.765625 147.636719 217.660156 143.15625 Z M 217.882812 431.15625 C 217.796875 426.472656 214.519531 423.9375 210.167969 425.425781 C 206.304688 426.742188 203.652344 429.613281 201.417969 432.878906 C 201.121094 433.3125 201.136719 434.195312 201.371094 434.703125 C 202.824219 437.890625 204.96875 440.335938 208.730469 440.667969 C 211.832031 440.933594 215.03125 438.84375 216.566406 435.472656 C 217.1875 434.113281 217.460938 432.601562 217.882812 431.15625 Z M 192.964844 0.5 C 197.011719 6.195312 199.464844 12.488281 200.972656 19.199219 C 203.769531 31.675781 203.621094 44.21875 201.339844 56.699219 C 199.527344 66.613281 197.160156 76.429688 194.980469 86.277344 C 192.976562 95.34375 191.679688 104.460938 192.472656 113.78125 C 193.085938 121.054688 194.65625 128.082031 197.640625 134.765625 C 197.992188 135.546875 198.398438 136.308594 198.800781 137.058594 C 198.886719 137.210938 199.074219 137.304688 199.402344 137.582031 C 199.9375 136.851562 200.464844 136.113281 201.015625 135.394531 C 205.875 129.003906 213.746094 129.257812 218.1875 135.960938 C 220.238281 139.0625 220.945312 142.40625 219.839844 146.042969 C 218.597656 150.128906 214.890625 152.296875 210.703125 151.378906 C 207.507812 150.679688 205.003906 148.816406 202.726562 146.59375 C 201.84375 145.734375 201.039062 144.804688 199.714844 143.390625 C 199.332031 146.109375 198.867188 148.300781 198.75 150.507812 C 198.210938 160.605469 199.992188 170.4375 202.480469 180.167969 C 204.914062 189.664062 207.660156 199.097656 209.753906 208.667969 C 212.238281 220.015625 212.800781 231.511719 210.734375 243.035156 C 209.460938 250.128906 207.035156 254.734375 201.960938 259.355469 C 202.800781 263.394531 203.679688 267.476562 204.480469 271.574219 C 207.148438 285.230469 205.941406 298.714844 202.46875 312.054688 C 201.984375 313.90625 202.039062 315.050781 203.660156 316.476562 C 208.027344 320.300781 209.691406 325.644531 210.703125 331.140625 C 213 343.53125 212.066406 355.859375 209.242188 368.023438 C 207.042969 377.480469 204.257812 386.796875 201.964844 396.238281 C 199.855469 404.953125 198.210938 413.773438 198.710938 422.8125 C 198.847656 425.261719 199.261719 427.6875 199.546875 430.125 C 199.785156 430.226562 200.027344 430.335938 200.265625 430.4375 C 200.828125 429.746094 201.308594 428.941406 201.984375 428.378906 C 203.882812 426.800781 205.683594 425 207.828125 423.867188 C 214.25 420.464844 220.121094 424.015625 220.394531 431.269531 C 220.574219 436.066406 216.769531 441.5 212.210938 442.949219 C 208.703125 444.054688 205.585938 443.261719 202.953125 440.792969 C 201.652344 439.582031 200.582031 438.121094 199.214844 436.554688 C 198.71875 437.425781 198.199219 438.1875 197.828125 439.015625 C 192.644531 450.546875 191.019531 462.710938 192.875 475.070312 C 194.488281 485.777344 197.300781 496.304688 199.507812 506.921875 C 202.039062 519.089844 203.757812 531.34375 202.683594 543.816406 C 202.015625 551.542969 200.445312 559.089844 197.363281 566.25 C 196.253906 568.839844 194.957031 571.351562 193.742188 573.902344 C 193.539062 573.816406 193.332031 573.734375 193.132812 573.65625 C 193.84375 571.207031 194.441406 568.710938 195.28125 566.300781 C 201.214844 549.394531 202.042969 532.203125 198.230469 514.753906 C 196.039062 504.710938 193.558594 494.726562 191.570312 484.644531 C 188.699219 470.101562 188.855469 455.648438 194.144531 441.5625 C 195.003906 439.253906 196.273438 437.09375 197.253906 434.824219 C 197.601562 434.015625 197.984375 432.980469 197.777344 432.195312 C 195.40625 423.105469 195.984375 413.988281 197.851562 404.980469 C 199.84375 395.382812 202.382812 385.902344 204.664062 376.363281 C 207.378906 365.027344 209.4375 353.601562 208.921875 341.863281 C 208.664062 335.933594 207.9375 330.082031 205.5625 324.5625 C 204.542969 322.1875 203.335938 319.929688 200.804688 318.089844 C 200.40625 319.15625 200.15625 320.125 199.699219 320.988281 C 198.585938 323.074219 197.636719 325.328125 196.144531 327.117188 C 193.757812 329.984375 190.007812 329 188.824219 325.414062 C 187.242188 320.628906 191.359375 314.324219 196.507812 313.691406 C 197.253906 313.597656 198.011719 313.609375 198.90625 313.566406 C 204.476562 295.925781 204.472656 278.355469 198.917969 260.601562 C 197.972656 260.539062 197.03125 260.539062 196.113281 260.402344 C 191.699219 259.753906 187.742188 254.183594 188.558594 249.75 C 188.921875 247.761719 189.820312 246.109375 191.941406 245.558594 C 193.960938 245.03125 195.496094 245.917969 196.617188 247.53125 C 197.480469 248.773438 198.308594 250.0625 198.976562 251.414062 C 199.648438 252.769531 200.109375 254.238281 200.710938 255.796875 C 202.46875 255.285156 203.246094 253.828125 204.054688 252.511719 C 206.664062 248.292969 207.757812 243.554688 208.375 238.707031 C 209.914062 226.625 208.535156 214.726562 205.792969 202.960938 C 203.480469 193.039062 200.65625 183.230469 198.574219 173.265625 C 197.3125 167.230469 196.703125 161.011719 196.449219 154.851562 C 196.277344 150.722656 197.28125 146.550781 197.667969 142.386719 C 197.757812 141.425781 197.753906 140.273438 197.316406 139.472656 C 191.160156 128.347656 189.515625 116.320312 189.839844 103.824219 C 190.105469 93.230469 193.070312 83.171875 195.476562 72.980469 C 197.910156 62.691406 200.089844 52.351562 200.46875 41.710938 C 200.878906 30.230469 199.144531 19.117188 195.398438 8.277344 C 194.519531 5.710938 193.773438 3.09375 192.964844 0.5 " fill-opacity="1" fill-rule="nonzero"/></g><g clip-path="url(#5370c09571)"><g clip-path="url(#dfefd189a8)"><g transform="matrix(1, 0, 0, 1, 197, 46)"><g clip-path="url(#a150f21a96)"><g clip-path="url(#dacad8c037)"><g clip-path="url(#86901b5212)"><g clip-path="url(#925d292e87)"><path fill="#cfa518" d="M 54.824219 30.652344 C 54.847656 30.949219 54.453125 30.898438 54.234375 30.953125 C 50.285156 31.871094 43.148438 32.71875 39.113281 32.640625 C 25.121094 32.367188 8.390625 23.96875 5.800781 9.070312 C 5.453125 7.0625 5.554688 3.34375 4.957031 1.699219 C 4.351562 0.0195312 3.246094 1.464844 3.179688 2.828125 C 2.171875 23.96875 22.625 35.980469 41.707031 35.472656 C 45.941406 35.359375 50.144531 34.496094 54.347656 34.074219 C 52.714844 35.238281 50.722656 36.394531 48.90625 37.300781 C 47.699219 37.898438 45.359375 39.078125 44.058594 39.125 C 43.152344 39.160156 41.765625 38.257812 41.9375 39.636719 C 42.09375 40.894531 43.617188 41.429688 44.707031 41.425781 C 48.636719 41.40625 55.992188 36.320312 59.621094 34.410156 C 61.371094 33.488281 62.625 33.996094 62.207031 31.234375 C 61.898438 29.183594 60.398438 29.507812 58.964844 29.101562 C 54.390625 27.816406 49.410156 26.136719 44.953125 24.472656 C 44.144531 24.175781 42.699219 23.308594 42.0625 23.160156 C 41.496094 23.027344 40.746094 23.402344 41.019531 24.054688 C 42.019531 26.453125 52.246094 29.570312 54.820312 30.660156 Z M 54.824219 30.652344 " fill-opacity="1" fill-rule="nonzero"/></g></g></g></g></g></g></g><g clip-path="url(#f1be69f55e)"><g clip-path="url(#27431d3102)"><g clip-path="url(#32859b051d)"><path fill="#cfa518" d="M 135.875 487.304688 C 135.699219 487.542969 136.066406 487.707031 136.21875 487.867188 C 139.105469 490.71875 144.742188 495.175781 148.222656 497.21875 C 160.289062 504.308594 178.941406 505.90625 188.945312 494.570312 C 190.292969 493.042969 192.152344 489.820312 193.519531 488.730469 C 194.914062 487.617188 195.101562 489.425781 194.445312 490.621094 C 184.242188 509.164062 160.523438 508.695312 144.53125 498.273438 C 140.980469 495.964844 137.851562 493.027344 134.492188 490.46875 C 135.273438 492.316406 136.363281 494.339844 137.441406 496.0625 C 138.15625 497.207031 139.53125 499.433594 140.613281 500.15625 C 141.371094 500.660156 143.023438 500.617188 142.15625 501.703125 C 141.363281 502.695312 139.785156 502.355469 138.859375 501.777344 C 135.519531 499.703125 131.914062 491.523438 129.824219 487.996094 C 128.8125 486.292969 127.476562 486.070312 129.28125 483.933594 C 130.617188 482.347656 131.726562 483.410156 133.15625 483.8125 C 137.730469 485.113281 142.851562 486.289062 147.523438 487.203125 C 148.367188 487.371094 150.050781 487.390625 150.671875 487.597656 C 151.222656 487.777344 151.667969 488.496094 151.09375 488.90625 C 148.988281 490.425781 138.640625 487.730469 135.875 487.308594 Z M 135.875 487.304688 " fill-opacity="1" fill-rule="nonzero"/></g></g></g><g clip-path="url(#b518c43ce2)"><g clip-path="url(#3119039424)"><g clip-path="url(#5d355a8081)"><path fill="#cfa518" d="M 145.886719 188.144531 C 145.640625 188.347656 145.980469 188.621094 146.105469 188.828125 C 148.421875 192.601562 153.230469 198.796875 156.382812 201.871094 C 167.324219 212.53125 186.675781 219.089844 200.234375 209.683594 C 202.0625 208.414062 204.871094 205.484375 206.609375 204.6875 C 208.375 203.871094 208.101562 205.835938 207.09375 206.933594 C 191.441406 223.921875 166.429688 217.238281 152.195312 202.027344 C 149.039062 198.652344 146.488281 194.722656 143.59375 191.136719 C 143.941406 193.296875 144.566406 195.726562 145.257812 197.835938 C 145.71875 199.234375 146.597656 201.953125 147.554688 203 C 148.226562 203.730469 149.988281 204.113281 148.785156 205.039062 C 147.691406 205.882812 146.105469 205.113281 145.273438 204.261719 C 142.273438 201.191406 140.589844 191.582031 139.292969 187.296875 C 138.664062 185.226562 137.308594 184.644531 139.773438 182.851562 C 141.605469 181.519531 142.503906 182.933594 143.914062 183.734375 C 148.421875 186.304688 153.542969 188.886719 158.253906 191.074219 C 159.105469 191.472656 160.886719 191.933594 161.492188 192.3125 C 162.027344 192.648438 162.3125 193.523438 161.59375 193.808594 C 158.96875 194.871094 148.703125 189.316406 145.882812 188.148438 Z M 145.886719 188.144531 " fill-opacity="1" fill-rule="nonzero"/></g></g></g><g clip-path="url(#fb3a7129fa)"><g transform="matrix(1, 0, 0, 1, 208, 357)"><g clip-path="url(#653f8e1b2c)"><g clip-path="url(#c518f42a2b)"><path fill="#cfa518" d="M 59.289062 28.667969 C 59.34375 28.984375 58.90625 28.96875 58.675781 29.042969 C 54.457031 30.390625 46.773438 31.9375 42.375 32.203125 C 27.125 33.128906 8.191406 25.453125 4.070312 9.476562 C 3.515625 7.320312 3.304688 3.265625 2.507812 1.527344 C 1.703125 -0.242188 0.628906 1.421875 0.675781 2.910156 C 1.425781 26 24.730469 37.277344 45.441406 35.058594 C 50.039062 34.566406 54.535156 33.257812 59.070312 32.429688 C 57.398438 33.839844 55.332031 35.273438 53.433594 36.414062 C 52.171875 37.175781 49.730469 38.660156 48.320312 38.824219 C 47.335938 38.941406 45.75 38.082031 46.054688 39.566406 C 46.335938 40.921875 48.039062 41.375 49.226562 41.269531 C 53.5 40.90625 61.054688 34.730469 64.835938 32.335938 C 66.664062 31.175781 68.070312 31.621094 67.375 28.652344 C 66.859375 26.449219 65.253906 26.933594 63.660156 26.617188 C 58.570312 25.621094 53.007812 24.226562 48.011719 22.808594 C 47.105469 22.550781 45.457031 21.738281 44.75 21.628906 C 44.125 21.535156 43.339844 22.011719 43.695312 22.699219 C 44.992188 25.214844 56.390625 27.714844 59.289062 28.671875 Z M 59.289062 28.667969 " fill-opacity="1" fill-rule="nonzero"/></g></g></g></g></g></g></g><g fill="#4a4a35" fill-opacity="1"><g transform="translate(564.082736, 176.27388)"><g><path d="M 9.078125 0.28125 C 6.703125 0.28125 4.703125 -0.359375 3.078125 -1.640625 C 1.453125 -2.929688 0.640625 -4.78125 0.640625 -7.1875 C 0.640625 -8.601562 0.90625 -9.863281 1.4375 -10.96875 C 1.976562 -12.070312 2.6875 -12.9375 3.5625 -13.5625 C 5.320312 -14.84375 7.300781 -15.484375 9.5 -15.484375 C 10.769531 -15.484375 12.09375 -15.253906 13.46875 -14.796875 L 13.234375 -13.234375 C 12.515625 -13.546875 11.957031 -13.773438 11.5625 -13.921875 C 10.414062 -14.335938 9.257812 -14.546875 8.09375 -14.546875 C 6.476562 -14.179688 5.238281 -13.382812 4.375 -12.15625 C 3.507812 -10.925781 3.078125 -9.394531 3.078125 -7.5625 C 3.078125 -5.3125 3.664062 -3.578125 4.84375 -2.359375 C 6.03125 -1.140625 7.585938 -0.53125 9.515625 -0.53125 C 11.441406 -0.53125 12.882812 -0.941406 13.84375 -1.765625 L 13.84375 -0.5 C 12.519531 0.0195312 10.929688 0.28125 9.078125 0.28125 Z M 9.078125 0.28125 "/></g></g></g><g fill="#4a4a35" fill-opacity="1"><g transform="translate(582.169958, 176.27388)"><g><path d="M 2.40625 -5.65625 C 2.40625 -4 2.773438 -2.804688 3.515625 -2.078125 C 4.265625 -1.347656 5.171875 -0.984375 6.234375 -0.984375 C 7.304688 -0.984375 8.289062 -1.191406 9.1875 -1.609375 L 9.1875 -0.796875 C 7.9375 -0.078125 6.734375 0.28125 5.578125 0.28125 C 4.097656 0.28125 2.894531 -0.171875 1.96875 -1.078125 C 1.050781 -1.984375 0.59375 -3.289062 0.59375 -5 C 0.59375 -6.71875 1.101562 -8.09375 2.125 -9.125 C 3.144531 -10.15625 4.375 -10.671875 5.8125 -10.671875 C 6.9375 -10.671875 7.875 -10.226562 8.625 -9.34375 C 9.375 -8.457031 9.75 -7.226562 9.75 -5.65625 Z M 4.640625 -9.578125 C 4.109375 -9.316406 3.648438 -8.898438 3.265625 -8.328125 C 2.878906 -7.753906 2.625 -7.09375 2.5 -6.34375 L 7.890625 -6.34375 C 7.835938 -6.988281 7.6875 -7.539062 7.4375 -8 C 7.1875 -8.457031 6.882812 -8.796875 6.53125 -9.015625 C 5.894531 -9.390625 5.265625 -9.578125 4.640625 -9.578125 Z M 4.640625 -9.578125 "/></g></g></g><g fill="#4a4a35" fill-opacity="1"><g transform="translate(596.511274, 176.27388)"><g><path d="M 3.40625 0 L 1.46875 0 L 1.46875 -10.390625 L 2.796875 -10.390625 L 3.328125 -8.453125 C 3.640625 -8.992188 4.128906 -9.5 4.796875 -9.96875 C 5.460938 -10.445312 6.144531 -10.738281 6.84375 -10.84375 L 7.078125 -9.265625 C 6.515625 -9.265625 5.875 -9.085938 5.15625 -8.734375 C 4.445312 -8.378906 3.863281 -7.988281 3.40625 -7.5625 Z M 3.40625 0 "/></g></g></g><g fill="#4a4a35" fill-opacity="1"><g transform="translate(607.382456, 176.27388)"><g><path d="M 2.40625 -5.65625 C 2.40625 -4 2.773438 -2.804688 3.515625 -2.078125 C 4.265625 -1.347656 5.171875 -0.984375 6.234375 -0.984375 C 7.304688 -0.984375 8.289062 -1.191406 9.1875 -1.609375 L 9.1875 -0.796875 C 7.9375 -0.078125 6.734375 0.28125 5.578125 0.28125 C 4.097656 0.28125 2.894531 -0.171875 1.96875 -1.078125 C 1.050781 -1.984375 0.59375 -3.289062 0.59375 -5 C 0.59375 -6.71875 1.101562 -8.09375 2.125 -9.125 C 3.144531 -10.15625 4.375 -10.671875 5.8125 -10.671875 C 6.9375 -10.671875 7.875 -10.226562 8.625 -9.34375 C 9.375 -8.457031 9.75 -7.226562 9.75 -5.65625 Z M 4.640625 -9.578125 C 4.109375 -9.316406 3.648438 -8.898438 3.265625 -8.328125 C 2.878906 -7.753906 2.625 -7.09375 2.5 -6.34375 L 7.890625 -6.34375 C 7.835938 -6.988281 7.6875 -7.539062 7.4375 -8 C 7.1875 -8.457031 6.882812 -8.796875 6.53125 -9.015625 C 5.894531 -9.390625 5.265625 -9.578125 4.640625 -9.578125 Z M 4.640625 -9.578125 "/></g></g></g><g fill="#4a4a35" fill-opacity="1"><g transform="translate(621.723772, 176.27388)"><g><path d="M 13.515625 -10.671875 C 15.328125 -10.671875 16.234375 -9.296875 16.234375 -6.546875 L 16.234375 0 L 14.296875 0 L 14.296875 -6.734375 C 14.296875 -8.023438 14.050781 -8.804688 13.5625 -9.078125 C 13.3125 -9.210938 12.96875 -9.28125 12.53125 -9.28125 C 12.101562 -9.28125 11.640625 -9.144531 11.140625 -8.875 C 10.640625 -8.613281 10.273438 -8.3125 10.046875 -7.96875 L 10.046875 0 L 8.09375 0 L 8.09375 -6.84375 C 8.09375 -7.65625 7.96875 -8.265625 7.71875 -8.671875 C 7.476562 -9.078125 7.117188 -9.28125 6.640625 -9.28125 C 6.171875 -9.28125 5.71875 -9.171875 5.28125 -8.953125 C 4.84375 -8.742188 4.492188 -8.53125 4.234375 -8.3125 C 3.972656 -8.101562 3.84375 -7.972656 3.84375 -7.921875 L 3.84375 0 L 1.90625 0 L 1.90625 -7.21875 C 1.90625 -8.257812 1.515625 -9.09375 0.734375 -9.71875 L 1.90625 -10.59375 L 3.75 -8.921875 C 4.46875 -9.515625 5.09375 -9.953125 5.625 -10.234375 C 6.164062 -10.523438 6.726562 -10.671875 7.3125 -10.671875 C 8.644531 -10.671875 9.472656 -10.046875 9.796875 -8.796875 C 10.328125 -9.410156 10.9375 -9.875 11.625 -10.1875 C 12.320312 -10.507812 12.953125 -10.671875 13.515625 -10.671875 Z M 13.515625 -10.671875 "/></g></g></g><g fill="#4a4a35" fill-opacity="1"><g transform="translate(643.166229, 176.27388)"><g><path d="M 6.15625 -10.671875 C 7.507812 -10.671875 8.625 -10.207031 9.5 -9.28125 C 10.382812 -8.363281 10.828125 -7.101562 10.828125 -5.5 C 10.828125 -4.46875 10.648438 -3.5625 10.296875 -2.78125 C 9.941406 -2 9.484375 -1.394531 8.921875 -0.96875 C 7.828125 -0.132812 6.609375 0.28125 5.265625 0.28125 C 3.929688 0.28125 2.820312 -0.175781 1.9375 -1.09375 C 1.0625 -2.019531 0.625 -3.285156 0.625 -4.890625 C 0.625 -5.921875 0.796875 -6.828125 1.140625 -7.609375 C 1.484375 -8.390625 1.9375 -8.992188 2.5 -9.421875 C 3.59375 -10.253906 4.8125 -10.671875 6.15625 -10.671875 Z M 5.703125 -0.5 C 6.378906 -0.5 6.953125 -0.757812 7.421875 -1.28125 C 8.285156 -2.207031 8.71875 -3.429688 8.71875 -4.953125 C 8.71875 -6.472656 8.453125 -7.660156 7.921875 -8.515625 C 7.398438 -9.367188 6.550781 -9.796875 5.375 -9.796875 C 4.5 -9.453125 3.835938 -8.851562 3.390625 -8 C 2.941406 -7.15625 2.71875 -6.128906 2.71875 -4.921875 C 2.71875 -3.722656 2.960938 -2.6875 3.453125 -1.8125 C 3.941406 -0.9375 4.691406 -0.5 5.703125 -0.5 Z M 5.703125 -0.5 "/></g></g></g><g fill="#4a4a35" fill-opacity="1"><g transform="translate(658.219959, 176.27388)"><g><path d="M 3.71875 -8.921875 C 4.363281 -9.535156 4.925781 -9.976562 5.40625 -10.25 C 5.894531 -10.53125 6.46875 -10.671875 7.125 -10.671875 C 7.78125 -10.671875 8.390625 -10.410156 8.953125 -9.890625 C 9.515625 -9.367188 9.796875 -8.46875 9.796875 -7.1875 L 9.796875 0 L 7.84375 0 L 7.84375 -6.96875 C 7.84375 -7.71875 7.707031 -8.28125 7.4375 -8.65625 C 7.164062 -9.03125 6.703125 -9.21875 6.046875 -9.21875 C 5.398438 -9.21875 4.648438 -8.785156 3.796875 -7.921875 L 3.796875 0 L 1.84375 0 L 1.84375 -7.21875 C 1.84375 -8.257812 1.453125 -9.09375 0.671875 -9.71875 L 1.84375 -10.59375 Z M 3.71875 -8.921875 "/></g></g></g><g fill="#4a4a35" fill-opacity="1"><g transform="translate(673.273688, 176.27388)"><g><path d="M 1.71875 0 L 1.71875 -10.390625 L 3.625 -10.390625 L 3.625 0 Z M 1.5 -13.59375 C 1.5 -13.925781 1.609375 -14.207031 1.828125 -14.4375 C 2.046875 -14.664062 2.320312 -14.78125 2.65625 -14.78125 C 2.988281 -14.78125 3.269531 -14.664062 3.5 -14.4375 C 3.738281 -14.207031 3.859375 -13.929688 3.859375 -13.609375 C 3.859375 -13.285156 3.738281 -13 3.5 -12.75 C 3.269531 -12.507812 2.992188 -12.390625 2.671875 -12.390625 C 2.347656 -12.390625 2.070312 -12.503906 1.84375 -12.734375 C 1.613281 -12.972656 1.5 -13.257812 1.5 -13.59375 Z M 1.5 -13.59375 "/></g></g></g><g fill="#4a4a35" fill-opacity="1"><g transform="translate(682.191481, 176.27388)"><g><path d="M 6.546875 -2.4375 L 6.546875 -4.796875 C 5.441406 -4.722656 4.535156 -4.476562 3.828125 -4.0625 C 3.128906 -3.65625 2.78125 -3.210938 2.78125 -2.734375 C 2.78125 -2.253906 2.898438 -1.84375 3.140625 -1.5 C 3.390625 -1.15625 3.707031 -0.914062 4.09375 -0.78125 C 4.59375 -0.875 5.125 -1.125 5.6875 -1.53125 C 6.257812 -1.945312 6.546875 -2.25 6.546875 -2.4375 Z M 8.4375 -3.0625 C 8.4375 -1.96875 8.832031 -1.140625 9.625 -0.578125 L 8.4375 0.296875 L 6.578125 -1.375 C 5.359375 -0.269531 4.238281 0.28125 3.21875 0.28125 C 2.539062 0.28125 1.960938 0.0664062 1.484375 -0.359375 C 1.003906 -0.796875 0.765625 -1.335938 0.765625 -1.984375 C 0.765625 -2.640625 0.957031 -3.179688 1.34375 -3.609375 C 1.738281 -4.035156 2.253906 -4.363281 2.890625 -4.59375 C 3.992188 -5.007812 5.210938 -5.269531 6.546875 -5.375 L 6.546875 -7.53125 C 6.546875 -8.8125 5.8125 -9.453125 4.34375 -9.453125 C 3.5 -9.453125 2.503906 -9.265625 1.359375 -8.890625 L 1.15625 -9.46875 C 1.457031 -9.71875 1.988281 -9.976562 2.75 -10.25 C 3.507812 -10.53125 4.234375 -10.671875 4.921875 -10.671875 C 5.609375 -10.671875 6.1875 -10.578125 6.65625 -10.390625 C 7.125 -10.203125 7.46875 -9.992188 7.6875 -9.765625 C 7.90625 -9.535156 8.078125 -9.222656 8.203125 -8.828125 C 8.328125 -8.429688 8.394531 -8.113281 8.40625 -7.875 C 8.425781 -7.644531 8.4375 -7.34375 8.4375 -6.96875 Z M 8.4375 -3.0625 "/></g></g></g><g fill="#4a4a35" fill-opacity="1"><g transform="translate(294.546851, 267.083314)"><g><path d="M 9.875 0.296875 C 7.289062 0.296875 5.113281 -0.398438 3.34375 -1.796875 C 1.582031 -3.191406 0.703125 -5.195312 0.703125 -7.8125 C 0.703125 -9.351562 0.992188 -10.722656 1.578125 -11.921875 C 2.160156 -13.117188 2.925781 -14.054688 3.875 -14.734375 C 5.789062 -16.140625 7.9375 -16.84375 10.3125 -16.84375 C 11.695312 -16.84375 13.140625 -16.59375 14.640625 -16.09375 L 14.390625 -14.390625 C 13.609375 -14.722656 13 -14.972656 12.5625 -15.140625 C 11.3125 -15.585938 10.054688 -15.8125 8.796875 -15.8125 C 7.046875 -15.414062 5.695312 -14.550781 4.75 -13.21875 C 3.8125 -11.882812 3.34375 -10.21875 3.34375 -8.21875 C 3.34375 -5.769531 3.984375 -3.882812 5.265625 -2.5625 C 6.554688 -1.238281 8.25 -0.578125 10.34375 -0.578125 C 12.4375 -0.578125 14.003906 -1.023438 15.046875 -1.921875 L 15.046875 -0.546875 C 13.609375 0.015625 11.882812 0.296875 9.875 0.296875 Z M 9.875 0.296875 "/></g></g></g><g fill="#4a4a35" fill-opacity="1"><g transform="translate(314.209705, 267.083314)"><g><path d="M 6.6875 -11.59375 C 8.15625 -11.59375 9.367188 -11.09375 10.328125 -10.09375 C 11.285156 -9.09375 11.765625 -7.71875 11.765625 -5.96875 C 11.765625 -4.851562 11.570312 -3.867188 11.1875 -3.015625 C 10.8125 -2.171875 10.3125 -1.515625 9.6875 -1.046875 C 8.507812 -0.148438 7.191406 0.296875 5.734375 0.296875 C 4.273438 0.296875 3.066406 -0.203125 2.109375 -1.203125 C 1.148438 -2.203125 0.671875 -3.578125 0.671875 -5.328125 C 0.671875 -6.441406 0.859375 -7.421875 1.234375 -8.265625 C 1.609375 -9.117188 2.101562 -9.78125 2.71875 -10.25 C 3.90625 -11.144531 5.226562 -11.59375 6.6875 -11.59375 Z M 6.203125 -0.546875 C 6.929688 -0.546875 7.550781 -0.832031 8.0625 -1.40625 C 9 -2.394531 9.46875 -3.71875 9.46875 -5.375 C 9.46875 -7.039062 9.179688 -8.332031 8.609375 -9.25 C 8.046875 -10.175781 7.125 -10.640625 5.84375 -10.640625 C 4.894531 -10.273438 4.175781 -9.628906 3.6875 -8.703125 C 3.195312 -7.785156 2.953125 -6.671875 2.953125 -5.359375 C 2.953125 -4.046875 3.21875 -2.914062 3.75 -1.96875 C 4.28125 -1.019531 5.097656 -0.546875 6.203125 -0.546875 Z M 5.421875 -12.671875 L 4.421875 -12.671875 L 8.71875 -17.359375 L 10.125 -16.109375 Z M 5.421875 -12.671875 "/></g></g></g><g fill="#4a4a35" fill-opacity="1"><g transform="translate(330.574687, 267.083314)"><g><path d="M 5.703125 0.296875 C 4.242188 0.296875 3.035156 -0.195312 2.078125 -1.1875 C 1.128906 -2.175781 0.65625 -3.578125 0.65625 -5.390625 C 0.65625 -7.210938 1.164062 -8.703125 2.1875 -9.859375 C 3.207031 -11.015625 4.507812 -11.59375 6.09375 -11.59375 C 6.976562 -11.59375 7.96875 -11.375 9.0625 -10.9375 L 8.8125 -9.296875 C 7.351562 -10.054688 6.097656 -10.4375 5.046875 -10.4375 C 4.179688 -10.007812 3.554688 -9.3125 3.171875 -8.34375 C 2.785156 -7.375 2.59375 -6.425781 2.59375 -5.5 C 2.59375 -4.226562 2.960938 -3.171875 3.703125 -2.328125 C 4.453125 -1.492188 5.34375 -1.078125 6.375 -1.078125 C 7.40625 -1.078125 8.351562 -1.300781 9.21875 -1.75 L 9.21875 -0.875 C 8.019531 -0.09375 6.847656 0.296875 5.703125 0.296875 Z M 5.703125 0.296875 "/></g></g></g><g fill="#4a4a35" fill-opacity="1"><g transform="translate(344.591184, 267.083314)"><g><path d="M 4.375 -2.203125 C 4.375 -1.703125 4.472656 -1.328125 4.671875 -1.078125 C 4.867188 -0.828125 5.203125 -0.703125 5.671875 -0.703125 C 6.140625 -0.703125 6.695312 -0.828125 7.34375 -1.078125 L 7.34375 -0.375 C 6.375 0.0703125 5.503906 0.296875 4.734375 0.296875 C 3.972656 0.296875 3.375 0.0859375 2.9375 -0.328125 C 2.5 -0.753906 2.28125 -1.421875 2.28125 -2.328125 L 2.28125 -10.390625 L 0.25 -10.796875 L 0.25 -11.296875 L 2.28125 -11.296875 L 2.28125 -12.1875 L 4.375 -13.71875 L 4.375 -11.296875 L 7.34375 -11.296875 L 7.34375 -10.390625 L 4.375 -10.390625 Z M 4.375 -2.203125 "/></g></g></g><g fill="#4a4a35" fill-opacity="1"><g transform="translate(356.68393, 267.083314)"><g><path d="M 2.625 -6.140625 C 2.625 -4.347656 3.023438 -3.054688 3.828125 -2.265625 C 4.640625 -1.472656 5.625 -1.078125 6.78125 -1.078125 C 7.9375 -1.078125 9.007812 -1.300781 10 -1.75 L 10 -0.875 C 8.625 -0.09375 7.316406 0.296875 6.078125 0.296875 C 4.453125 0.296875 3.140625 -0.191406 2.140625 -1.171875 C 1.148438 -2.148438 0.65625 -3.570312 0.65625 -5.4375 C 0.65625 -7.3125 1.207031 -8.804688 2.3125 -9.921875 C 3.414062 -11.035156 4.753906 -11.59375 6.328125 -11.59375 C 7.535156 -11.59375 8.546875 -11.113281 9.359375 -10.15625 C 10.179688 -9.195312 10.59375 -7.859375 10.59375 -6.140625 Z M 5.046875 -10.421875 C 4.460938 -10.140625 3.960938 -9.6875 3.546875 -9.0625 C 3.128906 -8.4375 2.851562 -7.710938 2.71875 -6.890625 L 8.5625 -6.890625 C 8.519531 -7.585938 8.359375 -8.1875 8.078125 -8.6875 C 7.804688 -9.1875 7.476562 -9.554688 7.09375 -9.796875 C 6.414062 -10.210938 5.734375 -10.421875 5.046875 -10.421875 Z M 5.046875 -10.421875 "/></g></g></g><g fill="#4a4a35" fill-opacity="1"><g transform="translate(372.274412, 267.083314)"><g><path d="M 3.96875 -17.0625 L 3.96875 0 L 1.875 0 L 1.875 -17.0625 Z M 3.96875 -17.0625 "/></g></g></g><g fill="#4a4a35" fill-opacity="1"><g transform="translate(597.371528, 461.134664)"><g><path d="M 9.078125 0.28125 C 6.703125 0.28125 4.703125 -0.359375 3.078125 -1.640625 C 1.453125 -2.929688 0.640625 -4.78125 0.640625 -7.1875 C 0.640625 -8.601562 0.90625 -9.863281 1.4375 -10.96875 C 1.976562 -12.070312 2.6875 -12.9375 3.5625 -13.5625 C 5.320312 -14.84375 7.300781 -15.484375 9.5 -15.484375 C 10.769531 -15.484375 12.09375 -15.253906 13.46875 -14.796875 L 13.234375 -13.234375 C 12.515625 -13.546875 11.957031 -13.773438 11.5625 -13.921875 C 10.414062 -14.335938 9.257812 -14.546875 8.09375 -14.546875 C 6.476562 -14.179688 5.238281 -13.382812 4.375 -12.15625 C 3.507812 -10.925781 3.078125 -9.394531 3.078125 -7.5625 C 3.078125 -5.3125 3.664062 -3.578125 4.84375 -2.359375 C 6.03125 -1.140625 7.585938 -0.53125 9.515625 -0.53125 C 11.441406 -0.53125 12.882812 -0.941406 13.84375 -1.765625 L 13.84375 -0.5 C 12.519531 0.0195312 10.929688 0.28125 9.078125 0.28125 Z M 9.078125 0.28125 "/></g></g></g><g fill="#4a4a35" fill-opacity="1"><g transform="translate(615.45875, 461.134664)"><g><path d="M 6.15625 -10.671875 C 7.507812 -10.671875 8.625 -10.207031 9.5 -9.28125 C 10.382812 -8.363281 10.828125 -7.101562 10.828125 -5.5 C 10.828125 -4.46875 10.648438 -3.5625 10.296875 -2.78125 C 9.941406 -2 9.484375 -1.394531 8.921875 -0.96875 C 7.828125 -0.132812 6.609375 0.28125 5.265625 0.28125 C 3.929688 0.28125 2.820312 -0.175781 1.9375 -1.09375 C 1.0625 -2.019531 0.625 -3.285156 0.625 -4.890625 C 0.625 -5.921875 0.796875 -6.828125 1.140625 -7.609375 C 1.484375 -8.390625 1.9375 -8.992188 2.5 -9.421875 C 3.59375 -10.253906 4.8125 -10.671875 6.15625 -10.671875 Z M 5.703125 -0.5 C 6.378906 -0.5 6.953125 -0.757812 7.421875 -1.28125 C 8.285156 -2.207031 8.71875 -3.429688 8.71875 -4.953125 C 8.71875 -6.472656 8.453125 -7.660156 7.921875 -8.515625 C 7.398438 -9.367188 6.550781 -9.796875 5.375 -9.796875 C 4.5 -9.453125 3.835938 -8.851562 3.390625 -8 C 2.941406 -7.15625 2.71875 -6.128906 2.71875 -4.921875 C 2.71875 -3.722656 2.960938 -2.6875 3.453125 -1.8125 C 3.941406 -0.9375 4.691406 -0.5 5.703125 -0.5 Z M 5.703125 -0.5 "/></g></g></g><g fill="#4a4a35" fill-opacity="1"><g transform="translate(630.51248, 461.134664)"><g><path d="M 13.515625 -10.671875 C 15.328125 -10.671875 16.234375 -9.296875 16.234375 -6.546875 L 16.234375 0 L 14.296875 0 L 14.296875 -6.734375 C 14.296875 -8.023438 14.050781 -8.804688 13.5625 -9.078125 C 13.3125 -9.210938 12.96875 -9.28125 12.53125 -9.28125 C 12.101562 -9.28125 11.640625 -9.144531 11.140625 -8.875 C 10.640625 -8.613281 10.273438 -8.3125 10.046875 -7.96875 L 10.046875 0 L 8.09375 0 L 8.09375 -6.84375 C 8.09375 -7.65625 7.96875 -8.265625 7.71875 -8.671875 C 7.476562 -9.078125 7.117188 -9.28125 6.640625 -9.28125 C 6.171875 -9.28125 5.71875 -9.171875 5.28125 -8.953125 C 4.84375 -8.742188 4.492188 -8.53125 4.234375 -8.3125 C 3.972656 -8.101562 3.84375 -7.972656 3.84375 -7.921875 L 3.84375 0 L 1.90625 0 L 1.90625 -7.21875 C 1.90625 -8.257812 1.515625 -9.09375 0.734375 -9.71875 L 1.90625 -10.59375 L 3.75 -8.921875 C 4.46875 -9.515625 5.09375 -9.953125 5.625 -10.234375 C 6.164062 -10.523438 6.726562 -10.671875 7.3125 -10.671875 C 8.644531 -10.671875 9.472656 -10.046875 9.796875 -8.796875 C 10.328125 -9.410156 10.9375 -9.875 11.625 -10.1875 C 12.320312 -10.507812 12.953125 -10.671875 13.515625 -10.671875 Z M 13.515625 -10.671875 "/></g></g></g><g fill="#4a4a35" fill-opacity="1"><g transform="translate(651.954937, 461.134664)"><g><path d="M 1.71875 0 L 1.71875 -10.390625 L 3.625 -10.390625 L 3.625 0 Z M 1.5 -13.59375 C 1.5 -13.925781 1.609375 -14.207031 1.828125 -14.4375 C 2.046875 -14.664062 2.320312 -14.78125 2.65625 -14.78125 C 2.988281 -14.78125 3.269531 -14.664062 3.5 -14.4375 C 3.738281 -14.207031 3.859375 -13.929688 3.859375 -13.609375 C 3.859375 -13.285156 3.738281 -13 3.5 -12.75 C 3.269531 -12.507812 2.992188 -12.390625 2.671875 -12.390625 C 2.347656 -12.390625 2.070312 -12.503906 1.84375 -12.734375 C 1.613281 -12.972656 1.5 -13.257812 1.5 -13.59375 Z M 1.5 -13.59375 "/></g></g></g><g fill="#4a4a35" fill-opacity="1"><g transform="translate(660.87273, 461.134664)"><g><path d="M 9.75 -3.078125 C 9.75 -2.023438 10.140625 -1.179688 10.921875 -0.546875 L 9.75 0.296875 L 7.859375 -1.375 C 7.242188 -0.789062 6.691406 -0.367188 6.203125 -0.109375 C 5.710938 0.148438 5.207031 0.28125 4.6875 0.28125 C 4.164062 0.28125 3.707031 0.203125 3.3125 0.046875 C 2.914062 -0.109375 2.5 -0.363281 2.0625 -0.71875 C 1.625 -1.082031 1.269531 -1.648438 1 -2.421875 C 0.726562 -3.191406 0.59375 -4.191406 0.59375 -5.421875 C 0.59375 -6.648438 0.957031 -7.828125 1.6875 -8.953125 C 2.414062 -10.078125 3.414062 -10.640625 4.6875 -10.640625 C 5.632812 -10.640625 6.671875 -10.285156 7.796875 -9.578125 L 7.796875 -15.703125 L 9.75 -15.703125 Z M 7.796875 -2.328125 L 7.796875 -8.734375 C 6.984375 -9.265625 6.238281 -9.53125 5.5625 -9.53125 C 4.675781 -9.53125 3.960938 -9.113281 3.421875 -8.28125 C 2.890625 -7.445312 2.625 -6.398438 2.625 -5.140625 C 2.625 -3.890625 2.816406 -2.882812 3.203125 -2.125 C 3.597656 -1.363281 4.085938 -0.910156 4.671875 -0.765625 C 5.203125 -0.804688 5.722656 -0.929688 6.234375 -1.140625 C 6.753906 -1.359375 7.144531 -1.578125 7.40625 -1.796875 C 7.664062 -2.023438 7.796875 -2.203125 7.796875 -2.328125 Z M 7.796875 -2.328125 "/></g></g></g><g fill="#4a4a35" fill-opacity="1"><g transform="translate(675.92646, 461.134664)"><g><path d="M 6.546875 -2.4375 L 6.546875 -4.796875 C 5.441406 -4.722656 4.535156 -4.476562 3.828125 -4.0625 C 3.128906 -3.65625 2.78125 -3.210938 2.78125 -2.734375 C 2.78125 -2.253906 2.898438 -1.84375 3.140625 -1.5 C 3.390625 -1.15625 3.707031 -0.914062 4.09375 -0.78125 C 4.59375 -0.875 5.125 -1.125 5.6875 -1.53125 C 6.257812 -1.945312 6.546875 -2.25 6.546875 -2.4375 Z M 8.4375 -3.0625 C 8.4375 -1.96875 8.832031 -1.140625 9.625 -0.578125 L 8.4375 0.296875 L 6.578125 -1.375 C 5.359375 -0.269531 4.238281 0.28125 3.21875 0.28125 C 2.539062 0.28125 1.960938 0.0664062 1.484375 -0.359375 C 1.003906 -0.796875 0.765625 -1.335938 0.765625 -1.984375 C 0.765625 -2.640625 0.957031 -3.179688 1.34375 -3.609375 C 1.738281 -4.035156 2.253906 -4.363281 2.890625 -4.59375 C 3.992188 -5.007812 5.210938 -5.269531 6.546875 -5.375 L 6.546875 -7.53125 C 6.546875 -8.8125 5.8125 -9.453125 4.34375 -9.453125 C 3.5 -9.453125 2.503906 -9.265625 1.359375 -8.890625 L 1.15625 -9.46875 C 1.457031 -9.71875 1.988281 -9.976562 2.75 -10.25 C 3.507812 -10.53125 4.234375 -10.671875 4.921875 -10.671875 C 5.609375 -10.671875 6.1875 -10.578125 6.65625 -10.390625 C 7.125 -10.203125 7.46875 -9.992188 7.6875 -9.765625 C 7.90625 -9.535156 8.078125 -9.222656 8.203125 -8.828125 C 8.328125 -8.429688 8.394531 -8.113281 8.40625 -7.875 C 8.425781 -7.644531 8.4375 -7.34375 8.4375 -6.96875 Z M 8.4375 -3.0625 "/></g></g></g><g fill="#4a4a35" fill-opacity="1"><g transform="translate(300.67596, 564.127554)"><g><path d="M 4.296875 -8.40625 L 9.171875 -8.40625 L 9.171875 -7.53125 L 4.296875 -7.53125 L 4.296875 0 L 2.0625 0 L 2.0625 -15.21875 L 11.0625 -15.21875 L 11.0625 -13.671875 L 6.796875 -14.390625 C 6.035156 -14.390625 5.203125 -14.257812 4.296875 -14 Z M 4.296875 -8.40625 "/></g></g></g><g fill="#4a4a35" fill-opacity="1"><g transform="translate(315.293047, 564.127554)"><g><path d="M 1.71875 0 L 1.71875 -10.390625 L 3.625 -10.390625 L 3.625 0 Z M 1.5 -13.59375 C 1.5 -13.925781 1.609375 -14.207031 1.828125 -14.4375 C 2.046875 -14.664062 2.320312 -14.78125 2.65625 -14.78125 C 2.988281 -14.78125 3.269531 -14.664062 3.5 -14.4375 C 3.738281 -14.207031 3.859375 -13.929688 3.859375 -13.609375 C 3.859375 -13.285156 3.738281 -13 3.5 -12.75 C 3.269531 -12.507812 2.992188 -12.390625 2.671875 -12.390625 C 2.347656 -12.390625 2.070312 -12.503906 1.84375 -12.734375 C 1.613281 -12.972656 1.5 -13.257812 1.5 -13.59375 Z M 1.5 -13.59375 "/></g></g></g><g fill="#4a4a35" fill-opacity="1"><g transform="translate(324.21084, 564.127554)"><g><path d="M 2.40625 -5.65625 C 2.40625 -4 2.773438 -2.804688 3.515625 -2.078125 C 4.265625 -1.347656 5.171875 -0.984375 6.234375 -0.984375 C 7.304688 -0.984375 8.289062 -1.191406 9.1875 -1.609375 L 9.1875 -0.796875 C 7.9375 -0.078125 6.734375 0.28125 5.578125 0.28125 C 4.097656 0.28125 2.894531 -0.171875 1.96875 -1.078125 C 1.050781 -1.984375 0.59375 -3.289062 0.59375 -5 C 0.59375 -6.71875 1.101562 -8.09375 2.125 -9.125 C 3.144531 -10.15625 4.375 -10.671875 5.8125 -10.671875 C 6.9375 -10.671875 7.875 -10.226562 8.625 -9.34375 C 9.375 -8.457031 9.75 -7.226562 9.75 -5.65625 Z M 4.640625 -9.578125 C 4.109375 -9.316406 3.648438 -8.898438 3.265625 -8.328125 C 2.878906 -7.753906 2.625 -7.09375 2.5 -6.34375 L 7.890625 -6.34375 C 7.835938 -6.988281 7.6875 -7.539062 7.4375 -8 C 7.1875 -8.457031 6.882812 -8.796875 6.53125 -9.015625 C 5.894531 -9.390625 5.265625 -9.578125 4.640625 -9.578125 Z M 4.640625 -9.578125 "/></g></g></g><g fill="#4a4a35" fill-opacity="1"><g transform="translate(338.552156, 564.127554)"><g><path d="M 3.890625 -9.703125 C 3.484375 -9.703125 3.15625 -9.550781 2.90625 -9.25 C 2.65625 -8.945312 2.53125 -8.609375 2.53125 -8.234375 C 2.53125 -7.859375 2.707031 -7.5 3.0625 -7.15625 C 3.425781 -6.8125 3.863281 -6.503906 4.375 -6.234375 C 4.894531 -5.972656 5.40625 -5.695312 5.90625 -5.40625 C 6.414062 -5.113281 6.847656 -4.734375 7.203125 -4.265625 C 7.566406 -3.804688 7.75 -3.296875 7.75 -2.734375 C 7.75 -1.878906 7.398438 -1.160156 6.703125 -0.578125 C 6.015625 -0.00390625 5.078125 0.28125 3.890625 0.28125 C 2.703125 0.28125 1.617188 0.00390625 0.640625 -0.546875 L 0.640625 -1.421875 C 1.679688 -0.898438 2.625 -0.640625 3.46875 -0.640625 C 4.3125 -0.640625 4.925781 -0.804688 5.3125 -1.140625 C 5.695312 -1.484375 5.890625 -1.875 5.890625 -2.3125 C 5.890625 -2.75 5.710938 -3.140625 5.359375 -3.484375 C 5.015625 -3.828125 4.59375 -4.128906 4.09375 -4.390625 C 3.601562 -4.648438 3.113281 -4.925781 2.625 -5.21875 C 2.132812 -5.507812 1.710938 -5.882812 1.359375 -6.34375 C 1.015625 -6.800781 0.84375 -7.351562 0.84375 -8 C 0.84375 -8.65625 1.109375 -9.265625 1.640625 -9.828125 C 2.171875 -10.390625 2.988281 -10.671875 4.09375 -10.671875 C 5.195312 -10.671875 6.253906 -10.46875 7.265625 -10.0625 L 7.03125 -8.546875 C 5.894531 -9.160156 4.847656 -9.546875 3.890625 -9.703125 Z M 3.890625 -9.703125 "/></g></g></g><g fill="#4a4a35" fill-opacity="1"><g transform="translate(350.664313, 564.127554)"><g><path d="M 4.015625 -2.015625 C 4.015625 -1.554688 4.109375 -1.210938 4.296875 -0.984375 C 4.484375 -0.753906 4.789062 -0.640625 5.21875 -0.640625 C 5.644531 -0.640625 6.15625 -0.753906 6.75 -0.984375 L 6.75 -0.34375 C 5.863281 0.0703125 5.066406 0.28125 4.359375 0.28125 C 3.660156 0.28125 3.109375 0.0859375 2.703125 -0.296875 C 2.296875 -0.691406 2.09375 -1.304688 2.09375 -2.140625 L 2.09375 -9.5625 L 0.234375 -9.921875 L 0.234375 -10.390625 L 2.09375 -10.390625 L 2.09375 -11.21875 L 4.015625 -12.625 L 4.015625 -10.390625 L 6.75 -10.390625 L 6.75 -9.5625 L 4.015625 -9.5625 Z M 4.015625 -2.015625 "/></g></g></g><g fill="#4a4a35" fill-opacity="1"><g transform="translate(361.788286, 564.127554)"><g><path d="M 6.546875 -2.4375 L 6.546875 -4.796875 C 5.441406 -4.722656 4.535156 -4.476562 3.828125 -4.0625 C 3.128906 -3.65625 2.78125 -3.210938 2.78125 -2.734375 C 2.78125 -2.253906 2.898438 -1.84375 3.140625 -1.5 C 3.390625 -1.15625 3.707031 -0.914062 4.09375 -0.78125 C 4.59375 -0.875 5.125 -1.125 5.6875 -1.53125 C 6.257812 -1.945312 6.546875 -2.25 6.546875 -2.4375 Z M 8.4375 -3.0625 C 8.4375 -1.96875 8.832031 -1.140625 9.625 -0.578125 L 8.4375 0.296875 L 6.578125 -1.375 C 5.359375 -0.269531 4.238281 0.28125 3.21875 0.28125 C 2.539062 0.28125 1.960938 0.0664062 1.484375 -0.359375 C 1.003906 -0.796875 0.765625 -1.335938 0.765625 -1.984375 C 0.765625 -2.640625 0.957031 -3.179688 1.34375 -3.609375 C 1.738281 -4.035156 2.253906 -4.363281 2.890625 -4.59375 C 3.992188 -5.007812 5.210938 -5.269531 6.546875 -5.375 L 6.546875 -7.53125 C 6.546875 -8.8125 5.8125 -9.453125 4.34375 -9.453125 C 3.5 -9.453125 2.503906 -9.265625 1.359375 -8.890625 L 1.15625 -9.46875 C 1.457031 -9.71875 1.988281 -9.976562 2.75 -10.25 C 3.507812 -10.53125 4.234375 -10.671875 4.921875 -10.671875 C 5.609375 -10.671875 6.1875 -10.578125 6.65625 -10.390625 C 7.125 -10.203125 7.46875 -9.992188 7.6875 -9.765625 C 7.90625 -9.535156 8.078125 -9.222656 8.203125 -8.828125 C 8.328125 -8.429688 8.394531 -8.113281 8.40625 -7.875 C 8.425781 -7.644531 8.4375 -7.34375 8.4375 -6.96875 Z M 8.4375 -3.0625 "/></g></g></g><path fill="#4a4a35" d="M 605.148438 129.101562 C 600.003906 128.4375 595.265625 128.210938 590.722656 127.15625 C 572.664062 122.960938 559.019531 107.585938 556.394531 89.175781 C 552.96875 65.257812 568.890625 41.222656 594.949219 37.386719 C 612.136719 34.851562 626.53125 40.722656 637.621094 54.167969 C 639.164062 56.039062 640.609375 56.824219 643.085938 56.792969 C 666.519531 56.550781 685.953125 72.59375 689.695312 95.800781 C 694.164062 123.488281 674.277344 146.578125 649.484375 149.292969 C 631.375 151.285156 616.890625 144.570312 605.933594 130.097656 C 605.558594 129.601562 605.164062 129.117188 605.148438 129.101562 Z M 617.644531 125.917969 C 627.046875 137.085938 645.726562 141.492188 660.953125 132.964844 C 675.996094 124.53125 682.921875 106.453125 677.261719 90.1875 C 672.417969 76.230469 656.652344 64.714844 644.804688 66.660156 C 649 78.582031 648.699219 90.367188 643.449219 101.882812 C 638.179688 113.394531 629.308594 121.164062 617.644531 125.917969 Z M 627.511719 59.554688 C 620.84375 50.09375 603.65625 42.335938 586.847656 50.683594 C 571.546875 58.273438 564.394531 75.777344 569.886719 91.921875 C 574.125 104.371094 588.945312 115.792969 598.480469 113.96875 C 593.289062 87.484375 608.136719 67.113281 627.511719 59.554688 Z M 636.671875 57.171875 C 625.21875 40.253906 599.523438 32.96875 578.941406 45.71875 C 558.371094 58.46875 552.15625 85.191406 564.921875 105.804688 C 577.492188 126.085938 604.425781 132.363281 624.78125 119.613281 C 646.585938 105.96875 648.820312 79.789062 641.5625 66.179688 C 639.628906 66.464844 637.609375 66.78125 635.269531 67.128906 C 638.738281 76.832031 638.875 86.171875 634.863281 95.332031 C 630.789062 104.613281 623.9375 111.101562 614.460938 114.738281 C 598.464844 120.878906 579.785156 114.601562 570.730469 99.421875 C 562.324219 85.328125 564.257812 65.636719 578.125 53.640625 C 584.734375 47.921875 592.460938 44.902344 601.136719 44.796875 C 613.070312 44.660156 622.835938 49.582031 630.394531 58.679688 C 632.582031 58.152344 634.5 57.683594 636.671875 57.171875 Z M 608.136719 128.53125 C 616.285156 142.109375 639.976562 154.648438 663.910156 142.472656 C 685.277344 131.609375 693.953125 105.652344 683.570312 84.089844 C 673.1875 62.558594 647.402344 53.140625 625.671875 63.085938 C 602.601562 73.632812 596.1875 98.683594 601.621094 114.554688 C 603.519531 114.707031 605.453125 114.753906 607.398438 113.890625 C 607.113281 112.714844 606.871094 111.71875 606.644531 110.707031 C 601.03125 87.109375 618.472656 64.246094 642.785156 63.824219 C 667.347656 63.402344 684.023438 84.785156 681.308594 106.046875 C 679.40625 120.953125 671.4375 131.621094 657.542969 137.117188 C 643.523438 142.652344 630.394531 140.164062 618.683594 130.582031 C 616.089844 126.582031 612.5 126.71875 608.605469 128.183594 C 608.5 128.210938 608.441406 128.289062 608.136719 128.53125 Z M 632.777344 68.125 C 611.019531 74.34375 603.460938 99.664062 610.429688 113.363281 C 629.941406 108.714844 640.851562 86.445312 632.777344 68.125 Z M 642.753906 52.402344 C 635.433594 43.394531 631.964844 33.78125 633.894531 22.585938 C 634.394531 19.734375 635.585938 17.199219 637.667969 15.132812 C 641.273438 11.539062 646.027344 11.675781 649.105469 15.703125 C 650.796875 17.921875 651.988281 20.53125 653.527344 23.171875 C 654.132812 22.828125 654.914062 22.390625 655.699219 21.9375 C 658.28125 20.441406 661.011719 19.460938 664.042969 19.582031 C 668.996094 19.777344 672.179688 23.28125 671.875 28.242188 C 671.726562 30.734375 670.878906 33.042969 669.21875 34.839844 C 666.882812 37.359375 664.558594 40.089844 661.707031 41.871094 C 655.671875 45.628906 649.300781 48.8125 642.753906 52.402344 Z M 642.996094 49.488281 C 648.652344 46.441406 654.117188 43.769531 659.277344 40.617188 C 661.992188 38.957031 664.421875 36.648438 666.566406 34.265625 C 667.90625 32.785156 668.828125 30.71875 669.339844 28.757812 C 670.277344 25.242188 667.894531 22.3125 664.257812 22.011719 C 661.992188 21.832031 659.851562 22.375 657.917969 23.476562 C 656.574219 24.246094 655.367188 25.285156 654.117188 26.222656 C 652.832031 27.171875 652.140625 27.050781 651.429688 25.617188 C 651.023438 24.773438 650.828125 23.824219 650.402344 22.992188 C 649.46875 21.121094 648.652344 19.160156 647.429688 17.5 C 645.0625 14.210938 641.710938 14.195312 638.980469 17.226562 C 637.15625 19.25 636.28125 21.738281 635.964844 24.367188 C 634.863281 33.539062 637.578125 41.6875 642.996094 49.488281 Z M 642.996094 49.488281 " fill-opacity="1" fill-rule="nonzero"/><g clip-path="url(#2f32515985)"><path fill="#4a4a35" d="M 397.007812 225.917969 C 392.300781 224.378906 387.6875 226.839844 384.941406 221.183594 C 380.007812 209.660156 376.253906 197.503906 373.585938 185.257812 C 372.710938 181.230469 374.59375 177.578125 376.042969 173.914062 C 378.214844 168.167969 379.238281 162 379.089844 155.859375 C 379.164062 147.414062 377.097656 139.117188 374.203125 131.246094 C 371.398438 123.234375 368.003906 115.394531 363.886719 107.972656 C 361.636719 104.5625 361.910156 107.15625 359.226562 108.003906 C 358.546875 108.230469 357.761719 108.214844 357.097656 108.457031 C 356.480469 108.667969 355.953125 109.105469 355.335938 109.359375 C 351.171875 110.914062 346.886719 112.226562 342.46875 112.828125 C 341.941406 112.90625 339.421875 113.207031 340.613281 112.074219 C 342.136719 110.6875 344.128906 110.085938 346.089844 109.585938 C 348.167969 109 350.117188 107.925781 352.242188 107.550781 C 353.28125 107.355469 354.355469 107.339844 355.394531 107.082031 C 356.285156 106.871094 357.175781 106.449219 358.0625 106.417969 C 359.042969 106.375 359.890625 106.855469 360.882812 106.828125 C 362.949219 106.75 362.074219 105.695312 360.566406 105.410156 C 358.726562 104.972656 356.8125 104.835938 354.941406 105.03125 C 350.703125 105.621094 346.480469 106.554688 342.46875 108.078125 C 340.734375 108.800781 338.820312 109.554688 337.476562 110.945312 C 337.339844 110.988281 337.097656 111.488281 336.949219 111.246094 C 336.886719 109.464844 336.84375 107.324219 336.570312 105.5 C 336.917969 103.871094 336.738281 102.664062 335.167969 101.59375 C 330.265625 98.273438 321.804688 95.453125 315.90625 95.574219 C 313.871094 95.257812 310.960938 94.773438 310.238281 97.355469 C 309.089844 100.445312 307.355469 103.265625 305.96875 106.269531 C 304.535156 109.316406 302.652344 112.105469 301.261719 115.152344 C 298.96875 121.773438 296.464844 128.441406 295.351562 135.363281 C 293.765625 146.101562 294.054688 157.445312 298.683594 167.457031 C 301.472656 172.902344 300.417969 176.582031 298.835938 182.164062 C 298.019531 184.351562 297.207031 186.507812 296.796875 188.800781 C 296.015625 191.46875 294.941406 194.035156 294.308594 196.75 C 293.089844 201.09375 291.113281 205.226562 289.527344 209.449219 C 286.664062 216.882812 284.25 215.617188 277.507812 216.476562 C 274.128906 216.945312 272.136719 220.382812 275.367188 222.722656 C 279.558594 226.113281 284.339844 228.933594 289.679688 230.035156 C 292.363281 230.640625 295.140625 230.519531 297.871094 230.699219 C 301.234375 230.835938 307.929688 230.761719 305.621094 225.601562 C 304.066406 222.3125 296.359375 219.175781 301.472656 223.171875 C 311.59375 231.53125 294.550781 229.386719 289.980469 227.96875 C 285.457031 226.761719 281.097656 224.726562 277.449219 221.742188 C 272.953125 218.347656 280.507812 218.453125 282.652344 218.40625 C 285.515625 218.40625 288.203125 216.976562 289.785156 214.578125 C 291.988281 211.273438 293.195312 207.425781 294.65625 203.761719 C 297.898438 194.167969 301.835938 184.578125 303.164062 174.515625 C 303.3125 170.792969 301.566406 167.382812 300.265625 164.003906 C 298.003906 157.867188 297.023438 151.199219 297.222656 144.652344 C 297.386719 140.988281 297.75 137.324219 298.367188 133.703125 C 298.414062 133.371094 298.53125 132.890625 298.910156 132.949219 C 300.960938 133.6875 303.042969 134.203125 305.230469 134.277344 C 309.722656 134.820312 314.277344 134.757812 318.789062 134.441406 C 320.75 134.472656 322.710938 134.320312 324.65625 134.5625 C 326.316406 134.308594 328.035156 134.457031 329.617188 133.808594 C 330.070312 133.660156 330.523438 133.628906 330.328125 134.335938 C 327.929688 143.265625 324.820312 152.332031 319.179688 159.765625 C 318.410156 160.714844 317.71875 161.773438 316.886719 162.675781 C 315.636719 163.882812 314.265625 164.925781 313.191406 166.3125 C 310.207031 168.832031 307.144531 171.410156 305.019531 174.742188 C 300.855469 182.570312 299.5 191.546875 297.144531 200.023438 C 296.210938 203.566406 296.074219 207.230469 296.179688 210.867188 C 296.058594 214.667969 295.683594 218.695312 297.128906 222.285156 C 297.839844 223.609375 298.125 222.132812 297.960938 221.332031 C 296.40625 210.609375 299.046875 199.78125 302.183594 189.554688 C 304.386719 183.339844 305.695312 176.132812 311.050781 171.789062 C 330.523438 156.839844 332.90625 135.363281 336.738281 114.625 C 336.375 117.625 336.632812 120.65625 336.632812 123.660156 C 336.40625 126.492188 337.21875 129.179688 337.882812 131.910156 C 339.664062 141.5625 342.332031 151.125 346.601562 160.007812 C 349.375 165.617188 352.996094 170.851562 356.933594 175.707031 C 358.789062 177.277344 360.492188 179.148438 362.421875 180.566406 C 363.691406 181.484375 364.820312 182.632812 365.589844 184.003906 C 367.324219 187.097656 368.394531 190.488281 369.300781 193.957031 C 370.75 198.4375 372.390625 202.871094 373.222656 207.519531 C 373.628906 210.140625 374.035156 212.75 374.429688 215.359375 C 374.761719 217.171875 375.199219 218.964844 375.046875 220.820312 C 375.015625 224.167969 374.097656 227.410156 373.960938 230.746094 C 373.929688 231.589844 372.949219 231.574219 372.40625 231.980469 C 371.292969 232.660156 370.296875 233.519531 369.464844 234.515625 C 366.691406 238.40625 373.539062 238.390625 375.863281 238.527344 C 379.859375 238.679688 383.855469 238.015625 387.597656 236.640625 C 390.867188 235.449219 393.945312 233.761719 396.75 231.726562 C 399.375 230.171875 400.535156 227.457031 397.097656 225.980469 L 397.066406 225.980469 Z M 312.847656 97.128906 C 314.308594 96.3125 317.582031 97.234375 319.257812 97.488281 C 324.398438 98.546875 329.421875 100.355469 333.960938 102.964844 C 334.234375 103.144531 334.851562 103.402344 334.851562 103.71875 C 334.6875 104.007812 333.359375 103.792969 332.996094 103.792969 C 330.914062 103.628906 328.847656 103.238281 326.78125 102.921875 C 324.519531 102.347656 322.199219 102 319.949219 101.382812 C 318.109375 100.808594 316.40625 99.902344 314.761719 98.984375 C 314.386719 98.773438 314.039062 98.515625 313.675781 98.273438 C 313.328125 98.019531 312.332031 97.671875 312.832031 97.160156 L 312.847656 97.160156 Z M 329.40625 130.988281 C 329.269531 131.246094 328.804688 131.289062 328.472656 131.367188 C 327.640625 131.5 326.8125 131.578125 325.953125 131.621094 C 324.171875 131.699219 322.394531 131.710938 320.597656 131.773438 C 317.339844 131.863281 314.097656 131.96875 310.855469 131.894531 C 309.605469 131.894531 308.367188 131.921875 307.128906 131.789062 C 304.835938 131.53125 302.394531 131.53125 300.132812 130.945312 C 299.722656 130.824219 299.273438 130.582031 299.332031 130.144531 C 299.5 129.511719 300.449219 129.421875 301.007812 129.285156 C 302.03125 129.101562 303.058594 128.953125 304.082031 128.800781 C 305.109375 128.652344 306.042969 128.574219 307.054688 128.515625 C 309.0625 128.394531 311.351562 127.910156 313.3125 128.484375 C 315.273438 129.058594 315.5 128.679688 316.527344 128.726562 C 317.628906 128.785156 318.742188 128.832031 319.84375 128.90625 C 320.6875 128.96875 321.519531 129.058594 322.347656 129.195312 C 324.460938 129.375 326.570312 129.675781 328.59375 130.339844 C 328.910156 130.429688 329.527344 130.65625 329.421875 130.988281 Z M 335.46875 109.796875 C 335.378906 111.578125 335.078125 113.355469 334.550781 115.046875 C 334.21875 116.117188 333.855469 117.171875 333.628906 118.257812 C 333.507812 118.800781 333.433594 119.375 333.375 119.933594 C 333.132812 122.738281 332.316406 125.4375 331.804688 128.167969 C 331.773438 128.363281 331.699219 128.695312 331.546875 128.742188 C 331.335938 128.832031 331.019531 128.636719 330.792969 128.546875 C 329.964844 128.199219 329.179688 128.046875 328.335938 127.851562 C 327.824219 127.714844 327.371094 127.535156 326.84375 127.472656 C 324.714844 127.21875 322.648438 127.144531 320.523438 127.097656 C 319.648438 127.097656 318.804688 126.929688 317.945312 126.839844 C 316.875 126.734375 315.816406 126.78125 314.761719 126.707031 C 313.660156 126.644531 312.574219 126.554688 311.472656 126.554688 C 309.300781 126.554688 307.113281 126.71875 304.972656 127.082031 C 303.570312 127.324219 302.109375 127.503906 300.691406 127.414062 C 300.160156 127.398438 299.632812 127.414062 299.84375 126.707031 C 301.972656 118.242188 305.878906 110.371094 309.257812 102.347656 C 309.710938 101.214844 310.359375 100.070312 310.644531 98.863281 C 310.765625 98.335938 310.855469 98.289062 311.140625 98.710938 C 311.730469 99.527344 312.605469 100.070312 313.328125 100.746094 C 313.902344 101.261719 314.355469 101.925781 315.035156 102.316406 C 315.425781 102.542969 315.863281 102.632812 316.300781 102.753906 C 317.265625 103.027344 318.140625 103.539062 319.105469 103.808594 C 319.574219 103.960938 319.980469 104.21875 320.433594 104.367188 C 321.019531 104.535156 321.65625 104.5625 322.242188 104.730469 C 324.777344 105.421875 327.371094 105.953125 329.996094 106.191406 C 330.597656 106.238281 331.1875 106.191406 331.761719 106.222656 C 332.5 106.222656 333.207031 106.285156 333.945312 106.222656 C 334.265625 106.191406 334.59375 106.132812 334.882812 106.042969 C 335.046875 105.996094 335.304688 105.953125 335.394531 106.042969 C 335.484375 106.148438 335.53125 106.328125 335.53125 106.480469 C 335.5625 107.550781 335.53125 108.652344 335.484375 109.707031 L 335.484375 109.796875 Z M 339.875 131.320312 C 338.804688 126.070312 337.808594 120.839844 337.808594 115.5 C 337.824219 115 338.078125 114.957031 338.515625 115.105469 C 339.015625 115.257812 339.574219 115.347656 340.101562 115.378906 C 343.058594 115.542969 346.058594 115.03125 348.878906 114.140625 C 351.519531 113.539062 353.929688 112.300781 356.359375 111.125 C 357.777344 110.492188 359.210938 109.871094 360.492188 109.011719 C 361.035156 108.652344 361.519531 108.199219 361.941406 107.714844 C 362.0625 107.582031 362.210938 107.398438 362.394531 107.429688 C 362.527344 107.460938 362.664062 107.730469 362.738281 107.898438 C 363.523438 109.648438 364.292969 111.394531 365.078125 113.160156 C 366.207031 115.679688 367.25 118.242188 368.035156 120.851562 C 368.410156 122.136719 368.789062 123.402344 369.226562 124.667969 C 369.558594 125.605469 369.933594 126.523438 370.355469 127.414062 C 371.878906 130.6875 372.800781 134.1875 373.765625 137.65625 C 373.855469 137.972656 373.992188 138.441406 373.433594 138.242188 C 371.140625 137.355469 368.710938 136.75 366.269531 136.449219 C 364.277344 136.191406 362.289062 135.890625 360.296875 135.664062 C 359.601562 135.589844 358.910156 135.574219 358.230469 135.4375 C 357.550781 135.300781 356.722656 135.136719 355.96875 135.015625 C 355.136719 134.878906 354.324219 134.789062 353.492188 134.714844 C 351.308594 134.53125 349.105469 134.5625 346.902344 134.609375 C 344.699219 134.652344 345.847656 134.667969 345.335938 134.625 C 344.820312 134.578125 344.414062 134.53125 343.945312 134.53125 C 343.085938 134.53125 342.121094 134.714844 341.429688 135.300781 C 341.097656 135.574219 340.914062 135.589844 340.78125 135.074219 C 340.449219 133.839844 340.128906 132.574219 339.859375 131.320312 L 339.859375 131.289062 L 339.859375 131.320312 Z M 349.917969 136.296875 C 350.765625 136.296875 351.59375 136.328125 352.40625 136.375 C 353.222656 136.417969 354.640625 136.464844 355.710938 136.675781 C 356.78125 136.886719 357.730469 137.113281 358.757812 137.277344 C 361.140625 137.65625 363.539062 137.925781 365.890625 138.515625 C 368.019531 138.90625 370.160156 139.433594 372.136719 140.324219 C 372.421875 140.445312 372.964844 140.761719 372.722656 141.046875 C 372.558594 141.261719 372.03125 141.273438 371.714844 141.304688 C 370.929688 141.367188 370.113281 141.351562 369.300781 141.304688 C 364.460938 140.957031 359.558594 140.703125 354.746094 140.175781 C 353.34375 140.007812 351.925781 139.949219 350.539062 139.644531 C 348.773438 139.285156 346.933594 139.011719 345.167969 138.589844 C 344.476562 138.410156 342.121094 137.910156 343.132812 136.917969 C 343.929688 136.449219 345.019531 136.554688 345.921875 136.449219 C 347.21875 136.3125 348.578125 136.265625 349.933594 136.28125 L 349.917969 136.28125 Z M 396.960938 228.695312 C 396.960938 228.90625 396.75 229.132812 396.507812 229.34375 C 396.148438 229.644531 395.769531 229.960938 395.394531 230.261719 C 394.640625 230.835938 393.824219 231.394531 392.996094 231.859375 C 388.515625 234.378906 383.570312 235.949219 378.546875 236.960938 C 377.21875 237.304688 371.246094 237.171875 370.339844 236.308594 C 370.160156 236.144531 370.21875 235.875 370.339844 235.675781 C 370.824219 234.921875 371.503906 234.304688 372.136719 233.6875 C 372.800781 233.023438 373.644531 232.523438 374.292969 231.847656 C 374.503906 231.574219 374.488281 231.316406 374.59375 231.015625 C 374.789062 230.578125 375.046875 230.113281 375.167969 229.613281 C 376.027344 226.3125 376.390625 222.917969 376.511719 219.492188 C 376.707031 214.710938 375.800781 209.992188 374.820312 205.332031 C 374.15625 201.769531 373.148438 198.316406 372.152344 194.847656 C 371.625 192.976562 371.09375 190.988281 370.550781 189.101562 C 369.617188 185.769531 368.199219 182.496094 365.726562 179.992188 C 363.855469 178.03125 361.636719 176.402344 359.753906 174.441406 C 352.664062 167.277344 348.15625 158.046875 344.792969 148.621094 C 343.929688 145.964844 343.148438 143.296875 342.347656 140.625 C 342.0625 139.707031 342.710938 140.25 343.253906 140.460938 C 343.75 140.671875 344.261719 140.777344 344.730469 140.988281 C 345.078125 141.125 345.394531 141.304688 345.757812 141.394531 C 346.527344 141.589844 347.371094 141.621094 348.15625 141.816406 C 351.625 142.585938 355.199219 142.980469 358.726562 143.21875 C 359.859375 143.265625 361.003906 143.21875 362.136719 143.339844 C 363.359375 143.492188 364.566406 143.566406 365.785156 143.628906 C 366.433594 143.703125 367.054688 143.976562 367.6875 144.003906 C 368.078125 144.035156 368.484375 143.976562 368.878906 143.960938 C 369.601562 143.914062 370.328125 144.082031 371.050781 144.019531 C 372.226562 143.914062 373.371094 143.550781 374.519531 143.25 C 374.910156 143.160156 375.078125 143.460938 375.136719 143.777344 C 375.410156 144.878906 375.664062 145.996094 375.816406 147.128906 C 376.855469 154.636719 376.644531 162.359375 374.578125 169.660156 C 373.691406 172.738281 372.347656 175.574219 371.425781 178.648438 C 370.023438 183.039062 370.976562 186.566406 372.121094 190.820312 C 372.46875 192.207031 372.574219 193.640625 372.933594 195.03125 C 373.238281 196.339844 373.796875 197.59375 374.203125 198.875 C 374.746094 200.925781 375.242188 202.976562 376.027344 204.953125 C 377.972656 209.660156 379.253906 214.652344 381.261719 219.34375 C 382.046875 221.273438 382.964844 223.21875 384.382812 224.800781 C 385.03125 225.707031 385.859375 226.355469 386.855469 226.824219 C 388.273438 227.515625 389.859375 227.714844 391.410156 227.742188 C 392.589844 227.820312 396.628906 227.546875 397.023438 228.738281 Z M 327.945312 89.675781 C 327.746094 89.253906 327.507812 88.742188 327.671875 88.273438 C 327.777344 87.929688 328.140625 87.609375 328.472656 87.625 C 328.742188 87.625 328.96875 87.882812 329.152344 88.09375 C 329.453125 88.457031 329.753906 88.816406 330.039062 89.179688 C 330.792969 90.144531 331.667969 91.261719 331.625 92.558594 C 331.578125 93.085938 331.035156 93.523438 330.539062 93.476562 C 329.300781 93.265625 328.515625 90.734375 327.945312 89.707031 Z M 335.242188 88.199219 C 335.394531 87.039062 335.335938 85.832031 335.605469 84.671875 C 335.710938 84.007812 336.027344 83.148438 336.84375 83.433594 C 337.476562 83.765625 337.234375 85.226562 337.191406 85.847656 C 337.070312 86.722656 336.8125 87.597656 336.632812 88.425781 C 336.511719 88.847656 336.542969 89.4375 336.179688 89.738281 C 335.90625 89.902344 335.425781 89.828125 335.199219 89.601562 C 334.882812 89.238281 335.199219 88.667969 335.230469 88.214844 L 335.230469 88.183594 L 335.242188 88.183594 Z M 342.394531 87.625 C 342.589844 86.949219 342.875 86.285156 343.191406 85.648438 C 343.644531 84.789062 344.066406 83.660156 345.078125 83.359375 C 345.953125 83.191406 346.390625 83.507812 346.058594 84.414062 C 345.816406 85.4375 345.335938 86.40625 344.910156 87.355469 C 344.640625 87.972656 344.292969 88.589844 343.71875 89 C 343.269531 89.34375 342.542969 89.121094 342.316406 88.636719 C 342.195312 88.335938 342.289062 87.972656 342.378906 87.65625 L 342.378906 87.625 Z M 350.433594 92.421875 C 349.285156 91.636719 350.355469 90.867188 350.914062 90.144531 C 351.472656 89.480469 352.046875 88.789062 352.875 88.457031 C 353.765625 88.0625 356.433594 87.792969 355.136719 89.449219 C 354.503906 90.25 353.660156 90.855469 352.90625 91.546875 C 352.273438 92.136719 351.335938 92.890625 350.449219 92.421875 L 350.417969 92.421875 Z M 355.394531 96.765625 C 356.886719 96.765625 359.617188 96.359375 360.144531 98.214844 C 360.265625 98.894531 359.40625 98.90625 358.921875 98.894531 C 357.625 98.894531 356.300781 98.894531 354.988281 98.816406 C 354.355469 98.742188 353.34375 98.789062 353.011719 98.140625 C 352.890625 97.851562 352.9375 97.414062 353.117188 97.171875 C 353.28125 96.933594 353.644531 96.886719 353.992188 96.855469 C 354.460938 96.828125 354.910156 96.796875 355.347656 96.765625 Z M 355.394531 96.765625 " fill-opacity="1" fill-rule="nonzero"/></g></svg>