<svg xmlns="http://www.w3.org/2000/svg" xmlns:xlink="http://www.w3.org/1999/xlink" width="1366" zoomAndPan="magnify" viewBox="0 0 1024.5 576" height="768" preserveAspectRatio="xMidYMid meet" version="1.0"><defs><g/><clipPath id="d1721219ba"><path d="M 387.265625 0.703125 L 567.304688 0.703125 L 567.304688 126 L 387.265625 126 Z M 387.265625 0.703125 " clip-rule="nonzero"/></clipPath><clipPath id="64baf5d4a0"><path d="M 565 320 L 705 320 L 705 476.722656 L 565 476.722656 Z M 565 320 " clip-rule="nonzero"/></clipPath><clipPath id="3551a7d250"><path d="M 0.03125 196.976562 L 728.019531 196.976562 L 728.019531 237.53125 L 0.03125 237.53125 Z M 0.03125 196.976562 " clip-rule="nonzero"/></clipPath><clipPath id="f867eb6e07"><path d="M 113 155 L 139 155 L 139 236 L 113 236 Z M 113 155 " clip-rule="nonzero"/></clipPath><clipPath id="cd1f955878"><path d="M 93.625 217.363281 L 125.128906 149.929688 L 166.136719 169.085938 L 134.632812 236.519531 Z M 93.625 217.363281 " clip-rule="nonzero"/></clipPath><clipPath id="1b2420d9ba"><path d="M 93.625 217.363281 L 125.128906 149.929688 L 166.136719 169.085938 L 134.632812 236.519531 Z M 93.625 217.363281 " clip-rule="nonzero"/></clipPath><clipPath id="a71b5c39c4"><path d="M 460 136 L 487 136 L 487 217 L 460 217 Z M 460 136 " clip-rule="nonzero"/></clipPath><clipPath id="726e90e2aa"><path d="M 441.394531 198.363281 L 472.894531 130.929688 L 513.902344 150.085938 L 482.402344 217.519531 Z M 441.394531 198.363281 " clip-rule="nonzero"/></clipPath><clipPath id="0234631219"><path d="M 441.394531 198.363281 L 472.894531 130.929688 L 513.902344 150.085938 L 482.402344 217.519531 Z M 441.394531 198.363281 " clip-rule="nonzero"/></clipPath><clipPath id="b29c25c7db"><path d="M 259 210 L 289 210 L 289 298 L 259 298 Z M 259 210 " clip-rule="nonzero"/></clipPath><clipPath id="4e1b7408b2"><path d="M 310.621094 231.324219 L 274.089844 304.144531 L 230.039062 282.042969 L 266.570312 209.226562 Z M 310.621094 231.324219 " clip-rule="nonzero"/></clipPath><clipPath id="0d120c6f28"><path d="M 310.621094 231.324219 L 274.089844 304.144531 L 230.039062 282.042969 L 266.570312 209.226562 Z M 310.621094 231.324219 " clip-rule="nonzero"/></clipPath><clipPath id="b3eaa9ec18"><path d="M 623 226 L 654 226 L 654 314 L 623 314 Z M 623 226 " clip-rule="nonzero"/></clipPath><clipPath id="a98f563f7e"><path d="M 674.902344 247.417969 L 638.371094 320.238281 L 594.320312 298.136719 L 630.851562 225.316406 Z M 674.902344 247.417969 " clip-rule="nonzero"/></clipPath><clipPath id="7991b75671"><path d="M 674.902344 247.417969 L 638.371094 320.238281 L 594.320312 298.136719 L 630.851562 225.316406 Z M 674.902344 247.417969 " clip-rule="nonzero"/></clipPath><clipPath id="86e9d078ee"><rect x="0" width="729" y="0" height="477"/></clipPath><clipPath id="aed60ada05"><path d="M 336 352.179688 L 477 352.179688 L 477 525.34375 L 336 525.34375 Z M 336 352.179688 " clip-rule="nonzero"/></clipPath></defs><g transform="matrix(1, 0, 0, 1, 148, 49)"><g clip-path="url(#86e9d078ee)"><g clip-path="url(#d1721219ba)"><path fill="#4a4a35" d="M 543.453125 56.917969 C 541.996094 41.082031 533.050781 27.191406 522.507812 15.710938 C 509.210938 1.421875 489.363281 0.703125 471.097656 0.722656 C 468.289062 0.738281 465.484375 0.972656 462.75 1.640625 C 453.210938 3.960938 445.976562 10.976562 438.707031 17.203125 C 433.167969 21.953125 428.183594 27.570312 424.996094 34.207031 C 421.6875 40.613281 418.988281 47.398438 417.671875 54.488281 C 414.6875 71.671875 419.742188 90.222656 431.023438 103.378906 C 441.351562 115.523438 457.585938 122.019531 472.914062 124.753906 C 511.0625 131.015625 547.230469 94.9375 543.433594 56.953125 L 543.433594 56.917969 Z M 540.210938 68.882812 C 535.875 99.851562 509.027344 124.050781 477.324219 122.164062 C 468.902344 121.460938 460.914062 118.203125 453.050781 115.179688 C 451.429688 114.550781 449.828125 113.867188 448.261719 113.078125 C 431.925781 104.65625 421.757812 87.5625 419.957031 69.511719 C 418.808594 57.222656 421.917969 44.664062 428.183594 34.0625 C 434.425781 23.394531 443.457031 14.523438 453.914062 8.007812 C 455.800781 6.839844 457.746094 5.796875 459.796875 4.933594 C 461.488281 4.285156 463 3.472656 464.65625 2.96875 C 466.148438 2.648438 467.695312 2.484375 469.226562 2.46875 C 477.933594 2.59375 486.664062 2.25 495.15625 4.230469 C 502.28125 5.902344 508.632812 7.648438 514.589844 12.113281 C 522.613281 17.960938 528.5 26.21875 533.304688 34.785156 C 534.796875 37.5 536.253906 40.238281 537.371094 43.132812 C 540.609375 51.25 541.398438 60.246094 540.195312 68.847656 L 540.195312 68.882812 Z M 523.117188 61.523438 C 523.335938 60.121094 522.882812 58.769531 522.667969 57.421875 C 522.488281 55.730469 522.378906 54.074219 521.859375 52.4375 C 520.996094 48.65625 519.050781 45.347656 517 42.089844 C 516.101562 40.289062 515.199219 38.4375 513.851562 36.90625 C 512.179688 35.449219 510.863281 33.742188 509.605469 31.921875 C 508.867188 30.96875 507.824219 29.78125 506.601562 29.636719 C 505.664062 30.070312 506.78125 31.183594 507.195312 31.652344 C 509.710938 34.515625 511.53125 37.898438 513.636719 41.0625 C 516.621094 45.941406 518.816406 51.300781 519.5 57.007812 C 521.175781 68.757812 515.273438 84.953125 506.457031 92.867188 C 506.1875 93.101562 505.878906 93.335938 505.863281 92.742188 C 505.734375 83.890625 505.503906 75.074219 505.304688 66.238281 C 505.140625 65.210938 506.402344 65.375 506.90625 64.816406 C 507.714844 63.863281 508.507812 62.566406 508.292969 61.289062 C 508.039062 59.722656 506.796875 59.183594 505.359375 59.453125 C 504.835938 51.265625 505.359375 42.71875 505.125 34.40625 C 505.089844 29.421875 504.800781 24.402344 504.945312 19.417969 C 504.65625 17.871094 504.566406 16.320312 504.601562 14.738281 C 504.636719 13.929688 503.757812 14.035156 503.179688 14.054688 C 502.046875 14.054688 500.949219 14.054688 499.851562 14.054688 C 497.496094 13.964844 494.597656 13.964844 492.113281 13.875 C 482.972656 13.640625 473.832031 13.460938 464.671875 13.714844 C 454.632812 14.269531 455.261719 11.96875 455.066406 20.804688 C 454.976562 23.699219 454.8125 26.597656 454.742188 29.492188 C 454.847656 30.574219 453.734375 31.09375 453.066406 31.6875 C 451.898438 32.734375 450.421875 33.289062 449.253906 34.296875 C 448.621094 34.855469 448.28125 35.664062 447.777344 36.332031 C 446.859375 37.519531 445.851562 38.6875 445.042969 39.984375 C 443.835938 41.171875 443.421875 42.84375 442.578125 44.265625 C 441.460938 46.410156 440.488281 48.621094 439.734375 50.941406 C 438.257812 55.226562 437.933594 59.777344 437.035156 64.167969 C 437.234375 65.949219 436.980469 67.785156 437.503906 69.546875 C 437.898438 70.953125 437.898438 72.429688 438.1875 73.847656 C 438.996094 77.484375 440.328125 81.011719 442.359375 84.125 C 444.84375 88.066406 445.457031 90.097656 449.449219 92.921875 C 450.726562 94.34375 452.148438 95.730469 453.589844 96.953125 C 453.679688 97.816406 453.625 99.363281 453.644531 100.410156 C 453.625 102.746094 453.769531 105.140625 453.535156 107.5 C 453.425781 108.722656 453.011719 109.855469 452.5625 110.988281 C 452.457031 111.386719 452.058594 111.925781 452.257812 112.300781 C 468.507812 112.933594 484.917969 112.914062 501.203125 113.167969 C 502.535156 113.238281 504.097656 113.167969 504.960938 111.996094 C 506.238281 110.394531 505.84375 108.21875 505.863281 106.328125 C 505.808594 103.558594 505.789062 100.804688 505.808594 98.035156 C 505.808594 96.953125 505.554688 95.640625 506.796875 95.171875 C 507.824219 94.507812 509.027344 94.148438 509.929688 93.355469 C 511.386719 91.554688 512.953125 89.808594 514.335938 87.957031 C 515.363281 87.039062 515.847656 85.78125 516.496094 84.574219 C 518.980469 80.328125 520.90625 75.703125 521.714844 70.84375 C 522.09375 69.226562 522.507812 67.640625 522.613281 65.96875 C 522.722656 65.230469 523.082031 64.546875 523.117188 63.828125 C 523.171875 63.070312 522.921875 62.316406 523.027344 61.558594 L 523.027344 61.523438 Z M 505.359375 60.300781 C 505.71875 60.585938 506.203125 60.695312 506.492188 61.074219 C 507.175781 62.007812 506.277344 62.78125 505.375 62.855469 C 505.269531 62.835938 505.25 62.710938 505.25 62.601562 C 505.25 61.917969 505.25 61.234375 505.25 60.550781 C 505.25 60.460938 505.214844 60.226562 505.359375 60.265625 Z M 457.351562 50.3125 C 457.566406 39.5 457.332031 28.613281 457.636719 17.78125 C 457.675781 17.347656 457.585938 16.71875 457.871094 16.429688 C 458.808594 16.160156 460.085938 16.375 461.109375 16.285156 C 474.875 16.015625 488.640625 15.007812 502.40625 15.691406 C 504.242188 16.105469 503.34375 19.886719 503.503906 21.324219 C 503.628906 34.964844 501.976562 48.027344 502.625 61.59375 C 502.820312 63.414062 500.554688 62.082031 499.582031 62.097656 C 497.925781 61.957031 496.253906 61.792969 494.597656 61.613281 C 490.511719 61.109375 486.574219 62.332031 482.523438 62.53125 C 482.324219 62.566406 482.074219 62.621094 481.875 62.621094 C 481.679688 62.621094 482.128906 62.441406 482.21875 62.441406 C 485.78125 61.433594 489.757812 60.011719 492.007812 56.933594 C 494.292969 51.878906 487.777344 52.5625 484.882812 53.820312 C 482.164062 54.6875 479.769531 56.378906 477.558594 58.085938 C 475.542969 55.421875 473.222656 51.050781 469.117188 52.167969 C 466.472656 52.742188 465.015625 56.054688 466.796875 58.230469 C 467.804688 59.5625 469.386719 60.226562 470.773438 61.019531 C 476.027344 62.871094 458.988281 62.800781 457.890625 62.960938 C 457.367188 63.035156 457.027344 62.746094 457.117188 62.207031 C 457.222656 58.25 457.0625 54.253906 457.332031 50.3125 L 457.332031 50.277344 L 457.332031 50.3125 Z M 480.582031 59.867188 C 480.6875 59.761719 481.011719 59.632812 481.175781 59.542969 C 481.910156 59.183594 482.597656 58.753906 483.242188 58.25 C 483.511719 58.03125 483.785156 57.816406 484.089844 57.65625 C 485.078125 57.1875 486.175781 56.972656 487.167969 56.558594 C 487.398438 56.46875 487.597656 56.324219 487.832031 56.25 C 488.121094 56.179688 488.121094 56.394531 487.921875 56.558594 C 486.625 57.476562 485.1875 58.285156 483.730469 58.914062 C 483.351562 59.074219 482.972656 59.074219 482.597656 59.21875 C 481.949219 59.453125 481.246094 59.761719 480.582031 59.902344 Z M 474.480469 59.382812 C 474.085938 59.292969 473.707031 58.984375 473.328125 58.804688 C 472.445312 58.320312 471.621094 57.835938 470.71875 57.277344 C 470.25 56.972656 469.695312 56.648438 469.386719 56.179688 C 469.046875 55.550781 469.929688 55.152344 470.46875 55.261719 C 472.070312 55.621094 473.542969 57.726562 474.390625 59.058594 C 474.425781 59.148438 474.570312 59.308594 474.5 59.363281 L 474.480469 59.363281 Z M 451.898438 93.15625 C 448.570312 89.34375 445.527344 85.277344 443.566406 80.5625 C 439.644531 71.148438 439.769531 60.460938 443.316406 50.980469 C 444.503906 47.324219 446.285156 43.925781 448.121094 40.578125 C 449.703125 37.679688 452.023438 35.304688 454.328125 32.984375 C 454.613281 32.695312 454.757812 32.679688 454.757812 33.148438 C 454.578125 42.792969 454.292969 52.472656 453.949219 62.097656 C 453.75 62.296875 453.480469 61.703125 453.375 61.558594 C 453.175781 61.199219 453.066406 60.355469 452.601562 60.839844 C 451.914062 61.828125 452.601562 63.25 453.425781 63.933594 C 453.660156 64.113281 453.878906 64.332031 453.914062 64.636719 C 453.96875 66.253906 453.859375 67.910156 453.859375 69.53125 C 453.789062 77.878906 453.769531 86.335938 453.75 94.667969 C 453.839844 95.441406 452.078125 93.230469 451.933594 93.191406 L 451.914062 93.191406 L 451.914062 93.15625 Z M 502.730469 109.226562 C 502.640625 110.214844 501.417969 109.855469 500.714844 109.910156 C 499.652344 109.875 498.089844 109.910156 496.972656 109.875 C 483.550781 109.695312 470 109.875 456.628906 109.28125 C 456.46875 109.191406 456.628906 108.738281 456.667969 108.488281 C 457.296875 104.90625 457.277344 101.273438 457.007812 97.65625 C 456.808594 92.976562 457.242188 88.316406 456.882812 83.636719 C 456.71875 77.464844 456.757812 71.097656 457.207031 64.996094 C 458.394531 64.652344 459.960938 65.15625 461.21875 65.285156 C 463.199219 65.789062 465.195312 65.480469 467.175781 65.175781 C 469.53125 65.050781 471.871094 64.796875 474.210938 64.707031 C 474.371094 65.789062 472.96875 68.074219 472.484375 69.171875 C 471.347656 71.421875 470.289062 73.722656 469.335938 76.027344 C 468.453125 78.691406 464.097656 78.960938 465.554688 75.34375 C 464.90625 73.597656 462.910156 76.511719 463.757812 78.023438 C 464.386719 79.535156 466.292969 79.949219 467.75 79.589844 C 472.679688 78.3125 474.515625 69.476562 476.945312 65.390625 C 478.671875 62.476562 479.175781 65.914062 478.636719 67.535156 C 478.636719 68.398438 479.339844 69.097656 479.375 69.980469 C 480.183594 73.667969 481.515625 77.339844 481.605469 81.171875 C 481.714844 81.855469 481.28125 82.523438 481.480469 83.1875 C 481.480469 84.285156 481.859375 85.382812 481.714844 86.480469 C 481.5 88.730469 481.714844 91.015625 482.324219 93.191406 C 482.542969 94.757812 482.632812 96.484375 484 97.53125 C 484.917969 98.574219 485.167969 100.589844 486.804688 100.769531 C 487.257812 100.769531 487.488281 100.300781 487.382812 99.886719 C 486.050781 97.980469 485.3125 95.765625 484.828125 93.5 C 484.429688 90.996094 484.828125 88.550781 484.863281 86.050781 C 484.933594 80.523438 484.628906 74.820312 482.273438 69.730469 C 481.425781 67.984375 481.136719 66.039062 480.308594 64.292969 C 480.308594 63.558594 481.390625 64.007812 481.804688 64.132812 C 482.363281 64.257812 482.902344 64.257812 483.40625 64.5625 C 483.746094 64.761719 484.070312 65.066406 484.484375 65.105469 C 487.671875 64.941406 490.910156 64.707031 494.113281 64.707031 C 495.425781 64.871094 496.667969 65.375 498.015625 65.050781 C 499.367188 65.105469 500.660156 65.464844 502.03125 65.320312 C 502.425781 65.285156 502.660156 65.519531 502.625 65.949219 C 502.585938 68.992188 502.570312 72.050781 502.625 75.089844 C 502.300781 79.878906 502.585938 84.628906 502.675781 89.433594 C 502.675781 96.019531 502.785156 102.515625 502.675781 109.191406 L 502.675781 109.226562 Z M 410.582031 25.605469 C 410.257812 24.292969 409.738281 22.925781 408.839844 21.902344 C 408.101562 21.164062 406.300781 19.453125 406.050781 21.488281 C 405.113281 25.929688 404.195312 30.394531 403.261719 34.855469 C 403.207031 35.089844 403.152344 35.269531 403.078125 35.035156 C 402.882812 34.136719 402.558594 32.28125 402.433594 31.222656 C 402.433594 30.988281 402.394531 30.808594 402.433594 30.699219 C 402.46875 30.5 402.59375 30.449219 402.578125 30.25 C 402.449219 29.0625 402.019531 25.5 401.585938 23.753906 C 401.207031 22.367188 400.488281 20.765625 399.050781 20.40625 C 398.078125 20.136719 397.160156 20.675781 396.765625 21.578125 C 396.546875 22.007812 396.457031 22.496094 396.402344 22.960938 C 396.0625 25.695312 396.441406 28.757812 395.773438 31.382812 C 395.71875 31.402344 395.683594 31.167969 395.667969 31.078125 C 395.46875 29.835938 395.214844 28.578125 395.035156 27.335938 C 394.730469 25.515625 394.570312 23.574219 393.417969 22.042969 C 392.609375 20.910156 391.058594 20.300781 389.691406 20.550781 C 388.738281 21 388.308594 23.539062 387.945312 24.816406 C 387.300781 27.605469 387.441406 30.5 387.695312 33.328125 C 387.984375 37.015625 388.359375 40.6875 388.449219 44.394531 C 388.59375 48.855469 389.0625 54.109375 392.554688 57.1875 C 393.5625 58.085938 394.765625 58.894531 396.132812 59.023438 C 396.726562 59.023438 397.035156 59.21875 396.945312 59.851562 C 396.78125 62.765625 396.621094 65.679688 396.476562 68.59375 C 396.3125 74.660156 395.449219 80.542969 394.929688 86.515625 C 394.515625 94.777344 394.316406 103.109375 394.480469 111.347656 C 394.695312 114.175781 396.152344 117.285156 398.960938 118.1875 C 403.925781 119.894531 408.046875 115.019531 408.40625 110.378906 C 409.109375 93.066406 406.011719 75.773438 405.238281 58.625 C 408.890625 57.1875 409.46875 53.804688 409.988281 50.332031 C 410.835938 45.816406 410.78125 41.261719 411.015625 36.726562 C 411.25 33.058594 411.339844 29.261719 410.601562 25.644531 L 410.601562 25.605469 Z M 407.542969 40.8125 C 407.363281 43.816406 407.09375 46.804688 406.785156 49.792969 C 406.625 52.238281 406.011719 56.070312 402.757812 55.550781 C 402.34375 55.566406 401.550781 55.386719 401.605469 56 C 401.660156 56.664062 401.730469 57.242188 401.785156 57.886719 C 402.9375 69.566406 404.160156 81.515625 404.808594 93.246094 C 405.09375 98.824219 405.597656 104.386719 405.203125 109.964844 C 405.023438 114.605469 399.949219 118.1875 397.71875 112.5 C 397.179688 110.863281 397.214844 109.101562 397.230469 107.390625 C 397.230469 102.332031 397.320312 97.078125 397.5 92.042969 C 397.824219 81.335938 398.417969 70.484375 398.257812 59.761719 C 398.167969 58.984375 397.574219 54.503906 397.105469 57.4375 C 397 59.707031 393.148438 55.875 392.699219 55.117188 C 391.742188 53.875 391.148438 52.398438 390.808594 50.890625 C 390.015625 46.625 390.214844 42.214844 390.015625 37.914062 C 389.65625 35.199219 389.53125 32.425781 389.726562 29.691406 C 389.855469 28.125 389.820312 26.453125 390.375 24.976562 C 390.753906 23.644531 391.546875 23.878906 391.976562 25.101562 C 392.464844 26.613281 392.554688 28.234375 392.878906 29.800781 C 393.632812 32.714844 393.398438 35.828125 394.480469 38.6875 C 394.585938 38.957031 394.605469 39.230469 394.765625 39.460938 C 395.109375 39.839844 395.449219 40.398438 396.007812 40.453125 C 397.449219 40.558594 397.160156 38.023438 397.59375 37.015625 C 398.546875 33.363281 398.597656 29.492188 398.960938 25.769531 C 398.960938 25.734375 398.996094 25.839844 399.03125 26.019531 C 399.03125 26.09375 399.03125 26.164062 399.066406 26.238281 C 399.75 29.261719 398.996094 41.425781 403.636719 40.777344 C 406.390625 39.875 406.914062 32.300781 407.578125 29.621094 C 407.613281 29.476562 407.632812 29.242188 407.6875 29.1875 C 408.011719 32.964844 407.742188 36.925781 407.542969 40.777344 Z M 566.304688 62.152344 C 566.125 49.664062 565.835938 37.285156 566.179688 24.78125 C 566.089844 21.902344 566.414062 18.589844 566.105469 15.820312 C 563.894531 17.417969 561.859375 19.453125 560.132812 21.558594 C 552.324219 31.761719 552.429688 45.257812 551.277344 57.457031 C 551.082031 61.9375 551.046875 66.453125 551.40625 70.917969 C 551.511719 74.605469 553.042969 78.042969 557.269531 77.753906 C 558.65625 88.890625 555.488281 100.550781 557.558594 111.78125 C 557.9375 116.421875 561.375 120.832031 565.960938 117.25 C 566.84375 115.683594 566.574219 114.15625 566.734375 112.375 C 566.84375 110.054688 566.953125 107.730469 567.023438 105.429688 C 567.601562 91.015625 566.71875 76.566406 566.320312 62.171875 L 566.320312 62.136719 Z M 564.992188 112.5 C 564.8125 113.8125 565.117188 115.253906 564.503906 116.460938 C 562.453125 118.292969 560.148438 116.371094 559.734375 114.046875 C 558.675781 109.421875 558.945312 104.710938 559.609375 100.085938 C 559.753906 98.808594 559.84375 97.511719 559.863281 96.214844 C 559.699219 90.996094 560.5625 85.761719 560.457031 80.488281 C 560.511719 78.4375 560.707031 76.367188 560.636719 74.316406 C 560.636719 73.957031 560.492188 73.632812 560.097656 73.757812 C 558.675781 74.171875 557.234375 74.820312 555.777344 74.390625 C 554.714844 73.796875 554.824219 72.175781 554.625 71.113281 C 554.265625 67.28125 554.285156 63.449219 554.464844 59.597656 C 554.769531 54.089844 555.253906 48.53125 555.902344 43.0625 C 556.460938 36.386719 558.207031 29.636719 562.128906 24.132812 C 563.101562 23.214844 562.886719 25.355469 562.8125 25.859375 C 562.667969 28.035156 562.652344 30.230469 562.8125 32.410156 C 563.066406 36.042969 562.847656 39.769531 562.8125 43.421875 C 562.777344 48.136719 563.246094 52.851562 563.101562 57.546875 C 563.660156 67.585938 564.578125 77.59375 564.488281 87.652344 C 564.578125 92.042969 564.757812 96.394531 565.261719 100.75 C 565.40625 104.636719 565.1875 108.558594 564.972656 112.429688 L 564.972656 112.5 Z M 564.992188 112.5 " fill-opacity="1" fill-rule="nonzero"/></g><g clip-path="url(#64baf5d4a0)"><path fill="#4a4a35" d="M 577.472656 352.648438 C 589.347656 359.488281 589.746094 361.476562 590.816406 366.789062 C 591.054688 367.984375 591.328125 369.335938 591.753906 370.925781 C 591.914062 371.527344 592.457031 371.941406 593.074219 371.941406 C 593.101562 371.941406 593.132812 371.9375 593.164062 371.9375 C 593.8125 371.894531 594.34375 371.398438 594.429688 370.75 C 595.839844 360.03125 596.421875 355.59375 605.636719 351.765625 C 606.210938 351.527344 606.550781 350.933594 606.46875 350.316406 C 606.382812 349.699219 605.894531 349.21875 605.277344 349.144531 C 597.355469 348.179688 594.710938 340.945312 591.578125 330.015625 C 591.40625 329.417969 590.851562 329.015625 590.230469 329.027344 C 589.605469 329.042969 589.070312 329.476562 588.929688 330.082031 C 588.296875 332.785156 587.957031 335.195312 587.660156 337.320312 C 586.683594 344.230469 586.195312 347.699219 577.773438 350.148438 C 577.25 350.300781 576.863281 350.753906 576.800781 351.296875 C 576.734375 351.84375 577 352.375 577.472656 352.648438 Z M 590.367188 337.703125 C 590.433594 337.226562 590.503906 336.734375 590.578125 336.230469 C 592.671875 342.703125 595.4375 348.539062 601.160156 350.890625 C 595.761719 353.945312 593.902344 357.6875 592.796875 363.261719 C 591.632812 359.296875 589.464844 356.65625 581.40625 351.789062 C 588.808594 348.753906 589.476562 344.011719 590.367188 337.703125 Z M 632.363281 461.839844 C 625.847656 458.273438 625.636719 457.316406 625.007812 454.476562 C 624.859375 453.804688 624.6875 453.039062 624.429688 452.136719 C 624.246094 451.511719 623.648438 451.101562 623 451.15625 C 622.347656 451.210938 621.828125 451.714844 621.753906 452.363281 C 621.058594 458.453125 620.828125 460.503906 615.996094 462.597656 C 615.425781 462.847656 615.09375 463.449219 615.1875 464.0625 C 615.285156 464.675781 615.78125 465.152344 616.398438 465.214844 C 620.515625 465.636719 621.941406 469.320312 623.796875 475.339844 C 623.976562 475.914062 624.507812 476.300781 625.105469 476.300781 C 625.125 476.300781 625.144531 476.300781 625.164062 476.300781 C 625.785156 476.273438 626.3125 475.832031 626.441406 475.222656 C 626.777344 473.679688 626.945312 472.316406 627.09375 471.113281 C 627.566406 467.277344 627.765625 465.6875 632.109375 464.347656 C 632.632812 464.1875 633.011719 463.726562 633.066406 463.179688 C 633.121094 462.632812 632.84375 462.105469 632.363281 461.839844 Z M 624.578125 469.269531 C 623.53125 466.863281 622.144531 464.734375 619.992188 463.519531 C 621.945312 462.132812 622.933594 460.523438 623.519531 458.496094 C 624.332031 459.839844 625.746094 461.109375 628.601562 462.839844 C 625.667969 464.445312 624.96875 466.640625 624.578125 469.269531 Z M 704.320312 388.507812 C 703.457031 385.128906 700.34375 382.902344 696.902344 383.210938 C 694.359375 383.441406 692.648438 384.726562 691.589844 385.667969 C 690.574219 382.625 688.445312 380.671875 685.617188 380.238281 C 682.515625 379.769531 679.179688 381.335938 677.675781 383.96875 C 676.234375 386.488281 676.65625 389.460938 678.828125 392.125 C 682.445312 396.566406 685.007812 400.496094 686.445312 403.808594 C 686.613281 404.191406 686.949219 404.480469 687.355469 404.585938 C 687.46875 404.617188 687.585938 404.628906 687.699219 404.628906 C 687.996094 404.628906 688.289062 404.53125 688.53125 404.347656 C 691.125 402.359375 693.871094 401.097656 696.933594 399.765625 C 703.753906 396.796875 705.175781 391.847656 704.320312 388.507812 Z M 695.839844 397.257812 C 693.226562 398.394531 690.671875 399.558594 688.242188 401.191406 C 686.644531 397.992188 684.246094 394.441406 680.949219 390.398438 C 679.488281 388.605469 679.175781 386.851562 680.050781 385.328125 C 680.886719 383.859375 682.710938 382.890625 684.492188 382.890625 C 684.730469 382.890625 684.96875 382.910156 685.203125 382.945312 C 687.238281 383.253906 688.675781 384.855469 689.246094 387.457031 C 689.320312 387.796875 689.546875 388.824219 690.535156 389.132812 C 691.539062 389.445312 692.265625 388.769531 692.964844 388.113281 C 693.867188 387.273438 695.105469 386.121094 697.148438 385.9375 C 699.273438 385.742188 701.132812 387.082031 701.671875 389.1875 C 702.285156 391.59375 701.078125 394.976562 695.839844 397.257812 Z M 686.160156 420.007812 C 685.183594 420.21875 684.390625 421.195312 680.773438 426.074219 C 676.710938 431.550781 670.175781 440.363281 663.652344 445.660156 C 663.171875 442.148438 661.1875 438.957031 658.25 437.226562 C 653.496094 434.425781 647.914062 436.023438 645.472656 439.109375 C 643.59375 441.480469 642.980469 445.472656 646.898438 449.5625 C 649.816406 452.605469 654.996094 455.0625 663.117188 449.480469 C 670.683594 444.277344 678.375 433.902344 682.96875 427.703125 C 683.492188 427 684.015625 426.289062 684.511719 425.632812 C 684.066406 427.910156 683.195312 430.867188 681.320312 434.417969 C 679 438.800781 678.996094 442.039062 678.992188 444.894531 C 678.988281 447.585938 678.984375 450.125 677.082031 453.625 C 676.722656 454.289062 676.96875 455.117188 677.628906 455.480469 C 677.839844 455.59375 678.0625 455.644531 678.28125 455.644531 C 678.769531 455.644531 679.238281 455.386719 679.484375 454.929688 C 681.722656 450.824219 681.726562 447.8125 681.726562 444.898438 C 681.730469 442.113281 681.734375 439.480469 683.738281 435.695312 C 687.03125 429.464844 687.46875 424.90625 687.707031 422.460938 C 687.738281 422.097656 687.769531 421.785156 687.804688 421.535156 C 687.867188 421.09375 687.710938 420.644531 687.378906 420.339844 C 687.050781 420.035156 686.597656 419.914062 686.160156 420.007812 Z M 648.875 447.667969 C 646.546875 445.238281 646.085938 442.738281 647.617188 440.804688 C 648.703125 439.433594 650.695312 438.492188 652.894531 438.492188 C 654.195312 438.492188 655.566406 438.820312 656.863281 439.585938 C 659.507812 441.140625 661.128906 444.300781 661.023438 447.589844 C 655.960938 450.886719 651.980469 450.910156 648.875 447.667969 Z M 613.5 429.527344 C 610.75 421.980469 607.757812 414.453125 604.351562 406.515625 L 604.347656 406.507812 C 602.867188 403.054688 601.734375 400.617188 600.785156 398.605469 C 600.632812 398.273438 600.351562 398.027344 600.019531 397.90625 C 600.007812 397.902344 599.996094 397.894531 599.980469 397.890625 C 599.898438 397.863281 599.816406 397.84375 599.730469 397.832031 C 599.71875 397.828125 599.710938 397.828125 599.703125 397.828125 C 599.648438 397.824219 599.597656 397.816406 599.542969 397.816406 C 599.523438 397.816406 599.503906 397.824219 599.484375 397.824219 C 599.46875 397.824219 599.449219 397.820312 599.429688 397.824219 C 596.90625 398.03125 592.589844 398.328125 586.351562 398.558594 C 585.601562 398.589844 577.871094 399.191406 570.753906 399.878906 C 570.75 399.878906 570.746094 399.882812 570.742188 399.882812 C 570.695312 399.886719 570.652344 399.898438 570.605469 399.910156 C 570.558594 399.917969 570.511719 399.925781 570.46875 399.941406 C 570.460938 399.941406 570.457031 399.941406 570.453125 399.945312 C 570.421875 399.953125 570.394531 399.972656 570.363281 399.984375 C 570.316406 400.003906 570.265625 400.023438 570.21875 400.050781 C 570.179688 400.070312 570.144531 400.097656 570.109375 400.121094 C 570.074219 400.148438 570.035156 400.171875 570 400.199219 C 569.964844 400.230469 569.9375 400.265625 569.902344 400.296875 C 569.875 400.328125 569.84375 400.355469 569.816406 400.390625 C 569.789062 400.425781 569.769531 400.460938 569.746094 400.5 C 569.71875 400.535156 569.695312 400.570312 569.675781 400.613281 C 569.65625 400.648438 569.640625 400.6875 569.625 400.726562 C 569.609375 400.769531 569.589844 400.8125 569.574219 400.855469 C 569.5625 400.898438 569.558594 400.941406 569.546875 400.988281 C 569.539062 401.03125 569.53125 401.070312 569.527344 401.113281 C 569.519531 401.167969 569.523438 401.222656 569.523438 401.273438 C 569.527344 401.308594 569.523438 401.339844 569.523438 401.371094 C 569.523438 401.378906 569.527344 401.382812 569.527344 401.386719 C 569.53125 401.425781 569.542969 401.460938 569.550781 401.496094 C 569.558594 401.550781 569.566406 401.601562 569.585938 401.652344 C 569.585938 401.660156 569.585938 401.667969 569.589844 401.675781 C 570.511719 404.429688 571.355469 407.109375 572.246094 410.109375 L 573.222656 413.402344 C 574.9375 419.183594 576.707031 425.136719 578.976562 431.652344 C 576.972656 430.902344 574.546875 430.632812 572.296875 431.078125 C 569.945312 431.546875 564.53125 433.527344 565.058594 441.789062 C 565.066406 441.875 565.078125 441.960938 565.101562 442.042969 C 565.871094 445.011719 567.832031 447.03125 570.617188 447.726562 C 571.3125 447.898438 572.039062 447.984375 572.777344 447.984375 C 575.792969 447.984375 579.023438 446.59375 581.191406 444.238281 C 583.53125 441.695312 584.25 438.410156 583.164062 435.226562 C 583.164062 435.222656 583.160156 435.214844 583.15625 435.207031 C 583.15625 435.203125 583.15625 435.199219 583.152344 435.195312 C 580.09375 426.953125 577.933594 419.667969 575.847656 412.625 L 575.332031 410.886719 C 576.410156 410.757812 577.5625 410.613281 578.785156 410.457031 C 585.773438 409.578125 594.40625 408.492188 602.191406 408.421875 C 604.644531 414.167969 606.882812 419.707031 608.972656 425.203125 C 606.617188 424.207031 603.828125 424.144531 601.078125 425.058594 C 597.957031 426.097656 595.753906 428.441406 595.183594 431.328125 C 594.792969 433.296875 595.457031 435.480469 596.957031 437.167969 C 597.410156 437.675781 597.914062 438.113281 598.460938 438.464844 C 599.902344 439.390625 601.566406 439.78125 603.257812 439.78125 C 605.6875 439.78125 608.167969 438.976562 610.089844 437.832031 C 612.773438 436.226562 614.277344 434.027344 614.113281 431.941406 C 614.050781 431.101562 613.835938 430.289062 613.5 429.527344 Z M 579.179688 442.386719 C 577.160156 444.582031 573.835938 445.710938 571.277344 445.070312 C 569.496094 444.625 568.320312 443.417969 567.78125 441.480469 C 567.480469 435.996094 570.355469 434.253906 572.832031 433.761719 C 576.355469 433.0625 580.09375 434.703125 580.574219 436.109375 L 580.578125 436.113281 C 581.601562 439.132812 580.140625 441.339844 579.179688 442.386719 Z M 578.441406 407.742188 C 577.050781 407.917969 575.742188 408.082031 574.539062 408.226562 C 573.929688 406.214844 573.339844 404.328125 572.722656 402.441406 C 579.523438 401.804688 585.898438 401.316406 586.453125 401.292969 C 592.027344 401.085938 596.082031 400.828125 598.710938 400.625 C 599.371094 402.035156 600.125 403.675781 601.015625 405.703125 C 593.390625 405.863281 585.164062 406.894531 578.441406 407.742188 Z M 608.6875 435.480469 C 606.234375 436.945312 602.453125 437.78125 599.945312 436.164062 C 599.605469 435.949219 599.289062 435.671875 599.003906 435.351562 C 598.082031 434.3125 597.644531 432.976562 597.867188 431.859375 C 598.246094 429.949219 599.769531 428.378906 601.945312 427.652344 C 604.511719 426.800781 607.074219 427.035156 608.980469 428.296875 C 610.390625 429.230469 611.269531 430.636719 611.386719 432.152344 C 611.464844 433.148438 610.40625 434.457031 608.6875 435.480469 Z M 662.316406 368.390625 C 662.4375 360.019531 654.703125 354.332031 647.109375 353.628906 C 647.507812 350.691406 647.90625 347.828125 648.316406 345.125 C 652.972656 342.480469 657.511719 339.378906 661.257812 334.660156 C 664.25 330.886719 664.082031 326.753906 662.925781 324.144531 C 661.898438 321.828125 660.003906 320.355469 657.847656 320.210938 C 656.316406 320.113281 653.320312 320.636719 650.449219 325.316406 C 648.511719 328.46875 647.109375 335.054688 645.8125 343.390625 C 644.636719 344.039062 643.453125 344.664062 642.28125 345.289062 C 636.363281 348.425781 630.769531 351.394531 626.695312 356.617188 C 622.6875 361.753906 621.722656 368.632812 624.050781 375.492188 C 626.480469 382.65625 631.929688 388.488281 638.230469 390.832031 C 636.316406 398.414062 633.949219 404.070312 630.863281 405.5 C 629.632812 406.074219 628.269531 405.863281 626.707031 404.863281 C 624.867188 403.691406 624.871094 402.125 625.195312 401.015625 C 625.671875 399.402344 627.109375 398.042969 628.332031 398.042969 L 628.347656 398.042969 C 629.101562 398.042969 629.710938 397.4375 629.714844 396.683594 C 629.71875 395.929688 629.109375 395.3125 628.355469 395.308594 L 628.332031 395.308594 C 625.878906 395.308594 623.402344 397.425781 622.574219 400.242188 C 621.761719 403 622.753906 405.585938 625.234375 407.171875 C 626.683594 408.097656 628.09375 408.558594 629.457031 408.558594 C 630.332031 408.558594 631.1875 408.367188 632.015625 407.984375 C 635.941406 406.160156 638.714844 399.980469 640.867188 391.585938 C 644.972656 392.363281 649.457031 391.164062 653.304688 388.234375 C 658.910156 383.964844 662.195312 376.730469 662.316406 368.390625 Z M 652.777344 326.746094 C 654.273438 324.3125 655.984375 322.9375 657.5 322.9375 C 657.554688 322.9375 657.609375 322.9375 657.667969 322.941406 C 658.785156 323.019531 659.816406 323.878906 660.421875 325.25 C 661.253906 327.132812 661.347656 330.140625 659.113281 332.957031 C 656.164062 336.675781 652.601562 339.355469 648.867188 341.625 C 650 334.742188 651.238281 329.253906 652.777344 326.746094 Z M 649.03125 366.402344 C 650.90625 368.058594 651.152344 371.351562 650.121094 373.183594 C 648.273438 376.464844 645.761719 377.183594 643.773438 377.132812 C 644.386719 373.390625 644.949219 369.5 645.496094 365.558594 C 646.914062 365.3125 648.113281 365.585938 649.03125 366.402344 Z M 638.871094 388.144531 C 633.515625 386.003906 628.738281 380.792969 626.640625 374.613281 C 625.453125 371.105469 624.15625 364.320312 628.855469 358.296875 C 632.570312 353.535156 637.910156 350.703125 643.5625 347.703125 C 644.140625 347.398438 644.722656 347.089844 645.304688 346.777344 C 644.984375 348.964844 644.667969 351.25 644.351562 353.597656 C 638.84375 353.992188 632.988281 357.152344 631.707031 365.265625 C 630.683594 371.769531 635.339844 377.488281 640.433594 379.257812 C 640.496094 379.277344 640.554688 379.300781 640.617188 379.320312 C 640.078125 382.398438 639.5 385.371094 638.871094 388.144531 Z M 634.410156 365.691406 C 635.394531 359.453125 639.617188 356.847656 643.976562 356.371094 C 643.917969 356.8125 643.292969 361.488281 643.027344 363.425781 C 641.789062 363.902344 640.414062 364.65625 638.890625 365.777344 C 638.28125 366.226562 638.152344 367.082031 638.601562 367.691406 C 639.046875 368.300781 639.90625 368.429688 640.511719 367.980469 C 641.226562 367.457031 641.914062 367.015625 642.578125 366.652344 C 642.109375 369.972656 641.613281 373.316406 641.078125 376.582031 C 637.148438 375.082031 633.628906 370.675781 634.410156 365.691406 Z M 641.511719 388.921875 C 642.164062 386.082031 642.761719 383.039062 643.3125 379.855469 C 647.0625 380.101562 650.429688 378.207031 652.503906 374.527344 C 654.277344 371.378906 653.519531 366.71875 650.847656 364.351562 C 649.890625 363.507812 648.265625 362.5625 645.878906 362.742188 L 646.742188 356.34375 L 646.753906 356.34375 C 653.136719 356.890625 659.679688 361.53125 659.582031 368.351562 C 659.472656 375.847656 656.578125 382.300781 651.648438 386.058594 C 648.464844 388.480469 644.820312 389.5 641.511719 388.921875 Z M 641.511719 388.921875 " fill-opacity="1" fill-rule="nonzero"/></g><g clip-path="url(#3551a7d250)"><path fill="#cfa518" d="M 326.152344 225.472656 C 322.339844 226.488281 318.875 227.441406 316.128906 229.921875 C 315.519531 230.472656 314.871094 231.710938 315.105469 232.265625 C 315.390625 232.933594 316.554688 233.503906 317.402344 233.621094 C 321.578125 234.191406 325.671875 230.539062 326.152344 225.472656 Z M 401.691406 225.359375 C 401.925781 230.496094 406.308594 234.382812 410.546875 233.585938 C 411.363281 233.429688 412.335938 232.761719 412.71875 232.054688 C 412.933594 231.652344 412.265625 230.503906 411.710938 229.996094 C 408.976562 227.46875 405.464844 226.578125 401.691406 225.359375 Z M 181.144531 200.445312 C 180.421875 200.503906 179.691406 200.507812 178.972656 200.621094 C 173.886719 201.40625 169.519531 205.582031 168.878906 210.238281 C 168.3125 214.402344 171.207031 218.824219 176.035156 220.921875 C 176.8125 221.265625 178.089844 221.503906 178.671875 221.109375 C 182.941406 218.230469 186.675781 214.796875 188.296875 209.699219 C 190.007812 204.332031 186.832031 200.3125 181.144531 200.445312 Z M 546.792969 200.164062 C 540.84375 200.273438 537.628906 204.433594 539.515625 209.957031 C 541.183594 214.867188 544.832031 218.230469 548.976562 221.066406 C 549.527344 221.441406 550.648438 221.425781 551.289062 221.128906 C 555.335938 219.285156 558.445312 216.5625 558.863281 211.785156 C 559.207031 207.847656 556.550781 203.78125 552.269531 201.832031 C 550.542969 201.046875 548.625 200.699219 546.792969 200.164062 Z M 0.03125 231.800781 C 7.257812 226.660156 15.246094 223.546875 23.769531 221.636719 C 39.609375 218.082031 55.53125 218.269531 71.378906 221.164062 C 83.964844 223.46875 96.429688 226.472656 108.929688 229.242188 C 120.4375 231.785156 132.015625 233.429688 143.847656 232.425781 C 153.082031 231.648438 162.003906 229.65625 170.488281 225.863281 C 171.484375 225.417969 172.449219 224.902344 173.402344 224.390625 C 173.597656 224.285156 173.714844 224.042969 174.066406 223.628906 C 173.136719 222.945312 172.203125 222.277344 171.289062 221.578125 C 163.175781 215.410156 163.496094 205.414062 172.011719 199.777344 C 175.945312 197.171875 180.191406 196.277344 184.808594 197.679688 C 189.996094 199.257812 192.75 203.960938 191.585938 209.277344 C 190.695312 213.335938 188.328125 216.515625 185.507812 219.40625 C 184.417969 220.527344 183.238281 221.546875 181.441406 223.230469 C 184.894531 223.714844 187.671875 224.308594 190.476562 224.457031 C 203.300781 225.136719 215.78125 222.878906 228.132812 219.714844 C 240.191406 216.628906 252.167969 213.144531 264.320312 210.484375 C 278.726562 207.328125 293.316406 206.617188 307.953125 209.238281 C 316.957031 210.855469 322.804688 213.9375 328.671875 220.378906 C 333.800781 219.316406 338.980469 218.195312 344.183594 217.179688 C 361.523438 213.792969 378.640625 215.324219 395.578125 219.734375 C 397.929688 220.347656 399.382812 220.28125 401.191406 218.21875 C 406.046875 212.675781 412.832031 210.566406 419.808594 209.277344 C 435.539062 206.363281 451.191406 207.550781 466.636719 211.132812 C 478.640625 213.925781 490.472656 217.464844 502.460938 220.371094 C 513.523438 223.050781 524.71875 225.136719 536.199219 224.507812 C 539.304688 224.332031 542.386719 223.808594 545.480469 223.441406 C 545.609375 223.140625 545.746094 222.835938 545.875 222.53125 C 544.996094 221.816406 543.976562 221.207031 543.265625 220.347656 C 541.257812 217.941406 538.976562 215.652344 537.535156 212.929688 C 533.214844 204.777344 537.726562 197.320312 546.933594 196.976562 C 553.023438 196.746094 559.921875 201.578125 561.761719 207.363281 C 563.164062 211.820312 562.15625 215.773438 559.027344 219.117188 C 557.484375 220.769531 555.632812 222.128906 553.640625 223.863281 C 554.75 224.492188 555.714844 225.15625 556.765625 225.625 C 571.410156 232.203125 586.855469 234.269531 602.539062 231.914062 C 616.136719 229.867188 629.503906 226.292969 642.980469 223.492188 C 658.433594 220.28125 673.988281 218.09375 689.824219 219.464844 C 699.632812 220.3125 709.210938 222.304688 718.304688 226.214844 C 721.59375 227.625 724.78125 229.269531 728.019531 230.8125 C 727.914062 231.070312 727.808594 231.332031 727.710938 231.585938 C 724.597656 230.683594 721.429688 229.925781 718.371094 228.855469 C 696.90625 221.324219 675.078125 220.273438 652.925781 225.113281 C 640.175781 227.898438 627.496094 231.046875 614.699219 233.570312 C 596.234375 237.21875 577.886719 237.019531 560.003906 230.304688 C 557.070312 229.210938 554.328125 227.601562 551.445312 226.355469 C 550.417969 225.910156 549.105469 225.429688 548.109375 225.6875 C 536.570312 228.703125 524.992188 227.964844 513.554688 225.59375 C 501.371094 223.066406 489.335938 219.839844 477.222656 216.945312 C 462.832031 213.496094 448.324219 210.886719 433.425781 211.542969 C 425.894531 211.871094 418.46875 212.792969 411.457031 215.804688 C 408.441406 217.097656 405.578125 218.632812 403.238281 221.84375 C 404.59375 222.351562 405.824219 222.667969 406.921875 223.25 C 409.570312 224.660156 412.429688 225.867188 414.699219 227.761719 C 418.34375 230.792969 417.09375 235.550781 412.539062 237.054688 C 406.460938 239.066406 398.460938 233.839844 397.65625 227.304688 C 397.539062 226.355469 397.550781 225.390625 397.496094 224.257812 C 375.101562 217.1875 352.792969 217.191406 330.253906 224.242188 C 330.175781 225.441406 330.175781 226.636719 330 227.804688 C 329.179688 233.40625 322.105469 238.429688 316.472656 237.394531 C 313.949219 236.933594 311.851562 235.792969 311.152344 233.101562 C 310.484375 230.535156 311.609375 228.585938 313.660156 227.160156 C 315.238281 226.066406 316.871094 225.015625 318.589844 224.167969 C 320.3125 223.3125 322.171875 222.730469 324.152344 221.964844 C 323.503906 219.734375 321.652344 218.746094 319.984375 217.71875 C 314.625 214.40625 308.609375 213.019531 302.457031 212.234375 C 287.117188 210.28125 272.011719 212.03125 257.074219 215.515625 C 244.476562 218.449219 232.023438 222.039062 219.371094 224.679688 C 211.707031 226.28125 203.8125 227.054688 195.992188 227.378906 C 190.75 227.59375 185.453125 226.320312 180.167969 225.832031 C 178.949219 225.714844 177.480469 225.71875 176.46875 226.277344 C 162.34375 234.09375 147.074219 236.175781 131.207031 235.769531 C 117.761719 235.429688 104.988281 231.667969 92.046875 228.609375 C 78.984375 225.519531 65.859375 222.753906 52.351562 222.273438 C 37.773438 221.753906 23.664062 223.957031 9.898438 228.707031 C 6.644531 229.828125 3.320312 230.773438 0.03125 231.800781 " fill-opacity="1" fill-rule="nonzero"/></g><g clip-path="url(#f867eb6e07)"><g clip-path="url(#cd1f955878)"><g clip-path="url(#1b2420d9ba)"><path fill="#cfa518" d="M 133.820312 164.347656 C 133.527344 164.148438 133.339844 164.59375 133.15625 164.789062 C 129.828125 168.390625 124.671875 175.378906 122.34375 179.664062 C 114.265625 194.535156 113.089844 217.132812 127.195312 228.757812 C 129.097656 230.328125 133.066406 232.441406 134.4375 234.050781 C 135.835938 235.691406 133.660156 235.988281 132.1875 235.246094 C 109.371094 223.667969 108.976562 194.996094 120.917969 175.25 C 123.566406 170.871094 126.988281 166.96875 129.941406 162.804688 C 127.742188 163.824219 125.339844 165.222656 123.300781 166.59375 C 121.949219 167.503906 119.3125 169.257812 118.484375 170.59375 C 117.90625 171.527344 118.027344 173.523438 116.679688 172.519531 C 115.449219 171.605469 115.796875 169.683594 116.457031 168.539062 C 118.824219 164.421875 128.5625 159.734375 132.742188 157.0625 C 134.757812 155.773438 134.972656 154.152344 137.625 156.242188 C 139.597656 157.792969 138.359375 159.175781 137.925781 160.921875 C 136.542969 166.5 135.332031 172.734375 134.414062 178.414062 C 134.246094 179.441406 134.289062 181.480469 134.066406 182.238281 C 133.871094 182.910156 133.023438 183.476562 132.5 182.796875 C 130.582031 180.316406 133.417969 167.703125 133.8125 164.347656 Z M 133.820312 164.347656 " fill-opacity="1" fill-rule="nonzero"/></g></g></g><g clip-path="url(#a71b5c39c4)"><g clip-path="url(#726e90e2aa)"><g clip-path="url(#0234631219)"><path fill="#cfa518" d="M 481.589844 145.351562 C 481.296875 145.148438 481.109375 145.597656 480.925781 145.789062 C 477.59375 149.394531 472.441406 156.382812 470.109375 160.667969 C 462.035156 175.539062 460.859375 198.136719 474.960938 209.761719 C 476.863281 211.332031 480.832031 213.445312 482.207031 215.054688 C 483.605469 216.695312 481.429688 216.992188 479.957031 216.246094 C 457.140625 204.671875 456.746094 175.996094 468.6875 156.253906 C 471.332031 151.871094 474.753906 147.972656 477.710938 143.808594 C 475.511719 144.824219 473.105469 146.226562 471.070312 147.597656 C 469.714844 148.507812 467.082031 150.257812 466.253906 151.597656 C 465.675781 152.53125 465.796875 154.527344 464.445312 153.523438 C 463.21875 152.605469 463.566406 150.6875 464.222656 149.542969 C 466.59375 145.421875 476.332031 140.738281 480.507812 138.066406 C 482.527344 136.777344 482.738281 135.15625 485.394531 137.246094 C 487.363281 138.796875 486.128906 140.179688 485.695312 141.925781 C 484.308594 147.503906 483.097656 153.738281 482.179688 159.417969 C 482.015625 160.445312 482.058594 162.480469 481.835938 163.242188 C 481.636719 163.914062 480.792969 164.476562 480.269531 163.800781 C 478.351562 161.316406 481.1875 148.707031 481.582031 145.351562 Z M 481.589844 145.351562 " fill-opacity="1" fill-rule="nonzero"/></g></g></g><g clip-path="url(#b29c25c7db)"><g clip-path="url(#4e1b7408b2)"><g clip-path="url(#0d120c6f28)"><path fill="#cfa518" d="M 265.152344 287.933594 C 265.46875 288.160156 265.6875 287.679688 265.890625 287.472656 C 269.632812 283.644531 275.472656 276.175781 278.144531 271.570312 C 287.410156 255.59375 289.382812 230.976562 274.351562 217.863281 C 272.324219 216.09375 268.058594 213.667969 266.609375 211.867188 C 265.132812 210.035156 267.515625 209.777344 269.097656 210.632812 C 293.636719 223.960938 293.191406 255.257812 279.5625 276.433594 C 276.542969 281.132812 272.691406 285.28125 269.339844 289.734375 C 271.769531 288.691406 274.433594 287.234375 276.699219 285.804688 C 278.203125 284.851562 281.132812 283.019531 282.074219 281.585938 C 282.734375 280.585938 282.664062 278.40625 284.105469 279.539062 C 285.417969 280.578125 284.980469 282.664062 284.226562 283.890625 C 281.519531 288.3125 270.75 293.125 266.109375 295.914062 C 263.871094 297.257812 263.585938 299.019531 260.757812 296.660156 C 258.652344 294.910156 260.046875 293.4375 260.570312 291.542969 C 262.253906 285.5 263.761719 278.734375 264.9375 272.566406 C 265.152344 271.453125 265.164062 269.230469 265.433594 268.40625 C 265.667969 267.679688 266.609375 267.089844 267.15625 267.84375 C 269.175781 270.613281 265.695312 284.28125 265.164062 287.933594 Z M 265.152344 287.933594 " fill-opacity="1" fill-rule="nonzero"/></g></g></g><g clip-path="url(#b3eaa9ec18)"><g clip-path="url(#a98f563f7e)"><g clip-path="url(#7991b75671)"><path fill="#cfa518" d="M 629.4375 304.023438 C 629.75 304.253906 629.96875 303.773438 630.171875 303.566406 C 633.914062 299.738281 639.753906 292.269531 642.425781 287.664062 C 651.691406 271.6875 653.664062 247.070312 638.632812 233.953125 C 636.605469 232.1875 632.339844 229.761719 630.890625 227.960938 C 629.414062 226.128906 631.796875 225.871094 633.378906 226.726562 C 657.917969 240.050781 657.476562 271.347656 643.84375 292.527344 C 640.824219 297.222656 636.972656 301.375 633.621094 305.828125 C 636.050781 304.785156 638.71875 303.328125 640.980469 301.898438 C 642.484375 300.945312 645.414062 299.113281 646.355469 297.679688 C 647.015625 296.675781 646.945312 294.5 648.386719 295.632812 C 649.699219 296.671875 649.261719 298.753906 648.507812 299.980469 C 645.800781 304.402344 635.03125 309.21875 630.390625 312.003906 C 628.152344 313.351562 627.867188 315.113281 625.039062 312.753906 C 622.933594 311 624.328125 309.527344 624.851562 307.636719 C 626.535156 301.59375 628.042969 294.828125 629.21875 288.660156 C 629.433594 287.542969 629.445312 285.320312 629.714844 284.5 C 629.949219 283.773438 630.890625 283.183594 631.4375 283.9375 C 633.457031 286.703125 629.976562 300.375 629.445312 304.023438 Z M 629.4375 304.023438 " fill-opacity="1" fill-rule="nonzero"/></g></g></g></g></g><path fill="#4a4a35" d="M 266.246094 167.265625 C 261.097656 166.601562 256.359375 166.375 251.820312 165.320312 C 233.757812 161.125 220.117188 145.75 217.488281 127.339844 C 214.066406 103.421875 229.984375 79.382812 256.042969 75.550781 C 273.230469 73.015625 287.625 78.886719 298.71875 92.332031 C 300.257812 94.203125 301.703125 94.988281 304.179688 94.957031 C 327.613281 94.714844 347.050781 110.757812 350.792969 133.964844 C 355.257812 161.652344 335.371094 184.742188 310.578125 187.457031 C 292.46875 189.449219 277.984375 182.734375 267.027344 168.261719 C 266.652344 167.765625 266.257812 167.28125 266.246094 167.265625 Z M 278.738281 164.082031 C 288.140625 175.25 306.820312 179.65625 322.046875 171.128906 C 337.089844 162.695312 344.015625 144.617188 338.359375 128.351562 C 333.515625 114.390625 317.746094 102.878906 305.898438 104.824219 C 310.09375 116.746094 309.792969 128.53125 304.542969 140.042969 C 299.277344 151.558594 290.402344 159.328125 278.738281 164.082031 Z M 288.605469 97.71875 C 281.9375 88.257812 264.75 80.5 247.941406 88.847656 C 232.640625 96.4375 225.488281 113.941406 230.980469 130.085938 C 235.21875 142.535156 250.039062 153.957031 259.574219 152.132812 C 254.382812 125.648438 269.230469 105.277344 288.605469 97.71875 Z M 297.765625 95.335938 C 286.3125 78.417969 260.617188 71.128906 240.035156 83.882812 C 219.464844 96.632812 213.25 123.355469 226.015625 143.96875 C 238.585938 164.25 265.519531 170.527344 285.875 157.773438 C 307.679688 144.132812 309.914062 117.953125 302.65625 104.34375 C 300.722656 104.628906 298.703125 104.945312 296.363281 105.292969 C 299.832031 114.996094 299.96875 124.335938 295.957031 133.496094 C 291.882812 142.777344 285.03125 149.265625 275.554688 152.902344 C 259.558594 159.042969 240.878906 152.765625 231.824219 137.585938 C 223.421875 123.492188 225.351562 103.800781 239.21875 91.804688 C 245.828125 86.085938 253.554688 83.066406 262.230469 82.960938 C 274.167969 82.824219 283.929688 87.746094 291.488281 96.84375 C 293.675781 96.316406 295.59375 95.847656 297.765625 95.335938 Z M 269.230469 166.691406 C 277.378906 180.273438 301.070312 192.8125 325.003906 180.636719 C 346.371094 169.769531 355.046875 143.816406 344.664062 122.253906 C 334.285156 100.722656 308.496094 91.304688 286.765625 101.25 C 263.695312 111.796875 257.28125 136.847656 262.714844 152.71875 C 264.613281 152.871094 266.546875 152.917969 268.492188 152.054688 C 268.207031 150.878906 267.964844 149.882812 267.738281 148.871094 C 262.125 125.273438 279.570312 102.410156 303.878906 101.988281 C 328.445312 101.566406 345.117188 122.949219 342.402344 144.210938 C 340.5 159.117188 332.53125 169.785156 318.636719 175.277344 C 304.617188 180.816406 291.488281 178.328125 279.78125 168.746094 C 277.183594 164.746094 273.59375 164.882812 269.699219 166.347656 C 269.59375 166.375 269.535156 166.453125 269.230469 166.691406 Z M 293.875 106.289062 C 272.113281 112.507812 264.554688 137.828125 271.527344 151.527344 C 291.035156 146.878906 301.945312 124.609375 293.875 106.289062 Z M 303.847656 90.566406 C 296.53125 81.558594 293.058594 71.945312 294.988281 60.75 C 295.488281 57.898438 296.679688 55.363281 298.761719 53.292969 C 302.367188 49.703125 307.121094 49.839844 310.199219 53.867188 C 311.890625 56.085938 313.082031 58.695312 314.621094 61.335938 C 315.226562 60.992188 316.011719 60.554688 316.792969 60.101562 C 319.375 58.605469 322.105469 57.625 325.140625 57.746094 C 330.089844 57.941406 333.273438 61.441406 332.972656 66.40625 C 332.820312 68.898438 331.976562 71.207031 330.316406 73 C 327.976562 75.523438 325.652344 78.253906 322.800781 80.035156 C 316.765625 83.789062 310.398438 86.976562 303.847656 90.566406 Z M 304.089844 87.652344 C 309.746094 84.605469 315.210938 81.933594 320.371094 78.78125 C 323.085938 77.121094 325.515625 74.8125 327.660156 72.429688 C 329.003906 70.949219 329.921875 68.882812 330.4375 66.921875 C 331.371094 63.40625 328.988281 60.476562 325.351562 60.175781 C 323.085938 59.996094 320.945312 60.539062 319.011719 61.640625 C 317.667969 62.410156 316.460938 63.449219 315.210938 64.386719 C 313.925781 65.335938 313.234375 65.214844 312.523438 63.78125 C 312.117188 62.9375 311.921875 61.988281 311.5 61.15625 C 310.5625 59.285156 309.746094 57.324219 308.527344 55.664062 C 306.15625 52.375 302.804688 52.359375 300.074219 55.390625 C 298.25 57.414062 297.375 59.902344 297.058594 62.53125 C 295.957031 71.703125 298.671875 79.851562 304.089844 87.652344 Z M 304.089844 87.652344 " fill-opacity="1" fill-rule="nonzero"/><g fill="#4a4a35" fill-opacity="1"><g transform="translate(362.289939, 556.696293)"><g><path d="M 10.46875 0.3125 C 7.726562 0.3125 5.421875 -0.425781 3.546875 -1.90625 C 1.671875 -3.382812 0.734375 -5.515625 0.734375 -8.296875 C 0.734375 -9.910156 1.039062 -11.351562 1.65625 -12.625 C 2.28125 -13.90625 3.097656 -14.90625 4.109375 -15.625 C 6.140625 -17.101562 8.414062 -17.84375 10.9375 -17.84375 C 12.40625 -17.84375 13.929688 -17.582031 15.515625 -17.0625 L 15.25 -15.25 C 14.425781 -15.601562 13.785156 -15.867188 13.328125 -16.046875 C 11.992188 -16.523438 10.660156 -16.765625 9.328125 -16.765625 C 7.472656 -16.335938 6.046875 -15.414062 5.046875 -14 C 4.046875 -12.59375 3.546875 -10.832031 3.546875 -8.71875 C 3.546875 -6.113281 4.222656 -4.109375 5.578125 -2.703125 C 6.941406 -1.304688 8.734375 -0.609375 10.953125 -0.609375 C 13.179688 -0.609375 14.84375 -1.085938 15.9375 -2.046875 L 15.9375 -0.578125 C 14.425781 0.015625 12.601562 0.3125 10.46875 0.3125 Z M 10.46875 0.3125 "/></g></g></g><g fill="#4a4a35" fill-opacity="1"><g transform="translate(383.124611, 556.696293)"><g><path d="M 7.09375 -12.28125 C 8.644531 -12.28125 9.925781 -11.75 10.9375 -10.6875 C 11.957031 -9.632812 12.46875 -8.179688 12.46875 -6.328125 C 12.46875 -5.148438 12.265625 -4.109375 11.859375 -3.203125 C 11.453125 -2.304688 10.925781 -1.609375 10.28125 -1.109375 C 9.019531 -0.160156 7.617188 0.3125 6.078125 0.3125 C 4.535156 0.3125 3.253906 -0.210938 2.234375 -1.265625 C 1.222656 -2.328125 0.71875 -3.785156 0.71875 -5.640625 C 0.71875 -6.828125 0.914062 -7.867188 1.3125 -8.765625 C 1.707031 -9.660156 2.234375 -10.359375 2.890625 -10.859375 C 4.140625 -11.804688 5.539062 -12.28125 7.09375 -12.28125 Z M 6.5625 -0.578125 C 7.34375 -0.578125 8.003906 -0.878906 8.546875 -1.484375 C 9.535156 -2.546875 10.03125 -3.953125 10.03125 -5.703125 C 10.03125 -7.460938 9.726562 -8.832031 9.125 -9.8125 C 8.53125 -10.789062 7.554688 -11.28125 6.203125 -11.28125 C 5.191406 -10.894531 4.425781 -10.210938 3.90625 -9.234375 C 3.382812 -8.253906 3.125 -7.070312 3.125 -5.6875 C 3.125 -4.300781 3.40625 -3.101562 3.96875 -2.09375 C 4.53125 -1.082031 5.394531 -0.578125 6.5625 -0.578125 Z M 5.75 -13.421875 L 4.6875 -13.421875 L 9.25 -18.40625 L 10.71875 -17.078125 Z M 5.75 -13.421875 "/></g></g></g><g fill="#4a4a35" fill-opacity="1"><g transform="translate(400.465059, 556.696293)"><g><path d="M 6.03125 0.3125 C 4.5 0.3125 3.222656 -0.207031 2.203125 -1.25 C 1.191406 -2.300781 0.6875 -3.789062 0.6875 -5.71875 C 0.6875 -7.644531 1.226562 -9.21875 2.3125 -10.4375 C 3.40625 -11.664062 4.789062 -12.28125 6.46875 -12.28125 C 7.394531 -12.28125 8.441406 -12.050781 9.609375 -11.59375 L 9.34375 -9.859375 C 7.789062 -10.671875 6.457031 -11.078125 5.34375 -11.078125 C 4.425781 -10.609375 3.765625 -9.863281 3.359375 -8.84375 C 2.953125 -7.820312 2.75 -6.816406 2.75 -5.828125 C 2.75 -4.484375 3.140625 -3.363281 3.921875 -2.46875 C 4.710938 -1.582031 5.65625 -1.140625 6.75 -1.140625 C 7.84375 -1.140625 8.847656 -1.378906 9.765625 -1.859375 L 9.765625 -0.921875 C 8.492188 -0.0976562 7.25 0.3125 6.03125 0.3125 Z M 6.03125 0.3125 "/></g></g></g><g fill="#4a4a35" fill-opacity="1"><g transform="translate(415.317196, 556.696293)"><g><path d="M 4.640625 -2.328125 C 4.640625 -1.796875 4.742188 -1.394531 4.953125 -1.125 C 5.160156 -0.863281 5.507812 -0.734375 6 -0.734375 C 6.5 -0.734375 7.09375 -0.867188 7.78125 -1.140625 L 7.78125 -0.390625 C 6.757812 0.078125 5.84375 0.3125 5.03125 0.3125 C 4.21875 0.3125 3.578125 0.0859375 3.109375 -0.359375 C 2.640625 -0.804688 2.40625 -1.507812 2.40625 -2.46875 L 2.40625 -11.015625 L 0.265625 -11.4375 L 0.265625 -11.96875 L 2.40625 -11.96875 L 2.40625 -12.921875 L 4.640625 -14.546875 L 4.640625 -11.96875 L 7.78125 -11.96875 L 7.78125 -11.015625 L 4.640625 -11.015625 Z M 4.640625 -2.328125 "/></g></g></g><g fill="#4a4a35" fill-opacity="1"><g transform="translate(428.131037, 556.696293)"><g><path d="M 2.78125 -6.515625 C 2.78125 -4.609375 3.207031 -3.234375 4.0625 -2.390625 C 4.914062 -1.554688 5.957031 -1.140625 7.1875 -1.140625 C 8.414062 -1.140625 9.550781 -1.378906 10.59375 -1.859375 L 10.59375 -0.921875 C 9.144531 -0.0976562 7.757812 0.3125 6.4375 0.3125 C 4.71875 0.3125 3.328125 -0.207031 2.265625 -1.25 C 1.210938 -2.289062 0.6875 -3.796875 0.6875 -5.765625 C 0.6875 -7.742188 1.273438 -9.320312 2.453125 -10.5 C 3.628906 -11.6875 5.046875 -12.28125 6.703125 -12.28125 C 7.992188 -12.28125 9.070312 -11.773438 9.9375 -10.765625 C 10.800781 -9.753906 11.234375 -8.335938 11.234375 -6.515625 Z M 5.34375 -11.046875 C 4.726562 -10.742188 4.195312 -10.257812 3.75 -9.59375 C 3.3125 -8.9375 3.023438 -8.175781 2.890625 -7.3125 L 9.078125 -7.3125 C 9.023438 -8.050781 8.851562 -8.6875 8.5625 -9.21875 C 8.269531 -9.75 7.921875 -10.132812 7.515625 -10.375 C 6.796875 -10.820312 6.070312 -11.046875 5.34375 -11.046875 Z M 5.34375 -11.046875 "/></g></g></g><g fill="#4a4a35" fill-opacity="1"><g transform="translate(444.650875, 556.696293)"><g><path d="M 4.21875 -18.09375 L 4.21875 0 L 1.984375 0 L 1.984375 -18.09375 Z M 4.21875 -18.09375 "/></g></g></g><g fill="#4a4a35" fill-opacity="1"><g transform="translate(210.348474, 35.805285)"><g><path d="M 10.46875 0.3125 C 7.726562 0.3125 5.421875 -0.425781 3.546875 -1.90625 C 1.671875 -3.382812 0.734375 -5.515625 0.734375 -8.296875 C 0.734375 -9.910156 1.039062 -11.351562 1.65625 -12.625 C 2.28125 -13.90625 3.097656 -14.90625 4.109375 -15.625 C 6.140625 -17.101562 8.414062 -17.84375 10.9375 -17.84375 C 12.40625 -17.84375 13.929688 -17.582031 15.515625 -17.0625 L 15.25 -15.25 C 14.425781 -15.601562 13.785156 -15.867188 13.328125 -16.046875 C 11.992188 -16.523438 10.660156 -16.765625 9.328125 -16.765625 C 7.472656 -16.335938 6.046875 -15.414062 5.046875 -14 C 4.046875 -12.59375 3.546875 -10.832031 3.546875 -8.71875 C 3.546875 -6.113281 4.222656 -4.109375 5.578125 -2.703125 C 6.941406 -1.304688 8.734375 -0.609375 10.953125 -0.609375 C 13.179688 -0.609375 14.84375 -1.085938 15.9375 -2.046875 L 15.9375 -0.578125 C 14.425781 0.015625 12.601562 0.3125 10.46875 0.3125 Z M 10.46875 0.3125 "/></g></g></g><g fill="#4a4a35" fill-opacity="1"><g transform="translate(231.183146, 35.805285)"><g><path d="M 2.78125 -6.515625 C 2.78125 -4.609375 3.207031 -3.234375 4.0625 -2.390625 C 4.914062 -1.554688 5.957031 -1.140625 7.1875 -1.140625 C 8.414062 -1.140625 9.550781 -1.378906 10.59375 -1.859375 L 10.59375 -0.921875 C 9.144531 -0.0976562 7.757812 0.3125 6.4375 0.3125 C 4.71875 0.3125 3.328125 -0.207031 2.265625 -1.25 C 1.210938 -2.289062 0.6875 -3.796875 0.6875 -5.765625 C 0.6875 -7.742188 1.273438 -9.320312 2.453125 -10.5 C 3.628906 -11.6875 5.046875 -12.28125 6.703125 -12.28125 C 7.992188 -12.28125 9.070312 -11.773438 9.9375 -10.765625 C 10.800781 -9.753906 11.234375 -8.335938 11.234375 -6.515625 Z M 5.34375 -11.046875 C 4.726562 -10.742188 4.195312 -10.257812 3.75 -9.59375 C 3.3125 -8.9375 3.023438 -8.175781 2.890625 -7.3125 L 9.078125 -7.3125 C 9.023438 -8.050781 8.851562 -8.6875 8.5625 -9.21875 C 8.269531 -9.75 7.921875 -10.132812 7.515625 -10.375 C 6.796875 -10.820312 6.070312 -11.046875 5.34375 -11.046875 Z M 5.34375 -11.046875 "/></g></g></g><g fill="#4a4a35" fill-opacity="1"><g transform="translate(247.702983, 35.805285)"><g><path d="M 3.921875 0 L 1.6875 0 L 1.6875 -11.96875 L 3.234375 -11.96875 L 3.84375 -9.75 C 4.195312 -10.363281 4.753906 -10.941406 5.515625 -11.484375 C 6.285156 -12.035156 7.078125 -12.375 7.890625 -12.5 L 8.15625 -10.671875 C 7.5 -10.671875 6.757812 -10.46875 5.9375 -10.0625 C 5.125 -9.65625 4.453125 -9.207031 3.921875 -8.71875 Z M 3.921875 0 "/></g></g></g><g fill="#4a4a35" fill-opacity="1"><g transform="translate(260.225646, 35.805285)"><g><path d="M 2.78125 -6.515625 C 2.78125 -4.609375 3.207031 -3.234375 4.0625 -2.390625 C 4.914062 -1.554688 5.957031 -1.140625 7.1875 -1.140625 C 8.414062 -1.140625 9.550781 -1.378906 10.59375 -1.859375 L 10.59375 -0.921875 C 9.144531 -0.0976562 7.757812 0.3125 6.4375 0.3125 C 4.71875 0.3125 3.328125 -0.207031 2.265625 -1.25 C 1.210938 -2.289062 0.6875 -3.796875 0.6875 -5.765625 C 0.6875 -7.742188 1.273438 -9.320312 2.453125 -10.5 C 3.628906 -11.6875 5.046875 -12.28125 6.703125 -12.28125 C 7.992188 -12.28125 9.070312 -11.773438 9.9375 -10.765625 C 10.800781 -9.753906 11.234375 -8.335938 11.234375 -6.515625 Z M 5.34375 -11.046875 C 4.726562 -10.742188 4.195312 -10.257812 3.75 -9.59375 C 3.3125 -8.9375 3.023438 -8.175781 2.890625 -7.3125 L 9.078125 -7.3125 C 9.023438 -8.050781 8.851562 -8.6875 8.5625 -9.21875 C 8.269531 -9.75 7.921875 -10.132812 7.515625 -10.375 C 6.796875 -10.820312 6.070312 -11.046875 5.34375 -11.046875 Z M 5.34375 -11.046875 "/></g></g></g><g fill="#4a4a35" fill-opacity="1"><g transform="translate(276.745483, 35.805285)"><g><path d="M 15.578125 -12.28125 C 17.660156 -12.28125 18.703125 -10.703125 18.703125 -7.546875 L 18.703125 0 L 16.46875 0 L 16.46875 -7.765625 C 16.46875 -9.242188 16.1875 -10.144531 15.625 -10.46875 C 15.34375 -10.625 14.945312 -10.703125 14.4375 -10.703125 C 13.9375 -10.703125 13.398438 -10.546875 12.828125 -10.234375 C 12.253906 -9.921875 11.835938 -9.570312 11.578125 -9.1875 L 11.578125 0 L 9.328125 0 L 9.328125 -7.890625 C 9.328125 -8.828125 9.179688 -9.53125 8.890625 -10 C 8.609375 -10.46875 8.191406 -10.703125 7.640625 -10.703125 C 7.097656 -10.703125 6.578125 -10.578125 6.078125 -10.328125 C 5.578125 -10.078125 5.175781 -9.828125 4.875 -9.578125 C 4.570312 -9.335938 4.421875 -9.191406 4.421875 -9.140625 L 4.421875 0 L 2.203125 0 L 2.203125 -8.3125 C 2.203125 -9.507812 1.75 -10.472656 0.84375 -11.203125 L 2.203125 -12.203125 L 4.3125 -10.28125 C 5.144531 -10.96875 5.867188 -11.472656 6.484375 -11.796875 C 7.109375 -12.117188 7.753906 -12.28125 8.421875 -12.28125 C 9.953125 -12.28125 10.90625 -11.566406 11.28125 -10.140625 C 11.894531 -10.847656 12.597656 -11.378906 13.390625 -11.734375 C 14.191406 -12.097656 14.921875 -12.28125 15.578125 -12.28125 Z M 15.578125 -12.28125 "/></g></g></g><g fill="#4a4a35" fill-opacity="1"><g transform="translate(301.444975, 35.805285)"><g><path d="M 7.09375 -12.28125 C 8.644531 -12.28125 9.925781 -11.75 10.9375 -10.6875 C 11.957031 -9.632812 12.46875 -8.179688 12.46875 -6.328125 C 12.46875 -5.148438 12.265625 -4.109375 11.859375 -3.203125 C 11.453125 -2.304688 10.925781 -1.609375 10.28125 -1.109375 C 9.019531 -0.160156 7.617188 0.3125 6.078125 0.3125 C 4.535156 0.3125 3.253906 -0.210938 2.234375 -1.265625 C 1.222656 -2.328125 0.71875 -3.785156 0.71875 -5.640625 C 0.71875 -6.828125 0.914062 -7.867188 1.3125 -8.765625 C 1.707031 -9.660156 2.234375 -10.359375 2.890625 -10.859375 C 4.140625 -11.804688 5.539062 -12.28125 7.09375 -12.28125 Z M 6.5625 -0.578125 C 7.34375 -0.578125 8.003906 -0.878906 8.546875 -1.484375 C 9.535156 -2.546875 10.03125 -3.953125 10.03125 -5.703125 C 10.03125 -7.460938 9.726562 -8.832031 9.125 -9.8125 C 8.53125 -10.789062 7.554688 -11.28125 6.203125 -11.28125 C 5.191406 -10.894531 4.425781 -10.210938 3.90625 -9.234375 C 3.382812 -8.253906 3.125 -7.070312 3.125 -5.6875 C 3.125 -4.300781 3.40625 -3.101562 3.96875 -2.09375 C 4.53125 -1.082031 5.394531 -0.578125 6.5625 -0.578125 Z M 6.5625 -0.578125 "/></g></g></g><g fill="#4a4a35" fill-opacity="1"><g transform="translate(318.785423, 35.805285)"><g><path d="M 4.296875 -10.28125 C 5.035156 -10.976562 5.679688 -11.484375 6.234375 -11.796875 C 6.796875 -12.117188 7.453125 -12.28125 8.203125 -12.28125 C 8.960938 -12.28125 9.664062 -11.976562 10.3125 -11.375 C 10.957031 -10.78125 11.28125 -9.753906 11.28125 -8.296875 L 11.28125 0 L 9.03125 0 L 9.03125 -8.03125 C 9.03125 -8.894531 8.875 -9.539062 8.5625 -9.96875 C 8.257812 -10.40625 7.734375 -10.625 6.984375 -10.625 C 6.234375 -10.625 5.363281 -10.128906 4.375 -9.140625 L 4.375 0 L 2.125 0 L 2.125 -8.3125 C 2.125 -9.507812 1.671875 -10.472656 0.765625 -11.203125 L 2.125 -12.203125 Z M 4.296875 -10.28125 "/></g></g></g><g fill="#4a4a35" fill-opacity="1"><g transform="translate(336.125871, 35.805285)"><g><path d="M 1.984375 0 L 1.984375 -11.96875 L 4.1875 -11.96875 L 4.1875 0 Z M 1.71875 -15.65625 C 1.71875 -16.039062 1.84375 -16.363281 2.09375 -16.625 C 2.351562 -16.894531 2.671875 -17.03125 3.046875 -17.03125 C 3.429688 -17.03125 3.757812 -16.894531 4.03125 -16.625 C 4.3125 -16.363281 4.453125 -16.046875 4.453125 -15.671875 C 4.453125 -15.304688 4.3125 -14.984375 4.03125 -14.703125 C 3.757812 -14.421875 3.4375 -14.28125 3.0625 -14.28125 C 2.695312 -14.28125 2.378906 -14.414062 2.109375 -14.6875 C 1.847656 -14.957031 1.71875 -15.28125 1.71875 -15.65625 Z M 1.71875 -15.65625 "/></g></g></g><g fill="#4a4a35" fill-opacity="1"><g transform="translate(346.398464, 35.805285)"><g><path d="M 7.546875 -2.8125 L 7.546875 -5.53125 C 6.273438 -5.445312 5.234375 -5.164062 4.421875 -4.6875 C 3.609375 -4.207031 3.203125 -3.691406 3.203125 -3.140625 C 3.203125 -2.597656 3.34375 -2.128906 3.625 -1.734375 C 3.90625 -1.335938 4.269531 -1.0625 4.71875 -0.90625 C 5.300781 -1.007812 5.914062 -1.296875 6.5625 -1.765625 C 7.21875 -2.242188 7.546875 -2.59375 7.546875 -2.8125 Z M 9.71875 -3.515625 C 9.71875 -2.265625 10.175781 -1.3125 11.09375 -0.65625 L 9.71875 0.34375 L 7.578125 -1.59375 C 6.179688 -0.320312 4.890625 0.3125 3.703125 0.3125 C 2.929688 0.3125 2.265625 0.0664062 1.703125 -0.421875 C 1.148438 -0.921875 0.875 -1.546875 0.875 -2.296875 C 0.875 -3.046875 1.097656 -3.664062 1.546875 -4.15625 C 1.992188 -4.65625 2.59375 -5.035156 3.34375 -5.296875 C 4.613281 -5.773438 6.015625 -6.078125 7.546875 -6.203125 L 7.546875 -8.6875 C 7.546875 -10.15625 6.695312 -10.890625 5 -10.890625 C 4.03125 -10.890625 2.882812 -10.675781 1.5625 -10.25 L 1.328125 -10.90625 C 1.679688 -11.1875 2.289062 -11.484375 3.15625 -11.796875 C 4.03125 -12.117188 4.863281 -12.28125 5.65625 -12.28125 C 6.457031 -12.28125 7.125 -12.175781 7.65625 -11.96875 C 8.195312 -11.757812 8.597656 -11.519531 8.859375 -11.25 C 9.117188 -10.988281 9.316406 -10.628906 9.453125 -10.171875 C 9.597656 -9.710938 9.675781 -9.347656 9.6875 -9.078125 C 9.707031 -8.816406 9.71875 -8.46875 9.71875 -8.03125 Z M 9.71875 -3.515625 "/></g></g></g><g fill="#4a4a35" fill-opacity="1"><g transform="translate(574.28925, 35.805285)"><g><path d="M 10.46875 0.3125 C 7.726562 0.3125 5.421875 -0.425781 3.546875 -1.90625 C 1.671875 -3.382812 0.734375 -5.515625 0.734375 -8.296875 C 0.734375 -9.910156 1.039062 -11.351562 1.65625 -12.625 C 2.28125 -13.90625 3.097656 -14.90625 4.109375 -15.625 C 6.140625 -17.101562 8.414062 -17.84375 10.9375 -17.84375 C 12.40625 -17.84375 13.929688 -17.582031 15.515625 -17.0625 L 15.25 -15.25 C 14.425781 -15.601562 13.785156 -15.867188 13.328125 -16.046875 C 11.992188 -16.523438 10.660156 -16.765625 9.328125 -16.765625 C 7.472656 -16.335938 6.046875 -15.414062 5.046875 -14 C 4.046875 -12.59375 3.546875 -10.832031 3.546875 -8.71875 C 3.546875 -6.113281 4.222656 -4.109375 5.578125 -2.703125 C 6.941406 -1.304688 8.734375 -0.609375 10.953125 -0.609375 C 13.179688 -0.609375 14.84375 -1.085938 15.9375 -2.046875 L 15.9375 -0.578125 C 14.425781 0.015625 12.601562 0.3125 10.46875 0.3125 Z M 10.46875 0.3125 "/></g></g></g><g fill="#4a4a35" fill-opacity="1"><g transform="translate(595.123922, 35.805285)"><g><path d="M 7.09375 -12.28125 C 8.644531 -12.28125 9.925781 -11.75 10.9375 -10.6875 C 11.957031 -9.632812 12.46875 -8.179688 12.46875 -6.328125 C 12.46875 -5.148438 12.265625 -4.109375 11.859375 -3.203125 C 11.453125 -2.304688 10.925781 -1.609375 10.28125 -1.109375 C 9.019531 -0.160156 7.617188 0.3125 6.078125 0.3125 C 4.535156 0.3125 3.253906 -0.210938 2.234375 -1.265625 C 1.222656 -2.328125 0.71875 -3.785156 0.71875 -5.640625 C 0.71875 -6.828125 0.914062 -7.867188 1.3125 -8.765625 C 1.707031 -9.660156 2.234375 -10.359375 2.890625 -10.859375 C 4.140625 -11.804688 5.539062 -12.28125 7.09375 -12.28125 Z M 6.5625 -0.578125 C 7.34375 -0.578125 8.003906 -0.878906 8.546875 -1.484375 C 9.535156 -2.546875 10.03125 -3.953125 10.03125 -5.703125 C 10.03125 -7.460938 9.726562 -8.832031 9.125 -9.8125 C 8.53125 -10.789062 7.554688 -11.28125 6.203125 -11.28125 C 5.191406 -10.894531 4.425781 -10.210938 3.90625 -9.234375 C 3.382812 -8.253906 3.125 -7.070312 3.125 -5.6875 C 3.125 -4.300781 3.40625 -3.101562 3.96875 -2.09375 C 4.53125 -1.082031 5.394531 -0.578125 6.5625 -0.578125 Z M 6.5625 -0.578125 "/></g></g></g><g fill="#4a4a35" fill-opacity="1"><g transform="translate(612.46437, 35.805285)"><g><path d="M 15.578125 -12.28125 C 17.660156 -12.28125 18.703125 -10.703125 18.703125 -7.546875 L 18.703125 0 L 16.46875 0 L 16.46875 -7.765625 C 16.46875 -9.242188 16.1875 -10.144531 15.625 -10.46875 C 15.34375 -10.625 14.945312 -10.703125 14.4375 -10.703125 C 13.9375 -10.703125 13.398438 -10.546875 12.828125 -10.234375 C 12.253906 -9.921875 11.835938 -9.570312 11.578125 -9.1875 L 11.578125 0 L 9.328125 0 L 9.328125 -7.890625 C 9.328125 -8.828125 9.179688 -9.53125 8.890625 -10 C 8.609375 -10.46875 8.191406 -10.703125 7.640625 -10.703125 C 7.097656 -10.703125 6.578125 -10.578125 6.078125 -10.328125 C 5.578125 -10.078125 5.175781 -9.828125 4.875 -9.578125 C 4.570312 -9.335938 4.421875 -9.191406 4.421875 -9.140625 L 4.421875 0 L 2.203125 0 L 2.203125 -8.3125 C 2.203125 -9.507812 1.75 -10.472656 0.84375 -11.203125 L 2.203125 -12.203125 L 4.3125 -10.28125 C 5.144531 -10.96875 5.867188 -11.472656 6.484375 -11.796875 C 7.109375 -12.117188 7.753906 -12.28125 8.421875 -12.28125 C 9.953125 -12.28125 10.90625 -11.566406 11.28125 -10.140625 C 11.894531 -10.847656 12.597656 -11.378906 13.390625 -11.734375 C 14.191406 -12.097656 14.921875 -12.28125 15.578125 -12.28125 Z M 15.578125 -12.28125 "/></g></g></g><g fill="#4a4a35" fill-opacity="1"><g transform="translate(637.163862, 35.805285)"><g><path d="M 1.984375 0 L 1.984375 -11.96875 L 4.1875 -11.96875 L 4.1875 0 Z M 1.71875 -15.65625 C 1.71875 -16.039062 1.84375 -16.363281 2.09375 -16.625 C 2.351562 -16.894531 2.671875 -17.03125 3.046875 -17.03125 C 3.429688 -17.03125 3.757812 -16.894531 4.03125 -16.625 C 4.3125 -16.363281 4.453125 -16.046875 4.453125 -15.671875 C 4.453125 -15.304688 4.3125 -14.984375 4.03125 -14.703125 C 3.757812 -14.421875 3.4375 -14.28125 3.0625 -14.28125 C 2.695312 -14.28125 2.378906 -14.414062 2.109375 -14.6875 C 1.847656 -14.957031 1.71875 -15.28125 1.71875 -15.65625 Z M 1.71875 -15.65625 "/></g></g></g><g fill="#4a4a35" fill-opacity="1"><g transform="translate(647.436455, 35.805285)"><g><path d="M 11.234375 -3.546875 C 11.234375 -2.328125 11.679688 -1.359375 12.578125 -0.640625 L 11.234375 0.34375 L 9.0625 -1.59375 C 8.351562 -0.914062 7.710938 -0.425781 7.140625 -0.125 C 6.578125 0.164062 5.992188 0.3125 5.390625 0.3125 C 4.796875 0.3125 4.269531 0.222656 3.8125 0.046875 C 3.351562 -0.128906 2.867188 -0.421875 2.359375 -0.828125 C 1.859375 -1.242188 1.453125 -1.894531 1.140625 -2.78125 C 0.835938 -3.675781 0.6875 -4.832031 0.6875 -6.25 C 0.6875 -7.664062 1.101562 -9.019531 1.9375 -10.3125 C 2.78125 -11.613281 3.9375 -12.265625 5.40625 -12.265625 C 6.5 -12.265625 7.691406 -11.859375 8.984375 -11.046875 L 8.984375 -18.09375 L 11.234375 -18.09375 Z M 8.984375 -2.671875 L 8.984375 -10.0625 C 8.046875 -10.675781 7.1875 -10.984375 6.40625 -10.984375 C 5.382812 -10.984375 4.5625 -10.503906 3.9375 -9.546875 C 3.320312 -8.585938 3.015625 -7.382812 3.015625 -5.9375 C 3.015625 -4.488281 3.238281 -3.328125 3.6875 -2.453125 C 4.144531 -1.578125 4.707031 -1.050781 5.375 -0.875 C 5.988281 -0.925781 6.59375 -1.070312 7.1875 -1.3125 C 7.78125 -1.5625 8.226562 -1.816406 8.53125 -2.078125 C 8.832031 -2.335938 8.984375 -2.535156 8.984375 -2.671875 Z M 8.984375 -2.671875 "/></g></g></g><g fill="#4a4a35" fill-opacity="1"><g transform="translate(664.776903, 35.805285)"><g><path d="M 7.546875 -2.8125 L 7.546875 -5.53125 C 6.273438 -5.445312 5.234375 -5.164062 4.421875 -4.6875 C 3.609375 -4.207031 3.203125 -3.691406 3.203125 -3.140625 C 3.203125 -2.597656 3.34375 -2.128906 3.625 -1.734375 C 3.90625 -1.335938 4.269531 -1.0625 4.71875 -0.90625 C 5.300781 -1.007812 5.914062 -1.296875 6.5625 -1.765625 C 7.21875 -2.242188 7.546875 -2.59375 7.546875 -2.8125 Z M 9.71875 -3.515625 C 9.71875 -2.265625 10.175781 -1.3125 11.09375 -0.65625 L 9.71875 0.34375 L 7.578125 -1.59375 C 6.179688 -0.320312 4.890625 0.3125 3.703125 0.3125 C 2.929688 0.3125 2.265625 0.0664062 1.703125 -0.421875 C 1.148438 -0.921875 0.875 -1.546875 0.875 -2.296875 C 0.875 -3.046875 1.097656 -3.664062 1.546875 -4.15625 C 1.992188 -4.65625 2.59375 -5.035156 3.34375 -5.296875 C 4.613281 -5.773438 6.015625 -6.078125 7.546875 -6.203125 L 7.546875 -8.6875 C 7.546875 -10.15625 6.695312 -10.890625 5 -10.890625 C 4.03125 -10.890625 2.882812 -10.675781 1.5625 -10.25 L 1.328125 -10.90625 C 1.679688 -11.1875 2.289062 -11.484375 3.15625 -11.796875 C 4.03125 -12.117188 4.863281 -12.28125 5.65625 -12.28125 C 6.457031 -12.28125 7.125 -12.175781 7.65625 -11.96875 C 8.195312 -11.757812 8.597656 -11.519531 8.859375 -11.25 C 9.117188 -10.988281 9.316406 -10.628906 9.453125 -10.171875 C 9.597656 -9.710938 9.675781 -9.347656 9.6875 -9.078125 C 9.707031 -8.816406 9.71875 -8.46875 9.71875 -8.03125 Z M 9.71875 -3.515625 "/></g></g></g><g fill="#4a4a35" fill-opacity="1"><g transform="translate(745.364542, 556.696293)"><g><path d="M 4.953125 -9.6875 L 10.5625 -9.6875 L 10.5625 -8.6875 L 4.953125 -8.6875 L 4.953125 0 L 2.390625 0 L 2.390625 -17.53125 L 12.734375 -17.53125 L 12.734375 -15.765625 L 7.84375 -16.578125 C 6.957031 -16.578125 5.992188 -16.425781 4.953125 -16.125 Z M 4.953125 -9.6875 "/></g></g></g><g fill="#4a4a35" fill-opacity="1"><g transform="translate(762.202038, 556.696293)"><g><path d="M 1.984375 0 L 1.984375 -11.96875 L 4.1875 -11.96875 L 4.1875 0 Z M 1.71875 -15.65625 C 1.71875 -16.039062 1.84375 -16.363281 2.09375 -16.625 C 2.351562 -16.894531 2.671875 -17.03125 3.046875 -17.03125 C 3.429688 -17.03125 3.757812 -16.894531 4.03125 -16.625 C 4.3125 -16.363281 4.453125 -16.046875 4.453125 -15.671875 C 4.453125 -15.304688 4.3125 -14.984375 4.03125 -14.703125 C 3.757812 -14.421875 3.4375 -14.28125 3.0625 -14.28125 C 2.695312 -14.28125 2.378906 -14.414062 2.109375 -14.6875 C 1.847656 -14.957031 1.71875 -15.28125 1.71875 -15.65625 Z M 1.71875 -15.65625 "/></g></g></g><g fill="#4a4a35" fill-opacity="1"><g transform="translate(772.474632, 556.696293)"><g><path d="M 2.78125 -6.515625 C 2.78125 -4.609375 3.207031 -3.234375 4.0625 -2.390625 C 4.914062 -1.554688 5.957031 -1.140625 7.1875 -1.140625 C 8.414062 -1.140625 9.550781 -1.378906 10.59375 -1.859375 L 10.59375 -0.921875 C 9.144531 -0.0976562 7.757812 0.3125 6.4375 0.3125 C 4.71875 0.3125 3.328125 -0.207031 2.265625 -1.25 C 1.210938 -2.289062 0.6875 -3.796875 0.6875 -5.765625 C 0.6875 -7.742188 1.273438 -9.320312 2.453125 -10.5 C 3.628906 -11.6875 5.046875 -12.28125 6.703125 -12.28125 C 7.992188 -12.28125 9.070312 -11.773438 9.9375 -10.765625 C 10.800781 -9.753906 11.234375 -8.335938 11.234375 -6.515625 Z M 5.34375 -11.046875 C 4.726562 -10.742188 4.195312 -10.257812 3.75 -9.59375 C 3.3125 -8.9375 3.023438 -8.175781 2.890625 -7.3125 L 9.078125 -7.3125 C 9.023438 -8.050781 8.851562 -8.6875 8.5625 -9.21875 C 8.269531 -9.75 7.921875 -10.132812 7.515625 -10.375 C 6.796875 -10.820312 6.070312 -11.046875 5.34375 -11.046875 Z M 5.34375 -11.046875 "/></g></g></g><g fill="#4a4a35" fill-opacity="1"><g transform="translate(788.994469, 556.696293)"><g><path d="M 4.46875 -11.171875 C 4.007812 -11.171875 3.632812 -11 3.34375 -10.65625 C 3.050781 -10.3125 2.90625 -9.921875 2.90625 -9.484375 C 2.90625 -9.054688 3.113281 -8.644531 3.53125 -8.25 C 3.945312 -7.851562 4.453125 -7.5 5.046875 -7.1875 C 5.640625 -6.882812 6.226562 -6.5625 6.8125 -6.21875 C 7.394531 -5.882812 7.890625 -5.453125 8.296875 -4.921875 C 8.710938 -4.390625 8.921875 -3.800781 8.921875 -3.15625 C 8.921875 -2.164062 8.523438 -1.335938 7.734375 -0.671875 C 6.941406 -0.015625 5.859375 0.3125 4.484375 0.3125 C 3.117188 0.3125 1.867188 -0.00390625 0.734375 -0.640625 L 0.734375 -1.640625 C 1.941406 -1.035156 3.03125 -0.734375 4 -0.734375 C 4.96875 -0.734375 5.671875 -0.925781 6.109375 -1.3125 C 6.554688 -1.707031 6.78125 -2.15625 6.78125 -2.65625 C 6.78125 -3.164062 6.582031 -3.617188 6.1875 -4.015625 C 5.789062 -4.410156 5.300781 -4.757812 4.71875 -5.0625 C 4.144531 -5.363281 3.578125 -5.679688 3.015625 -6.015625 C 2.453125 -6.347656 1.972656 -6.78125 1.578125 -7.3125 C 1.179688 -7.84375 0.984375 -8.484375 0.984375 -9.234375 C 0.984375 -9.984375 1.285156 -10.675781 1.890625 -11.3125 C 2.503906 -11.957031 3.445312 -12.28125 4.71875 -12.28125 C 5.988281 -12.28125 7.207031 -12.050781 8.375 -11.59375 L 8.109375 -9.859375 C 6.796875 -10.554688 5.582031 -10.992188 4.46875 -11.171875 Z M 4.46875 -11.171875 "/></g></g></g><g fill="#4a4a35" fill-opacity="1"><g transform="translate(802.946579, 556.696293)"><g><path d="M 4.640625 -2.328125 C 4.640625 -1.796875 4.742188 -1.394531 4.953125 -1.125 C 5.160156 -0.863281 5.507812 -0.734375 6 -0.734375 C 6.5 -0.734375 7.09375 -0.867188 7.78125 -1.140625 L 7.78125 -0.390625 C 6.757812 0.078125 5.84375 0.3125 5.03125 0.3125 C 4.21875 0.3125 3.578125 0.0859375 3.109375 -0.359375 C 2.640625 -0.804688 2.40625 -1.507812 2.40625 -2.46875 L 2.40625 -11.015625 L 0.265625 -11.4375 L 0.265625 -11.96875 L 2.40625 -11.96875 L 2.40625 -12.921875 L 4.640625 -14.546875 L 4.640625 -11.96875 L 7.78125 -11.96875 L 7.78125 -11.015625 L 4.640625 -11.015625 Z M 4.640625 -2.328125 "/></g></g></g><g fill="#4a4a35" fill-opacity="1"><g transform="translate(815.76042, 556.696293)"><g><path d="M 7.546875 -2.8125 L 7.546875 -5.53125 C 6.273438 -5.445312 5.234375 -5.164062 4.421875 -4.6875 C 3.609375 -4.207031 3.203125 -3.691406 3.203125 -3.140625 C 3.203125 -2.597656 3.34375 -2.128906 3.625 -1.734375 C 3.90625 -1.335938 4.269531 -1.0625 4.71875 -0.90625 C 5.300781 -1.007812 5.914062 -1.296875 6.5625 -1.765625 C 7.21875 -2.242188 7.546875 -2.59375 7.546875 -2.8125 Z M 9.71875 -3.515625 C 9.71875 -2.265625 10.175781 -1.3125 11.09375 -0.65625 L 9.71875 0.34375 L 7.578125 -1.59375 C 6.179688 -0.320312 4.890625 0.3125 3.703125 0.3125 C 2.929688 0.3125 2.265625 0.0664062 1.703125 -0.421875 C 1.148438 -0.921875 0.875 -1.546875 0.875 -2.296875 C 0.875 -3.046875 1.097656 -3.664062 1.546875 -4.15625 C 1.992188 -4.65625 2.59375 -5.035156 3.34375 -5.296875 C 4.613281 -5.773438 6.015625 -6.078125 7.546875 -6.203125 L 7.546875 -8.6875 C 7.546875 -10.15625 6.695312 -10.890625 5 -10.890625 C 4.03125 -10.890625 2.882812 -10.675781 1.5625 -10.25 L 1.328125 -10.90625 C 1.679688 -11.1875 2.289062 -11.484375 3.15625 -11.796875 C 4.03125 -12.117188 4.863281 -12.28125 5.65625 -12.28125 C 6.457031 -12.28125 7.125 -12.175781 7.65625 -11.96875 C 8.195312 -11.757812 8.597656 -11.519531 8.859375 -11.25 C 9.117188 -10.988281 9.316406 -10.628906 9.453125 -10.171875 C 9.597656 -9.710938 9.675781 -9.347656 9.6875 -9.078125 C 9.707031 -8.816406 9.71875 -8.46875 9.71875 -8.03125 Z M 9.71875 -3.515625 "/></g></g></g><g clip-path="url(#aed60ada05)"><path fill="#4a4a35" d="M 474.117188 511.214844 C 468.878906 509.503906 463.738281 512.242188 460.683594 505.941406 C 455.191406 493.113281 451.007812 479.574219 448.035156 465.9375 C 447.0625 461.453125 449.160156 457.390625 450.773438 453.308594 C 453.191406 446.910156 454.335938 440.042969 454.167969 433.207031 C 454.25 423.800781 451.949219 414.566406 448.726562 405.796875 C 445.601562 396.882812 441.824219 388.148438 437.238281 379.886719 C 434.734375 376.089844 435.039062 378.976562 432.046875 379.917969 C 431.292969 380.171875 430.417969 380.152344 429.679688 380.421875 C 428.992188 380.65625 428.402344 381.144531 427.714844 381.429688 C 423.082031 383.160156 418.3125 384.621094 413.390625 385.292969 C 412.800781 385.375 409.996094 385.710938 411.324219 384.453125 C 413.019531 382.90625 415.238281 382.238281 417.421875 381.683594 C 419.738281 381.027344 421.90625 379.835938 424.273438 379.414062 C 425.429688 379.195312 426.625 379.179688 427.78125 378.894531 C 428.773438 378.660156 429.765625 378.1875 430.753906 378.15625 C 431.847656 378.105469 432.789062 378.640625 433.894531 378.609375 C 436.195312 378.523438 435.222656 377.347656 433.542969 377.03125 C 431.496094 376.542969 429.363281 376.390625 427.277344 376.609375 C 422.558594 377.265625 417.859375 378.304688 413.390625 380.003906 C 411.457031 380.808594 409.324219 381.648438 407.832031 383.195312 C 407.679688 383.242188 407.410156 383.796875 407.242188 383.53125 C 407.175781 381.546875 407.125 379.164062 406.824219 377.132812 C 407.210938 375.316406 407.007812 373.972656 405.261719 372.78125 C 399.804688 369.085938 390.382812 365.945312 383.816406 366.082031 C 381.546875 365.726562 378.308594 365.191406 377.5 368.0625 C 376.222656 371.503906 374.292969 374.644531 372.75 377.988281 C 371.152344 381.378906 369.054688 384.488281 367.507812 387.878906 C 364.957031 395.25 362.167969 402.675781 360.925781 410.382812 C 359.160156 422.339844 359.480469 434.96875 364.636719 446.121094 C 367.742188 452.183594 366.566406 456.28125 364.804688 462.496094 C 363.898438 464.929688 362.992188 467.332031 362.539062 469.886719 C 361.664062 472.859375 360.472656 475.714844 359.765625 478.734375 C 358.40625 483.574219 356.207031 488.175781 354.441406 492.875 C 351.25 501.15625 348.566406 499.746094 341.058594 500.703125 C 337.296875 501.222656 335.078125 505.050781 338.671875 507.65625 C 343.339844 511.433594 348.664062 514.574219 354.609375 515.800781 C 357.601562 516.472656 360.691406 516.339844 363.730469 516.539062 C 367.476562 516.691406 374.929688 516.605469 372.363281 510.863281 C 370.632812 507.203125 362.050781 503.710938 367.742188 508.160156 C 379.011719 517.464844 360.035156 515.078125 354.945312 513.5 C 349.90625 512.15625 345.054688 509.890625 340.992188 506.5625 C 335.984375 502.785156 344.398438 502.902344 346.785156 502.851562 C 349.976562 502.851562 352.964844 501.257812 354.726562 498.585938 C 357.179688 494.910156 358.523438 490.625 360.152344 486.546875 C 363.761719 475.863281 368.148438 465.183594 369.625 453.980469 C 369.792969 449.832031 367.84375 446.039062 366.398438 442.277344 C 363.878906 435.441406 362.789062 428.015625 363.007812 420.730469 C 363.191406 416.648438 363.59375 412.566406 364.285156 408.535156 C 364.335938 408.167969 364.46875 407.628906 364.886719 407.695312 C 367.171875 408.519531 369.488281 409.089844 371.925781 409.175781 C 376.929688 409.777344 382 409.710938 387.023438 409.359375 C 389.207031 409.394531 391.390625 409.226562 393.554688 409.492188 C 395.402344 409.207031 397.316406 409.375 399.082031 408.652344 C 399.585938 408.484375 400.089844 408.453125 399.871094 409.242188 C 397.199219 419.183594 393.742188 429.277344 387.460938 437.554688 C 386.601562 438.613281 385.832031 439.789062 384.90625 440.796875 C 383.511719 442.140625 381.984375 443.300781 380.792969 444.84375 C 377.46875 447.648438 374.058594 450.523438 371.691406 454.234375 C 367.054688 462.949219 365.542969 472.941406 362.921875 482.378906 C 361.882812 486.328125 361.730469 490.40625 361.847656 494.457031 C 361.714844 498.6875 361.292969 503.171875 362.90625 507.167969 C 363.695312 508.648438 364.015625 507 363.832031 506.109375 C 362.101562 494.167969 365.039062 482.113281 368.53125 470.726562 C 370.984375 463.804688 372.445312 455.777344 378.40625 450.941406 C 400.089844 434.296875 402.742188 410.382812 407.007812 387.292969 C 406.605469 390.632812 406.890625 394.007812 406.890625 397.351562 C 406.640625 400.507812 407.546875 403.496094 408.285156 406.539062 C 410.265625 417.285156 413.238281 427.933594 417.992188 437.824219 C 421.082031 444.074219 425.113281 449.898438 429.496094 455.308594 C 431.5625 457.054688 433.460938 459.136719 435.609375 460.714844 C 437.019531 461.742188 438.277344 463.015625 439.136719 464.542969 C 441.066406 467.988281 442.257812 471.765625 443.265625 475.628906 C 444.878906 480.617188 446.710938 485.554688 447.632812 490.726562 C 448.085938 493.648438 448.539062 496.554688 448.976562 499.460938 C 449.347656 501.476562 449.832031 503.472656 449.664062 505.539062 C 449.632812 509.269531 448.609375 512.878906 448.457031 516.589844 C 448.421875 517.53125 447.332031 517.515625 446.726562 517.96875 C 445.484375 518.722656 444.375 519.679688 443.453125 520.789062 C 440.363281 525.121094 447.984375 525.105469 450.574219 525.257812 C 455.023438 525.425781 459.472656 524.683594 463.636719 523.15625 C 467.28125 521.828125 470.707031 519.949219 473.832031 517.683594 C 476.753906 515.953125 478.046875 512.929688 474.21875 511.285156 L 474.183594 511.285156 Z M 380.40625 367.808594 C 382.035156 366.902344 385.679688 367.925781 387.542969 368.214844 C 393.269531 369.390625 398.863281 371.402344 403.917969 374.308594 C 404.21875 374.511719 404.910156 374.796875 404.910156 375.148438 C 404.722656 375.46875 403.246094 375.234375 402.84375 375.234375 C 400.527344 375.046875 398.226562 374.613281 395.925781 374.257812 C 393.40625 373.621094 390.820312 373.234375 388.316406 372.546875 C 386.265625 371.90625 384.371094 370.898438 382.539062 369.875 C 382.121094 369.640625 381.734375 369.355469 381.328125 369.085938 C 380.945312 368.800781 379.835938 368.414062 380.390625 367.84375 L 380.40625 367.84375 Z M 398.847656 405.511719 C 398.695312 405.796875 398.175781 405.847656 397.804688 405.933594 C 396.882812 406.085938 395.957031 406.167969 395 406.21875 C 393.019531 406.300781 391.035156 406.320312 389.039062 406.386719 C 385.410156 406.488281 381.800781 406.605469 378.191406 406.519531 C 376.796875 406.519531 375.417969 406.554688 374.042969 406.402344 C 371.488281 406.117188 368.769531 406.117188 366.25 405.460938 C 365.796875 405.328125 365.292969 405.058594 365.359375 404.574219 C 365.542969 403.867188 366.601562 403.765625 367.222656 403.617188 C 368.363281 403.414062 369.507812 403.246094 370.648438 403.078125 C 371.789062 402.910156 372.832031 402.824219 373.957031 402.757812 C 376.191406 402.625 378.742188 402.085938 380.925781 402.726562 C 383.109375 403.363281 383.363281 402.945312 384.503906 402.992188 C 385.730469 403.0625 386.972656 403.113281 388.199219 403.195312 C 389.140625 403.261719 390.0625 403.363281 390.988281 403.515625 C 393.335938 403.714844 395.6875 404.050781 397.941406 404.789062 C 398.292969 404.890625 398.980469 405.144531 398.863281 405.511719 Z M 405.597656 381.917969 C 405.496094 383.898438 405.160156 385.878906 404.574219 387.761719 C 404.203125 388.953125 403.800781 390.128906 403.546875 391.339844 C 403.414062 391.945312 403.332031 392.582031 403.261719 393.203125 C 402.996094 396.328125 402.085938 399.332031 401.515625 402.371094 C 401.484375 402.589844 401.398438 402.960938 401.230469 403.011719 C 400.996094 403.113281 400.644531 402.894531 400.390625 402.792969 C 399.46875 402.40625 398.59375 402.238281 397.652344 402.019531 C 397.082031 401.867188 396.578125 401.667969 395.992188 401.601562 C 393.625 401.316406 391.324219 401.230469 388.953125 401.179688 C 387.980469 401.179688 387.039062 400.996094 386.082031 400.894531 C 384.890625 400.777344 383.714844 400.828125 382.539062 400.742188 C 381.3125 400.675781 380.105469 400.574219 378.878906 400.574219 C 376.460938 400.574219 374.023438 400.761719 371.640625 401.164062 C 370.078125 401.433594 368.449219 401.632812 366.871094 401.53125 C 366.28125 401.515625 365.695312 401.53125 365.929688 400.742188 C 368.296875 391.320312 372.648438 382.554688 376.410156 373.621094 C 376.914062 372.363281 377.636719 371.085938 377.953125 369.742188 C 378.089844 369.152344 378.191406 369.101562 378.507812 369.574219 C 379.164062 370.480469 380.136719 371.085938 380.945312 371.839844 C 381.582031 372.410156 382.085938 373.152344 382.839844 373.585938 C 383.277344 373.839844 383.765625 373.941406 384.253906 374.074219 C 385.328125 374.375 386.300781 374.949219 387.375 375.25 C 387.898438 375.417969 388.351562 375.703125 388.855469 375.871094 C 389.507812 376.054688 390.214844 376.089844 390.867188 376.273438 C 393.691406 377.046875 396.578125 377.632812 399.5 377.902344 C 400.171875 377.953125 400.828125 377.902344 401.464844 377.9375 C 402.289062 377.9375 403.078125 378.003906 403.902344 377.9375 C 404.253906 377.902344 404.625 377.835938 404.941406 377.734375 C 405.128906 377.683594 405.414062 377.632812 405.515625 377.734375 C 405.613281 377.851562 405.664062 378.054688 405.664062 378.222656 C 405.699219 379.414062 405.664062 380.640625 405.613281 381.816406 L 405.613281 381.917969 Z M 410.5 405.882812 C 409.308594 400.039062 408.199219 394.210938 408.199219 388.265625 C 408.21875 387.710938 408.503906 387.660156 408.988281 387.828125 C 409.542969 387.996094 410.164062 388.097656 410.753906 388.132812 C 414.046875 388.316406 417.386719 387.746094 420.527344 386.753906 C 423.464844 386.082031 426.152344 384.707031 428.859375 383.394531 C 430.4375 382.691406 432.03125 382 433.460938 381.042969 C 434.0625 380.640625 434.601562 380.136719 435.070312 379.601562 C 435.207031 379.449219 435.375 379.246094 435.574219 379.28125 C 435.726562 379.3125 435.878906 379.617188 435.960938 379.800781 C 436.835938 381.75 437.691406 383.699219 438.566406 385.664062 C 439.824219 388.46875 440.984375 391.320312 441.855469 394.226562 C 442.277344 395.65625 442.695312 397.066406 443.183594 398.476562 C 443.550781 399.519531 443.972656 400.542969 444.441406 401.53125 C 446.140625 405.175781 447.164062 409.074219 448.238281 412.9375 C 448.339844 413.289062 448.488281 413.808594 447.867188 413.589844 C 445.316406 412.601562 442.613281 411.929688 439.890625 411.59375 C 437.675781 411.308594 435.457031 410.972656 433.242188 410.71875 C 432.46875 410.636719 431.695312 410.617188 430.941406 410.46875 C 430.183594 410.316406 429.261719 410.132812 428.421875 409.996094 C 427.496094 409.847656 426.589844 409.746094 425.667969 409.660156 C 423.230469 409.460938 420.78125 409.492188 418.328125 409.542969 C 415.875 409.59375 417.152344 409.609375 416.582031 409.5625 C 416.011719 409.511719 415.554688 409.460938 415.035156 409.460938 C 414.078125 409.460938 413.003906 409.660156 412.230469 410.316406 C 411.863281 410.617188 411.660156 410.636719 411.507812 410.0625 C 411.140625 408.6875 410.785156 407.277344 410.484375 405.882812 L 410.484375 405.847656 L 410.484375 405.882812 Z M 421.6875 411.425781 C 422.628906 411.425781 423.550781 411.457031 424.457031 411.507812 C 425.363281 411.558594 426.941406 411.609375 428.136719 411.84375 C 429.328125 412.078125 430.386719 412.332031 431.527344 412.515625 C 434.179688 412.9375 436.851562 413.238281 439.472656 413.894531 C 441.839844 414.332031 444.222656 414.917969 446.425781 415.910156 C 446.742188 416.042969 447.347656 416.394531 447.078125 416.714844 C 446.894531 416.949219 446.308594 416.96875 445.953125 417 C 445.082031 417.066406 444.175781 417.050781 443.265625 417 C 437.875 416.613281 432.417969 416.328125 427.0625 415.742188 C 425.5 415.554688 423.921875 415.488281 422.375 415.152344 C 420.410156 414.75 418.359375 414.449219 416.394531 413.976562 C 415.625 413.777344 413.003906 413.222656 414.128906 412.113281 C 415.019531 411.59375 416.226562 411.710938 417.234375 411.59375 C 418.679688 411.441406 420.191406 411.390625 421.703125 411.40625 L 421.6875 411.40625 Z M 474.066406 514.304688 C 474.066406 514.542969 473.832031 514.792969 473.5625 515.027344 C 473.160156 515.363281 472.742188 515.71875 472.320312 516.054688 C 471.480469 516.691406 470.574219 517.3125 469.652344 517.832031 C 464.664062 520.636719 459.15625 522.382812 453.5625 523.507812 C 452.085938 523.894531 445.433594 523.746094 444.425781 522.789062 C 444.222656 522.601562 444.292969 522.300781 444.425781 522.082031 C 444.964844 521.242188 445.71875 520.554688 446.425781 519.863281 C 447.164062 519.125 448.105469 518.570312 448.824219 517.816406 C 449.0625 517.515625 449.042969 517.226562 449.160156 516.890625 C 449.378906 516.40625 449.664062 515.886719 449.800781 515.332031 C 450.757812 511.652344 451.160156 507.875 451.292969 504.0625 C 451.511719 498.738281 450.503906 493.480469 449.414062 488.292969 C 448.675781 484.328125 447.550781 480.484375 446.441406 476.621094 C 445.851562 474.539062 445.265625 472.320312 444.660156 470.222656 C 443.621094 466.511719 442.042969 462.867188 439.285156 460.078125 C 437.203125 457.894531 434.734375 456.082031 432.636719 453.898438 C 424.742188 445.921875 419.722656 435.640625 415.976562 425.144531 C 415.019531 422.191406 414.144531 419.21875 413.253906 416.246094 C 412.9375 415.21875 413.660156 415.824219 414.261719 416.058594 C 414.816406 416.296875 415.390625 416.414062 415.910156 416.648438 C 416.296875 416.800781 416.648438 417 417.050781 417.101562 C 417.90625 417.320312 418.847656 417.351562 419.722656 417.570312 C 423.585938 418.429688 427.566406 418.863281 431.496094 419.132812 C 432.753906 419.183594 434.03125 419.132812 435.289062 419.269531 C 436.648438 419.4375 437.992188 419.519531 439.355469 419.585938 C 440.078125 419.671875 440.765625 419.972656 441.46875 420.007812 C 441.90625 420.039062 442.359375 419.972656 442.796875 419.957031 C 443.601562 419.90625 444.410156 420.089844 445.214844 420.023438 C 446.523438 419.90625 447.800781 419.503906 449.078125 419.167969 C 449.515625 419.066406 449.699219 419.402344 449.765625 419.753906 C 450.070312 420.980469 450.355469 422.222656 450.523438 423.484375 C 451.679688 431.847656 451.445312 440.445312 449.144531 448.574219 C 448.152344 452 446.660156 455.15625 445.636719 458.582031 C 444.074219 463.46875 445.132812 467.398438 446.40625 472.136719 C 446.792969 473.679688 446.910156 475.277344 447.316406 476.820312 C 447.648438 478.28125 448.273438 479.675781 448.726562 481.105469 C 449.328125 483.386719 449.882812 485.671875 450.757812 487.871094 C 452.921875 493.113281 454.351562 498.671875 456.585938 503.894531 C 457.457031 506.042969 458.484375 508.210938 460.0625 509.972656 C 460.785156 510.980469 461.707031 511.703125 462.816406 512.222656 C 464.394531 512.996094 466.15625 513.214844 467.886719 513.25 C 469.199219 513.332031 473.699219 513.03125 474.136719 514.355469 Z M 397.21875 359.515625 C 397 359.042969 396.730469 358.472656 396.914062 357.953125 C 397.03125 357.566406 397.4375 357.214844 397.804688 357.230469 C 398.109375 357.230469 398.359375 357.515625 398.5625 357.75 C 398.898438 358.152344 399.234375 358.554688 399.550781 358.960938 C 400.390625 360.035156 401.367188 361.277344 401.316406 362.722656 C 401.265625 363.308594 400.660156 363.796875 400.105469 363.746094 C 398.730469 363.511719 397.855469 360.6875 397.21875 359.546875 Z M 405.347656 357.867188 C 405.515625 356.574219 405.445312 355.230469 405.75 353.9375 C 405.867188 353.199219 406.21875 352.242188 407.125 352.5625 C 407.832031 352.929688 407.5625 354.558594 407.511719 355.246094 C 407.378906 356.222656 407.09375 357.195312 406.890625 358.121094 C 406.757812 358.589844 406.789062 359.246094 406.386719 359.582031 C 406.085938 359.765625 405.546875 359.683594 405.296875 359.429688 C 404.941406 359.027344 405.296875 358.386719 405.328125 357.882812 L 405.328125 357.851562 L 405.347656 357.851562 Z M 413.304688 357.230469 C 413.523438 356.472656 413.84375 355.734375 414.195312 355.03125 C 414.699219 354.074219 415.171875 352.8125 416.296875 352.476562 C 417.269531 352.292969 417.757812 352.644531 417.386719 353.652344 C 417.117188 354.792969 416.582031 355.871094 416.109375 356.925781 C 415.808594 357.617188 415.421875 358.304688 414.785156 358.757812 C 414.28125 359.144531 413.472656 358.890625 413.222656 358.355469 C 413.085938 358.019531 413.1875 357.617188 413.289062 357.261719 L 413.289062 357.230469 Z M 422.257812 362.570312 C 420.980469 361.695312 422.171875 360.839844 422.796875 360.035156 C 423.417969 359.296875 424.054688 358.523438 424.976562 358.152344 C 425.96875 357.714844 428.941406 357.414062 427.496094 359.261719 C 426.792969 360.152344 425.851562 360.824219 425.011719 361.597656 C 424.304688 362.25 423.265625 363.089844 422.273438 362.570312 L 422.242188 362.570312 Z M 427.78125 367.40625 C 429.445312 367.40625 432.484375 366.953125 433.074219 369.019531 C 433.207031 369.773438 432.25 369.792969 431.710938 369.773438 C 430.269531 369.773438 428.789062 369.773438 427.328125 369.691406 C 426.625 369.605469 425.5 369.65625 425.128906 368.933594 C 424.996094 368.617188 425.046875 368.128906 425.246094 367.859375 C 425.433594 367.589844 425.835938 367.542969 426.222656 367.507812 C 426.742188 367.472656 427.246094 367.441406 427.734375 367.40625 Z M 427.78125 367.40625 " fill-opacity="1" fill-rule="nonzero"/></g></svg>