<svg xmlns="http://www.w3.org/2000/svg" xmlns:xlink="http://www.w3.org/1999/xlink" width="1366" zoomAndPan="magnify" viewBox="0 0 1024.5 1024.500009" height="1366" preserveAspectRatio="xMidYMid meet" version="1.0"><defs><g/><clipPath id="3d658ffdee"><path d="M 16 92 L 829 92 L 829 860 L 16 860 Z M 16 92 " clip-rule="nonzero"/></clipPath><clipPath id="84408fb242"><path d="M 0.0234375 76 L 820 76 L 820 844 L 0.0234375 844 Z M 0.0234375 76 " clip-rule="nonzero"/></clipPath><clipPath id="5610cd19eb"><rect x="0" width="829" y="0" height="943"/></clipPath><clipPath id="7d237e1120"><rect x="0" width="1024" y="0" height="1024"/></clipPath></defs><g transform="matrix(1, 0, 0, 1, 0, -0.000000000000376645)"><g clip-path="url(#7d237e1120)"><g fill="#c4beb2" fill-opacity="0.149"><g transform="translate(9.876383, 796.058193)"><g><path d="M 730.84375 32.265625 C 769.21875 32.265625 806.570312 40.257812 842.90625 56.25 C 879.25 72.238281 910.789062 93.316406 937.53125 119.484375 L 934.921875 122.96875 C 907.015625 98.550781 876.488281 82.269531 843.34375 74.125 C 810.207031 65.988281 775.613281 61.921875 739.5625 61.921875 C 715.144531 61.921875 691.304688 63.082031 668.046875 65.40625 C 644.785156 67.726562 621.238281 70.632812 597.40625 74.125 L 556.421875 79.359375 C 532.578125 82.847656 508.878906 85.753906 485.328125 88.078125 C 461.785156 90.410156 438.097656 91.578125 414.265625 91.578125 C 375.304688 91.578125 337.507812 87.503906 300.875 79.359375 C 264.25 71.222656 230.238281 58.722656 198.84375 41.859375 C 167.445312 25.003906 139.25 3.203125 114.25 -23.546875 C 89.25 -50.296875 68.609375 -82.273438 52.328125 -119.484375 C 43.023438 -141.578125 35.898438 -164.394531 30.953125 -187.9375 C 26.015625 -211.488281 23.546875 -235.472656 23.546875 -259.890625 C 23.546875 -297.097656 30.234375 -331.398438 43.609375 -362.796875 C 56.984375 -394.203125 75.441406 -421.382812 98.984375 -444.34375 C 122.535156 -467.3125 150.15625 -485.335938 181.84375 -498.421875 C 213.53125 -511.503906 247.976562 -518.046875 285.1875 -518.046875 C 288.09375 -518.046875 291.144531 -518.046875 294.34375 -518.046875 C 297.539062 -518.046875 300.59375 -517.753906 303.5 -517.171875 L 316.578125 -516.296875 L 320.9375 -516.296875 L 330.53125 -515.421875 C 341 -515.421875 350.738281 -516.726562 359.75 -519.34375 C 368.757812 -521.96875 375.300781 -529.09375 379.375 -540.71875 L 399.4375 -433.453125 C 390.132812 -454.960938 374.722656 -473.273438 353.203125 -488.390625 C 331.691406 -503.503906 309.019531 -511.0625 285.1875 -511.0625 C 248.550781 -511.0625 217.585938 -503.9375 192.296875 -489.6875 C 167.003906 -475.445312 146.363281 -456.695312 130.375 -433.4375 C 114.394531 -410.1875 102.769531 -383.441406 95.5 -353.203125 C 88.226562 -322.972656 84.59375 -291.867188 84.59375 -259.890625 C 84.59375 -211.054688 91.425781 -165.707031 105.09375 -123.84375 C 118.757812 -81.976562 138.960938 -45.78125 165.703125 -15.25 C 192.453125 15.269531 225.445312 39.25 264.6875 56.6875 C 303.9375 74.132812 349.144531 82.859375 400.3125 82.859375 C 425.3125 82.859375 449.726562 80.820312 473.5625 76.75 C 497.40625 72.675781 521.242188 67.734375 545.078125 61.921875 L 586.0625 53.203125 C 610.488281 47.390625 634.617188 42.445312 658.453125 38.375 C 682.296875 34.300781 706.425781 32.265625 730.84375 32.265625 Z M 730.84375 32.265625 "/></g></g></g><g fill="#7e7d5b" fill-opacity="1"><g transform="translate(-13.24955, 772.932259)"><g><path d="M 730.84375 32.265625 C 769.21875 32.265625 806.570312 40.257812 842.90625 56.25 C 879.25 72.238281 910.789062 93.316406 937.53125 119.484375 L 934.921875 122.96875 C 907.015625 98.550781 876.488281 82.269531 843.34375 74.125 C 810.207031 65.988281 775.613281 61.921875 739.5625 61.921875 C 715.144531 61.921875 691.304688 63.082031 668.046875 65.40625 C 644.785156 67.726562 621.238281 70.632812 597.40625 74.125 L 556.421875 79.359375 C 532.578125 82.847656 508.878906 85.753906 485.328125 88.078125 C 461.785156 90.410156 438.097656 91.578125 414.265625 91.578125 C 375.304688 91.578125 337.507812 87.503906 300.875 79.359375 C 264.25 71.222656 230.238281 58.722656 198.84375 41.859375 C 167.445312 25.003906 139.25 3.203125 114.25 -23.546875 C 89.25 -50.296875 68.609375 -82.273438 52.328125 -119.484375 C 43.023438 -141.578125 35.898438 -164.394531 30.953125 -187.9375 C 26.015625 -211.488281 23.546875 -235.472656 23.546875 -259.890625 C 23.546875 -297.097656 30.234375 -331.398438 43.609375 -362.796875 C 56.984375 -394.203125 75.441406 -421.382812 98.984375 -444.34375 C 122.535156 -467.3125 150.15625 -485.335938 181.84375 -498.421875 C 213.53125 -511.503906 247.976562 -518.046875 285.1875 -518.046875 C 288.09375 -518.046875 291.144531 -518.046875 294.34375 -518.046875 C 297.539062 -518.046875 300.59375 -517.753906 303.5 -517.171875 L 316.578125 -516.296875 L 320.9375 -516.296875 L 330.53125 -515.421875 C 341 -515.421875 350.738281 -516.726562 359.75 -519.34375 C 368.757812 -521.96875 375.300781 -529.09375 379.375 -540.71875 L 399.4375 -433.453125 C 390.132812 -454.960938 374.722656 -473.273438 353.203125 -488.390625 C 331.691406 -503.503906 309.019531 -511.0625 285.1875 -511.0625 C 248.550781 -511.0625 217.585938 -503.9375 192.296875 -489.6875 C 167.003906 -475.445312 146.363281 -456.695312 130.375 -433.4375 C 114.394531 -410.1875 102.769531 -383.441406 95.5 -353.203125 C 88.226562 -322.972656 84.59375 -291.867188 84.59375 -259.890625 C 84.59375 -211.054688 91.425781 -165.707031 105.09375 -123.84375 C 118.757812 -81.976562 138.960938 -45.78125 165.703125 -15.25 C 192.453125 15.269531 225.445312 39.25 264.6875 56.6875 C 303.9375 74.132812 349.144531 82.859375 400.3125 82.859375 C 425.3125 82.859375 449.726562 80.820312 473.5625 76.75 C 497.40625 72.675781 521.242188 67.734375 545.078125 61.921875 L 586.0625 53.203125 C 610.488281 47.390625 634.617188 42.445312 658.453125 38.375 C 682.296875 34.300781 706.425781 32.265625 730.84375 32.265625 Z M 730.84375 32.265625 "/></g></g></g><g transform="matrix(1, 0, 0, 1, 195, -0.000000000000376645)"><g clip-path="url(#5610cd19eb)"><g clip-path="url(#3d658ffdee)"><g fill="#aca08a" fill-opacity="0.1294"><g transform="translate(216.249803, 660.315243)"><g><path d="M 618.84375 196.765625 C 611.625 197.421875 604.734375 197.910156 598.171875 198.234375 C 591.617188 198.566406 584.734375 198.734375 577.515625 198.734375 C 527.671875 198.734375 484.378906 186.925781 447.640625 163.3125 C 410.910156 139.707031 378.28125 109.046875 349.75 71.328125 C 321.21875 33.609375 295.800781 -9.023438 273.5 -56.578125 C 251.207031 -104.128906 229.894531 -152.007812 209.5625 -200.21875 C 189.226562 -248.425781 168.726562 -294.5 148.0625 -338.4375 C 127.40625 -382.382812 104.613281 -419.769531 79.6875 -450.59375 L 79.6875 -72.796875 C 79.6875 -53.773438 84.929688 -38.195312 95.421875 -26.0625 C 105.921875 -13.9375 119.695312 -5.25 136.75 0 L 17.703125 0 C 53.785156 -11.144531 71.828125 -35.410156 71.828125 -72.796875 L 71.828125 -459.453125 C 48.867188 -487.003906 21.320312 -510.453125 -10.8125 -529.796875 C -42.957031 -549.148438 -77.394531 -558.828125 -114.125 -558.828125 C -128.550781 -558.828125 -142.648438 -557.675781 -156.421875 -555.375 C -170.203125 -553.082031 -183.648438 -550.296875 -196.765625 -547.015625 L -199.71875 -553.90625 C -168.238281 -563.082031 -136.425781 -567.671875 -104.28125 -567.671875 C -62.96875 -567.671875 -25.585938 -560.457031 7.859375 -546.03125 C 41.316406 -531.601562 71.65625 -512.253906 98.875 -487.984375 C 126.09375 -463.710938 150.359375 -435.671875 171.671875 -403.859375 C 192.992188 -372.054688 212.34375 -338.769531 229.71875 -304 C 247.101562 -269.238281 263.175781 -234.148438 277.9375 -198.734375 C 292.695312 -163.316406 306.632812 -129.867188 319.75 -98.390625 L 493.890625 -482.078125 L 582.4375 -482.078125 C 568.664062 -478.148438 559.316406 -470.445312 554.390625 -458.96875 C 549.472656 -447.488281 547.015625 -435.1875 547.015625 -422.0625 L 547.015625 -62.96875 C 547.015625 -49.851562 549.3125 -37.226562 553.90625 -25.09375 C 558.5 -12.957031 568.007812 -4.59375 582.4375 0 L 451.578125 0 C 466.015625 -3.9375 475.523438 -12.132812 480.109375 -24.59375 C 484.703125 -37.0625 487 -49.851562 487 -62.96875 L 487 -450.59375 L 323.6875 -89.53125 C 334.175781 -62.632812 346.632812 -32.953125 361.0625 -0.484375 C 375.5 31.972656 392.554688 62.300781 412.234375 90.5 C 431.910156 118.707031 455.03125 142.320312 481.59375 161.34375 C 508.15625 180.363281 538.488281 189.875 572.59375 189.875 C 580.46875 189.875 588.175781 189.707031 595.71875 189.375 C 603.257812 189.050781 610.640625 188.238281 617.859375 186.9375 Z M 618.84375 196.765625 "/></g></g></g></g><g clip-path="url(#84408fb242)"><g fill="#4a4a35" fill-opacity="1"><g transform="translate(200.596858, 644.662311)"><g><path d="M 618.84375 196.765625 C 611.625 197.421875 604.734375 197.910156 598.171875 198.234375 C 591.617188 198.566406 584.734375 198.734375 577.515625 198.734375 C 527.671875 198.734375 484.378906 186.925781 447.640625 163.3125 C 410.910156 139.707031 378.28125 109.046875 349.75 71.328125 C 321.21875 33.609375 295.800781 -9.023438 273.5 -56.578125 C 251.207031 -104.128906 229.894531 -152.007812 209.5625 -200.21875 C 189.226562 -248.425781 168.726562 -294.5 148.0625 -338.4375 C 127.40625 -382.382812 104.613281 -419.769531 79.6875 -450.59375 L 79.6875 -72.796875 C 79.6875 -53.773438 84.929688 -38.195312 95.421875 -26.0625 C 105.921875 -13.9375 119.695312 -5.25 136.75 0 L 17.703125 0 C 53.785156 -11.144531 71.828125 -35.410156 71.828125 -72.796875 L 71.828125 -459.453125 C 48.867188 -487.003906 21.320312 -510.453125 -10.8125 -529.796875 C -42.957031 -549.148438 -77.394531 -558.828125 -114.125 -558.828125 C -128.550781 -558.828125 -142.648438 -557.675781 -156.421875 -555.375 C -170.203125 -553.082031 -183.648438 -550.296875 -196.765625 -547.015625 L -199.71875 -553.90625 C -168.238281 -563.082031 -136.425781 -567.671875 -104.28125 -567.671875 C -62.96875 -567.671875 -25.585938 -560.457031 7.859375 -546.03125 C 41.316406 -531.601562 71.65625 -512.253906 98.875 -487.984375 C 126.09375 -463.710938 150.359375 -435.671875 171.671875 -403.859375 C 192.992188 -372.054688 212.34375 -338.769531 229.71875 -304 C 247.101562 -269.238281 263.175781 -234.148438 277.9375 -198.734375 C 292.695312 -163.316406 306.632812 -129.867188 319.75 -98.390625 L 493.890625 -482.078125 L 582.4375 -482.078125 C 568.664062 -478.148438 559.316406 -470.445312 554.390625 -458.96875 C 549.472656 -447.488281 547.015625 -435.1875 547.015625 -422.0625 L 547.015625 -62.96875 C 547.015625 -49.851562 549.3125 -37.226562 553.90625 -25.09375 C 558.5 -12.957031 568.007812 -4.59375 582.4375 0 L 451.578125 0 C 466.015625 -3.9375 475.523438 -12.132812 480.109375 -24.59375 C 484.703125 -37.0625 487 -49.851562 487 -62.96875 L 487 -450.59375 L 323.6875 -89.53125 C 334.175781 -62.632812 346.632812 -32.953125 361.0625 -0.484375 C 375.5 31.972656 392.554688 62.300781 412.234375 90.5 C 431.910156 118.707031 455.03125 142.320312 481.59375 161.34375 C 508.15625 180.363281 538.488281 189.875 572.59375 189.875 C 580.46875 189.875 588.175781 189.707031 595.71875 189.375 C 603.257812 189.050781 610.640625 188.238281 617.859375 186.9375 Z M 618.84375 196.765625 "/></g></g></g></g></g></g></g></g></svg>